{"glyphs":{"0":{"ha":799,"x_min":74,"x_max":726,"o":"m 401 886 q 528 859 468 886 q 631 776 588 832 q 701 636 675 721 q 726 438 726 551 q 701 238 726 322 q 631 99 675 154 q 527 16 586 43 q 401 -11 468 -11 q 275 16 335 -11 q 170 99 215 43 q 99 238 125 154 q 74 438 74 322 q 99 631 74 547 q 170 771 125 714 q 275 857 215 828 q 401 886 335 886 m 146 438 q 167 257 146 331 q 225 136 189 183 q 308 68 261 89 q 404 47 354 47 q 499 70 454 47 q 578 141 544 93 q 633 263 613 189 q 654 438 654 336 q 633 617 654 543 q 575 738 611 692 q 493 806 539 785 q 397 828 447 828 q 302 805 347 828 q 222 734 257 782 q 167 613 188 686 q 146 438 146 539 z "},"1":{"ha":471,"x_min":76,"x_max":346,"o":"m 292 875 l 346 875 l 346 0 l 275 0 l 275 794 l 93 715 l 76 776 l 292 875 z "},"2":{"ha":661,"x_min":63,"x_max":601,"o":"m 307 828 q 208 813 258 828 q 106 753 158 797 l 74 801 q 195 870 136 854 q 307 886 254 886 q 420 867 371 886 q 501 815 469 849 q 550 736 533 782 q 567 636 567 690 q 549 535 567 586 q 497 431 532 485 q 410 315 463 376 q 286 181 357 253 l 161 58 l 601 58 l 601 0 l 75 0 l 63 46 l 181 161 q 327 315 268 250 q 423 434 386 381 q 476 534 460 488 q 492 633 492 581 q 445 776 492 724 q 307 828 399 828 z "},"3":{"ha":681,"x_min":58,"x_max":579,"o":"m 75 821 q 182 872 128 857 q 293 886 236 886 q 397 869 350 886 q 478 821 444 851 q 530 749 511 790 q 549 658 549 707 q 506 523 549 576 q 401 447 464 469 q 529 371 479 428 q 579 235 579 314 q 553 120 579 167 q 483 44 526 74 q 386 2 440 15 q 276 -11 332 -11 q 159 1 218 -11 q 58 33 100 13 l 75 89 q 166 58 115 69 q 275 47 217 47 q 361 58 319 47 q 435 92 403 69 q 488 151 468 115 q 507 235 507 186 q 443 365 507 318 q 276 411 379 411 l 169 411 l 169 468 l 250 468 q 339 481 297 468 q 412 517 381 493 q 461 575 443 540 q 479 654 479 610 q 429 780 479 732 q 289 828 379 828 q 194 816 238 828 q 97 772 150 804 l 75 821 z "},"4":{"ha":744,"x_min":28,"x_max":696,"o":"m 463 875 l 544 875 l 544 296 l 696 296 l 696 238 l 544 238 l 544 0 l 472 0 l 472 238 l 28 238 l 28 278 l 463 875 m 117 296 l 472 296 l 472 614 l 479 810 l 476 810 l 354 622 l 117 296 z "},"5":{"ha":658,"x_min":56,"x_max":565,"o":"m 547 878 l 547 818 l 196 815 l 164 514 q 206 519 179 517 q 265 522 233 522 q 378 506 324 522 q 474 457 432 489 q 540 376 515 425 q 565 265 565 328 q 543 152 565 203 q 478 65 521 101 q 376 9 436 29 q 242 -11 317 -11 q 142 -2 193 -11 q 56 26 90 7 l 74 83 q 149 56 104 65 q 239 47 194 47 q 340 60 293 47 q 420 99 386 72 q 474 165 454 125 q 493 261 493 206 q 426 410 493 354 q 240 467 358 467 q 167 463 200 467 q 97 449 133 458 l 140 875 l 547 878 z "},"6":{"ha":700,"x_min":63,"x_max":651,"o":"m 436 886 q 519 881 485 886 q 592 860 553 875 l 575 803 q 514 822 544 817 q 446 828 483 828 q 322 802 379 828 q 224 728 265 776 q 158 608 182 679 q 129 444 133 536 q 167 492 143 468 q 222 534 190 515 q 293 564 254 553 q 375 575 332 575 q 481 556 431 575 q 569 502 532 538 q 629 414 607 467 q 651 293 651 361 q 630 169 651 225 q 570 74 608 114 q 480 11 532 33 q 365 -11 428 -11 q 253 10 308 -11 q 156 78 199 31 q 88 206 114 126 q 63 401 63 285 q 95 621 63 529 q 181 772 128 713 q 301 858 235 831 q 436 886 368 886 m 135 321 q 153 206 135 257 q 202 120 171 156 q 276 66 233 85 q 368 47 319 47 q 451 64 413 47 q 517 112 489 81 q 563 188 546 143 q 579 289 579 232 q 563 389 579 346 q 517 460 546 432 q 448 503 488 489 q 361 517 408 517 q 225 475 282 517 q 146 376 168 433 q 138 353 142 363 q 135 321 135 343 z "},"7":{"ha":688,"x_min":79,"x_max":624,"o":"m 624 875 l 624 833 l 218 -12 l 153 17 l 543 817 l 79 817 l 79 875 l 624 875 z "},"8":{"ha":701,"x_min":60,"x_max":642,"o":"m 354 886 q 467 868 418 886 q 551 819 517 850 q 602 750 585 789 q 619 668 619 711 q 581 553 619 607 q 443 463 542 499 q 590 373 538 431 q 642 233 642 315 q 619 129 642 175 q 558 52 597 83 q 465 5 518 21 q 353 -11 413 -11 q 237 6 290 -11 q 144 53 183 22 q 82 127 104 83 q 60 226 60 171 q 107 369 60 313 q 254 458 154 425 q 89 665 89 519 q 106 751 89 711 q 156 822 122 792 q 239 869 189 851 q 354 886 289 886 m 163 667 q 215 547 163 592 q 344 485 267 503 q 422 509 386 493 q 485 548 458 525 q 528 601 513 571 q 544 667 544 631 q 528 735 544 706 q 487 786 513 765 q 426 817 461 807 q 354 828 392 828 q 211 781 260 828 q 163 667 163 733 m 346 428 q 188 361 249 411 q 128 231 128 311 q 142 160 128 193 q 184 101 156 126 q 254 62 213 76 q 353 47 296 47 q 447 62 406 47 q 516 101 488 76 q 560 160 544 126 q 575 231 575 193 q 513 358 575 307 q 346 428 451 410 z "},"9":{"ha":704,"x_min":53,"x_max":642,"o":"m 278 -11 q 188 -6 225 -11 q 117 15 150 0 l 133 72 q 199 53 160 60 q 275 47 239 47 q 489 139 411 47 q 574 419 567 231 q 484 335 546 371 q 331 299 422 299 q 224 318 274 299 q 135 374 174 338 q 75 463 97 410 q 53 585 53 517 q 76 713 53 657 q 138 808 99 769 q 231 866 178 846 q 343 886 283 886 q 453 863 399 886 q 549 791 507 840 q 616 663 590 742 q 642 474 642 585 q 615 248 642 340 q 539 98 588 156 q 424 15 490 40 q 278 -11 357 -11 m 569 535 q 554 638 569 586 q 510 733 539 690 q 438 801 481 775 q 340 828 394 828 q 257 811 296 828 q 189 764 218 794 q 142 688 160 733 q 125 588 125 643 q 142 488 125 531 q 188 415 158 444 q 256 372 217 386 q 343 357 296 357 q 484 395 426 357 q 563 490 542 433 q 569 515 569 507 q 569 535 569 524 z "},"\u0000":{"ha":0,"x_min":0,"x_max":0,"o":""},"\r":{"ha":1422,"x_min":0,"x_max":0,"o":""}," ":{"ha":292,"x_min":0,"x_max":0,"o":""},"!":{"ha":288,"x_min":89,"x_max":200,"o":"m 110 986 l 185 986 l 172 263 l 117 263 l 110 986 m 89 50 q 105 94 89 78 q 144 111 121 111 q 184 94 168 111 q 200 50 200 78 q 184 5 200 21 q 144 -11 168 -11 q 105 5 121 -11 q 89 50 89 21 z "},"\"":{"ha":408,"x_min":71,"x_max":338,"o":"m 264 896 l 338 896 l 322 594 l 278 594 l 264 896 m 71 896 l 144 896 l 131 594 l 86 594 l 71 896 z "},"#":{"ha":861,"x_min":49,"x_max":814,"o":"m 346 679 l 293 367 l 546 367 l 599 679 l 346 679 m 657 1028 l 715 1028 l 665 732 l 814 732 l 814 679 l 657 679 l 604 367 l 767 367 l 767 311 l 596 311 l 543 0 l 485 0 l 538 311 l 283 311 l 232 0 l 174 0 l 226 311 l 49 311 l 49 367 l 236 367 l 288 679 l 97 679 l 97 732 l 296 732 l 346 1028 l 403 1028 l 354 731 l 607 731 l 657 1028 z "},"%":{"ha":1125,"x_min":42,"x_max":1082,"o":"m 236 0 l 843 1042 l 906 1042 l 299 0 l 236 0 m 1082 249 q 1068 149 1082 196 q 1027 66 1054 101 q 958 10 1000 31 q 860 -11 915 -11 q 765 10 806 -11 q 697 66 724 31 q 656 149 669 101 q 642 249 642 196 q 656 348 642 301 q 699 430 671 394 q 768 486 726 465 q 864 507 810 507 q 959 486 918 507 q 1027 430 1000 465 q 1068 348 1054 394 q 1082 249 1082 301 m 1018 249 q 1010 330 1018 292 q 983 396 1001 368 q 935 440 964 424 q 864 457 906 456 q 796 443 825 458 q 747 399 767 428 q 716 333 726 371 q 706 249 706 294 q 744 98 706 157 q 860 39 782 39 q 978 94 938 39 q 1018 249 1018 149 m 482 783 q 468 683 482 731 q 427 601 454 636 q 358 544 400 565 q 260 524 315 524 q 165 544 206 524 q 97 601 124 565 q 56 683 69 636 q 42 783 42 731 q 56 883 42 836 q 99 965 71 929 q 168 1021 126 1000 q 264 1042 210 1042 q 359 1021 318 1042 q 427 965 400 1000 q 468 883 454 929 q 482 783 482 836 m 418 783 q 410 865 418 826 q 383 931 401 903 q 335 974 364 958 q 264 992 306 990 q 196 978 225 993 q 147 934 167 963 q 116 867 126 906 q 106 783 106 829 q 144 633 106 692 q 260 574 182 574 q 378 628 338 574 q 418 783 418 683 z "},"&":{"ha":864,"x_min":42,"x_max":878,"o":"m 42 250 q 57 345 42 304 q 102 419 72 386 q 177 477 132 451 q 281 525 222 503 q 203 622 236 569 q 169 740 169 674 q 188 822 169 786 q 236 881 206 857 q 306 918 267 906 q 389 931 346 931 q 544 879 485 931 q 603 740 603 828 q 450 531 603 604 l 413 575 q 497 639 467 601 q 528 735 528 676 q 491 833 528 793 q 385 872 454 872 q 277 833 310 872 q 244 742 244 793 q 254 678 244 707 q 280 625 264 650 q 317 577 296 600 q 361 531 338 554 l 663 221 q 685 259 672 236 q 710 310 697 282 q 734 370 722 339 q 756 432 746 401 l 814 408 q 763 282 793 343 q 706 178 733 221 l 878 0 l 792 0 l 669 125 q 540 26 614 64 q 354 -11 465 -11 q 228 9 286 -11 q 129 65 171 29 q 65 147 88 100 q 42 250 42 194 m 117 253 q 135 169 117 207 q 185 103 153 131 q 264 62 218 76 q 364 47 310 47 q 456 60 414 47 q 531 90 497 72 q 588 130 564 108 q 626 169 613 151 l 325 481 q 167 388 217 442 q 117 253 117 333 z "},"'":{"ha":215,"x_min":71,"x_max":144,"o":"m 71 896 l 144 896 l 129 594 l 85 594 l 71 896 z "},"(":{"ha":397,"x_min":69,"x_max":342,"o":"m 289 -212 q 208 -90 247 -156 q 138 49 168 -25 q 88 208 107 124 q 69 388 69 292 q 89 572 69 485 q 140 734 108 658 q 210 873 171 810 q 292 986 250 936 l 340 951 q 198 694 251 832 q 144 388 144 556 q 158 230 144 304 q 196 87 171 156 q 258 -48 221 18 q 342 -182 294 -114 l 289 -212 z "},")":{"ha":397,"x_min":56,"x_max":328,"o":"m 108 986 q 190 864 150 929 q 260 724 229 799 q 309 566 290 650 q 328 386 328 482 q 308 202 328 289 q 258 40 289 115 q 187 -99 226 -36 q 106 -212 147 -162 l 57 -178 q 199 80 146 -58 q 253 386 253 218 q 240 544 253 469 q 201 687 226 618 q 140 822 176 756 q 56 956 103 888 l 108 986 z "},"*":{"ha":469,"x_min":21,"x_max":463,"o":"m 86 564 l 140 636 l 217 719 l 106 743 l 21 769 l 38 822 l 121 797 l 228 750 l 214 864 l 214 950 l 269 950 l 269 864 l 256 750 l 363 799 l 446 824 l 463 771 l 378 744 l 267 719 l 342 636 l 394 564 l 350 532 l 299 604 l 242 700 l 185 604 l 131 532 l 86 564 z "},"+":{"ha":781,"x_min":56,"x_max":725,"o":"m 725 454 l 725 396 l 422 396 l 422 90 l 358 90 l 358 396 l 56 396 l 56 454 l 358 454 l 358 760 l 422 760 l 422 454 l 725 454 z "},",":{"ha":225,"x_min":31,"x_max":193,"o":"m 125 -11 q 85 10 101 -7 q 69 56 69 26 q 85 97 69 81 q 126 114 101 114 q 171 95 149 114 q 193 22 193 76 q 182 -39 193 -10 q 152 -94 171 -68 q 109 -140 133 -119 q 58 -174 85 -160 l 31 -135 q 99 -81 72 -114 q 132 -12 125 -47 l 125 -11 z "},"-":{"ha":389,"x_min":42,"x_max":347,"o":"m 347 435 l 347 374 l 42 374 l 42 435 l 347 435 z "},".":{"ha":201,"x_min":56,"x_max":167,"o":"m 56 50 q 72 94 56 78 q 111 111 88 111 q 151 94 135 111 q 167 50 167 78 q 151 5 167 21 q 111 -11 135 -11 q 72 5 88 -11 q 56 50 56 21 z "},"/":{"ha":521,"x_min":-1,"x_max":525,"o":"m -1 -151 l 460 1042 l 525 1042 l 64 -151 l -1 -151 z "},":":{"ha":254,"x_min":72,"x_max":183,"o":"m 72 50 q 88 94 72 78 q 128 111 104 111 q 167 94 151 111 q 183 50 183 78 q 167 5 183 21 q 128 -11 151 -11 q 88 5 104 -11 q 72 50 72 21 m 72 490 q 88 535 72 518 q 128 551 104 551 q 167 535 151 551 q 183 490 183 518 q 167 445 183 461 q 128 429 151 429 q 88 445 104 429 q 72 490 72 461 z "},";":{"ha":274,"x_min":63,"x_max":225,"o":"m 157 -11 q 117 10 133 -7 q 101 56 101 26 q 117 97 101 81 q 158 114 133 114 q 203 95 181 114 q 225 22 225 76 q 214 -39 225 -10 q 184 -94 203 -68 q 141 -140 165 -119 q 90 -174 117 -160 l 63 -135 q 131 -81 104 -114 q 164 -12 157 -47 l 157 -11 m 99 411 q 115 456 99 439 q 154 472 131 472 q 194 456 178 472 q 210 411 210 439 q 194 366 210 382 q 154 350 178 350 q 115 366 131 350 q 99 411 99 382 z "},"<":{"ha":689,"x_min":92,"x_max":597,"o":"m 92 326 l 92 379 l 597 671 l 597 599 l 168 353 l 597 107 l 597 35 l 92 326 z "},"=":{"ha":643,"x_min":56,"x_max":588,"o":"m 588 338 l 588 279 l 56 279 l 56 338 l 588 338 m 588 572 l 588 514 l 56 514 l 56 572 l 588 572 z "},">":{"ha":689,"x_min":92,"x_max":597,"o":"m 92 107 l 521 353 l 92 599 l 92 671 l 597 379 l 597 326 l 92 35 l 92 107 z "},"?":{"ha":593,"x_min":81,"x_max":531,"o":"m 278 993 q 464 932 397 993 q 531 769 531 871 q 486 631 531 694 q 367 500 442 567 q 310 445 332 469 q 276 399 289 421 q 259 354 264 376 q 254 307 254 332 q 258 261 254 283 q 268 222 261 239 l 207 211 q 194 254 200 225 q 189 307 189 283 q 218 417 189 361 q 326 546 247 474 q 426 654 392 604 q 461 768 461 704 q 451 831 461 800 q 417 884 440 861 q 358 921 394 907 q 269 935 322 935 q 190 925 231 935 q 108 888 149 915 l 81 936 q 175 979 121 965 q 278 993 229 993 m 197 50 q 214 94 197 78 q 254 110 231 110 q 294 94 278 110 q 310 50 310 78 q 294 5 310 21 q 254 -11 278 -11 q 214 5 231 -11 q 197 50 197 21 z "},"@":{"ha":1338,"x_min":69,"x_max":1271,"o":"m 801 86 l 799 86 q 711 19 767 49 q 571 -11 656 -11 q 490 2 526 -11 q 428 40 454 15 q 387 97 401 64 q 372 167 372 129 q 398 268 372 226 q 467 336 424 310 q 566 374 510 363 q 685 385 622 385 l 835 385 l 844 440 q 849 490 849 467 q 813 578 849 554 q 713 603 776 603 q 617 588 676 603 q 492 540 557 574 l 471 594 q 601 644 542 628 q 726 661 661 661 q 801 651 767 661 q 861 620 836 642 q 901 565 886 599 q 915 485 915 532 q 914 456 915 471 q 910 425 913 440 l 874 203 q 869 166 871 183 q 867 133 867 149 q 879 78 867 97 q 928 58 892 58 q 1031 87 982 58 q 1118 167 1081 115 q 1177 294 1156 219 q 1199 461 1199 368 q 1168 633 1199 551 q 1079 774 1138 714 q 937 870 1021 835 q 747 906 853 906 q 517 862 626 906 q 324 733 407 818 q 192 526 242 649 q 143 246 143 404 q 187 16 143 110 q 301 -137 231 -78 q 458 -222 371 -196 q 632 -249 544 -249 q 797 -233 721 -249 q 925 -190 872 -217 l 939 -240 q 799 -285 881 -265 q 622 -304 718 -304 q 425 -275 524 -304 q 247 -181 326 -246 q 119 -12 168 -115 q 69 239 69 90 q 126 547 69 413 q 277 774 183 682 q 492 913 371 865 q 742 961 613 961 q 968 923 869 961 q 1134 818 1067 885 q 1236 660 1201 751 q 1271 463 1271 569 q 1238 254 1271 342 q 1155 110 1206 167 q 1042 27 1104 54 q 919 0 979 0 q 860 6 885 0 q 824 18 835 11 l 801 86 m 826 329 l 701 326 q 583 314 632 325 q 504 283 535 303 q 460 234 474 263 q 446 169 446 206 q 485 79 446 111 q 586 47 524 47 q 662 58 628 47 q 722 84 696 68 q 765 119 747 100 q 794 156 783 138 l 826 329 z "},"[":{"ha":390,"x_min":113,"x_max":349,"o":"m 113 -201 l 113 986 l 349 986 l 349 936 l 176 936 l 176 -150 l 349 -150 l 349 -201 l 113 -201 z "},"\\":{"ha":410,"x_min":-4,"x_max":410,"o":"m 351 -122 l -4 1000 l 54 1000 l 410 -122 l 351 -122 z "},"]":{"ha":390,"x_min":42,"x_max":278,"o":"m 42 -201 l 42 -151 l 214 -151 l 214 935 l 42 935 l 42 986 l 278 986 l 278 -201 l 42 -201 z "},"^":{"ha":661,"x_min":85,"x_max":578,"o":"m 578 578 l 514 578 l 331 943 l 150 578 l 85 578 l 303 1000 l 357 1000 l 578 578 z "},"_":{"ha":508,"x_min":14,"x_max":494,"o":"m 494 -292 l 494 -347 l 14 -347 l 14 -292 l 494 -292 z "},"{":{"ha":453,"x_min":39,"x_max":418,"o":"m 418 915 q 294 873 339 915 q 249 744 249 831 l 249 546 q 226 443 249 482 q 147 386 203 404 l 147 383 q 224 311 200 360 q 249 188 249 263 l 249 -10 q 418 -154 249 -147 l 418 -201 q 252 -150 315 -201 q 189 3 189 -99 l 189 215 q 153 319 189 281 q 39 360 118 357 l 39 410 q 153 450 117 418 q 189 549 189 482 l 189 771 q 204 848 189 813 q 249 909 219 883 q 321 950 278 935 q 418 965 364 965 l 418 915 z "},"|":{"ha":267,"x_min":100,"x_max":167,"o":"m 100 -319 l 100 1042 l 167 1042 l 167 -319 l 100 -319 z "},"}":{"ha":453,"x_min":35,"x_max":414,"o":"m 35 965 q 201 914 138 965 q 264 761 264 863 l 264 549 q 299 445 264 483 q 414 404 335 407 l 414 354 q 300 314 336 346 q 264 215 264 282 l 264 -7 q 249 -84 264 -49 q 204 -145 233 -119 q 132 -186 175 -171 q 35 -201 89 -201 l 35 -151 q 159 -109 114 -151 q 204 19 204 -67 l 204 218 q 227 321 204 282 q 306 378 250 360 l 306 381 q 228 453 253 404 q 204 576 204 501 l 204 774 q 35 918 204 911 l 35 965 z "},"~":{"ha":814,"x_min":67,"x_max":747,"o":"m 67 292 q 119 431 67 382 q 254 479 171 479 q 342 461 301 479 q 422 421 383 443 q 497 381 460 399 q 576 363 535 363 q 665 399 636 363 q 693 501 693 436 l 747 501 q 733 409 747 447 q 697 348 719 371 q 644 315 674 325 q 583 304 614 304 q 492 323 535 304 q 411 364 450 342 q 333 405 372 386 q 253 424 294 424 q 154 387 188 424 q 121 292 121 350 l 67 292 z "},"…":{"ha":764,"x_min":76,"x_max":688,"o":"m 76 50 q 92 94 76 78 q 132 111 108 111 q 172 94 156 111 q 188 50 188 78 q 172 5 188 21 q 132 -11 156 -11 q 92 5 108 -11 q 76 50 76 21 m 326 50 q 342 94 326 78 q 382 111 358 111 q 422 94 406 111 q 438 50 438 78 q 422 5 438 21 q 382 -11 406 -11 q 342 5 358 -11 q 326 50 326 21 m 576 50 q 592 94 576 78 q 632 111 608 111 q 672 94 656 111 q 688 50 688 78 q 672 5 688 21 q 632 -11 656 -11 q 592 5 608 -11 q 576 50 576 21 z "},"–":{"ha":724,"x_min":75,"x_max":649,"o":"m 649 346 l 649 289 l 75 289 l 75 346 l 649 346 z "},"—":{"ha":1297,"x_min":75,"x_max":1222,"o":"m 1222 344 l 1222 289 l 75 289 l 75 344 l 1222 344 z "},"‘":{"ha":225,"x_min":32,"x_max":194,"o":"m 100 865 q 140 844 124 861 q 156 799 156 828 q 140 757 156 774 q 99 740 124 740 q 54 759 76 740 q 32 832 32 778 q 43 892 32 863 q 73 948 54 922 q 116 994 92 974 q 167 1028 140 1014 l 194 989 q 126 935 153 968 q 93 867 100 901 l 100 865 z "},"’":{"ha":225,"x_min":31,"x_max":193,"o":"m 125 868 q 85 889 101 872 q 69 935 69 906 q 85 976 69 960 q 126 993 101 993 q 171 974 149 993 q 193 901 193 956 q 182 840 193 869 q 152 785 171 811 q 109 740 133 760 q 58 706 85 719 l 31 744 q 99 799 72 765 q 132 867 125 832 l 125 868 z "},"÷":{"ha":740,"x_min":56,"x_max":685,"o":"m 308 122 q 325 167 308 150 q 365 185 342 185 q 406 167 389 185 q 422 122 422 150 q 406 76 422 93 q 365 60 389 60 q 325 76 342 60 q 308 122 308 93 m 308 583 q 325 628 308 611 q 365 646 342 646 q 406 628 389 646 q 422 583 422 611 q 406 538 422 554 q 365 521 389 521 q 325 538 342 521 q 308 583 308 554 m 685 381 l 685 324 l 56 324 l 56 381 l 685 381 z "},"−":{"ha":657,"x_min":56,"x_max":601,"o":"m 601 465 l 601 408 l 56 408 l 56 465 l 601 465 z "},"×":{"ha":556,"x_min":60,"x_max":496,"o":"m 60 246 l 235 421 l 60 596 l 103 639 l 278 464 l 453 639 l 496 596 l 321 421 l 496 246 l 453 203 l 278 378 l 103 203 l 60 246 z "},"$":{"ha":722,"x_min":96,"x_max":622,"o":"m 335 1000 l 397 1000 l 397 843 q 492 827 446 839 q 579 794 538 815 l 557 739 q 460 775 511 764 q 358 786 408 786 q 221 746 271 786 q 171 649 171 706 q 181 592 171 615 q 211 551 190 569 q 265 519 232 533 q 344 489 297 504 l 443 456 q 578 371 535 424 q 622 243 622 318 q 561 98 622 157 q 376 31 500 39 l 376 -131 l 314 -131 l 314 31 q 200 49 256 33 q 99 88 144 64 l 125 144 q 229 103 174 117 q 342 90 285 90 q 496 132 444 90 q 547 235 547 174 q 542 285 547 261 q 519 329 536 308 q 469 369 501 350 q 383 406 438 389 l 289 436 q 213 467 249 449 q 152 510 178 485 q 111 568 126 535 q 96 644 96 601 q 159 783 96 728 q 335 843 222 838 l 335 1000 z "},"A":{"ha":810,"x_min":36,"x_max":774,"o":"m 371 875 l 443 875 l 774 0 l 696 0 l 600 258 l 208 258 l 113 0 l 36 0 l 371 875 m 231 317 l 576 317 l 467 617 q 457 646 464 625 q 442 693 450 667 q 424 749 433 719 q 408 803 415 778 l 406 803 q 390 750 399 778 q 372 697 381 722 q 355 650 363 671 q 343 617 347 629 l 231 317 z "},"B":{"ha":690,"x_min":111,"x_max":621,"o":"m 319 875 q 522 819 450 875 q 594 656 594 764 q 549 529 594 575 q 436 465 504 483 q 508 441 475 458 q 567 396 542 424 q 606 330 592 368 q 621 244 621 292 q 599 145 621 190 q 535 68 576 100 q 434 18 493 36 q 303 0 375 0 l 111 0 l 111 875 l 319 875 m 183 492 l 292 492 q 378 499 336 492 q 451 526 419 507 q 501 575 482 544 q 519 651 519 606 q 460 778 519 740 q 300 817 400 817 l 183 817 l 183 492 m 183 58 l 289 58 q 387 69 340 58 q 468 103 433 79 q 523 165 503 128 q 543 257 543 203 q 523 342 543 308 q 468 397 503 376 q 388 425 433 417 q 293 433 343 433 l 183 433 l 183 58 z "},"C":{"ha":735,"x_min":49,"x_max":689,"o":"m 474 47 q 586 60 540 47 q 668 92 632 72 l 685 33 q 591 1 643 13 q 464 -11 539 -11 q 302 18 378 -11 q 170 103 226 47 q 81 243 114 160 q 49 436 49 326 q 80 627 49 543 q 166 769 111 711 q 297 856 221 826 q 461 886 372 886 q 593 873 542 886 q 689 836 644 860 l 672 782 q 580 817 626 806 q 476 828 533 828 q 344 806 407 828 q 231 735 281 783 q 153 613 182 688 q 124 435 124 539 q 155 252 124 326 q 236 133 186 178 q 349 67 286 88 q 474 47 411 47 z "},"D":{"ha":836,"x_min":111,"x_max":772,"o":"m 368 875 q 528 849 454 875 q 657 770 603 822 q 742 640 711 718 q 772 457 772 561 q 736 243 772 331 q 638 101 700 156 q 493 24 575 47 q 319 0 411 0 l 111 0 l 111 875 l 368 875 m 183 58 l 307 58 q 449 76 379 58 q 574 138 518 93 q 663 260 629 183 q 697 457 697 338 q 672 608 697 542 q 599 722 646 675 q 487 792 551 768 q 343 817 422 817 l 183 817 l 183 58 z "},"E":{"ha":676,"x_min":111,"x_max":615,"o":"m 111 875 l 611 875 l 611 817 l 183 817 l 183 479 l 575 479 l 575 421 l 183 421 l 183 58 l 615 58 l 615 0 l 111 0 l 111 875 z "},"F":{"ha":646,"x_min":111,"x_max":597,"o":"m 597 875 l 597 817 l 183 817 l 183 467 l 567 467 l 567 410 l 183 410 l 183 0 l 111 0 l 111 875 l 597 875 z "},"G":{"ha":806,"x_min":63,"x_max":725,"o":"m 483 886 q 612 875 556 886 q 718 836 668 864 l 700 778 q 601 815 651 801 q 499 828 551 828 q 362 807 428 828 q 245 740 296 786 q 165 619 194 693 q 135 436 135 544 q 163 271 135 343 q 240 149 192 199 q 356 73 289 99 q 499 47 422 47 q 594 55 553 47 q 653 72 635 63 l 653 383 l 465 383 l 465 440 l 725 440 l 725 32 q 625 1 679 13 q 492 -11 571 -11 q 326 18 404 -11 q 190 103 249 47 q 97 243 131 160 q 63 436 63 326 q 94 631 63 546 q 183 772 126 715 q 316 857 239 828 q 483 886 393 886 z "},"H":{"ha":838,"x_min":111,"x_max":726,"o":"m 111 0 l 111 875 l 183 875 l 183 482 l 654 482 l 654 875 l 726 875 l 726 0 l 654 0 l 654 424 l 183 424 l 183 0 l 111 0 z "},"I":{"ha":294,"x_min":111,"x_max":183,"o":"m 183 875 l 183 0 l 111 0 l 111 875 l 183 875 z "},"J":{"ha":346,"x_min":-21,"x_max":246,"o":"m 246 875 l 246 144 q 236 7 246 58 q 200 -85 226 -44 q 155 -133 181 -114 q 100 -165 129 -153 q 40 -182 71 -176 q -21 -187 8 -187 l -21 -136 q 113 -92 61 -135 q 161 -12 149 -60 q 174 96 174 36 l 174 875 l 246 875 z "},"K":{"ha":711,"x_min":111,"x_max":725,"o":"m 111 0 l 111 875 l 183 875 l 183 424 l 599 875 l 690 875 l 333 492 l 725 0 l 632 0 l 285 442 l 183 332 l 183 0 l 111 0 z "},"L":{"ha":606,"x_min":111,"x_max":585,"o":"m 111 875 l 183 875 l 183 58 l 585 58 l 585 0 l 111 0 l 111 875 z "},"M":{"ha":1085,"x_min":89,"x_max":996,"o":"m 179 875 l 274 875 l 496 232 q 517 165 504 207 q 542 86 531 122 l 544 86 q 567 165 554 122 q 589 231 581 207 l 808 875 l 906 875 l 996 0 l 924 0 l 874 501 q 860 655 867 579 q 849 808 853 731 l 846 808 q 801 660 826 743 q 749 501 776 578 l 574 0 l 508 0 l 332 501 q 236 808 279 651 l 233 808 q 222 661 228 743 q 208 501 215 579 l 158 0 l 89 0 l 179 875 z "},"N":{"ha":865,"x_min":111,"x_max":754,"o":"m 111 875 l 181 875 l 563 300 q 625 207 594 253 q 685 114 656 161 l 688 114 q 685 221 685 167 q 685 328 685 275 l 685 875 l 754 875 l 754 0 l 685 0 l 315 550 q 244 664 278 606 q 179 781 210 722 l 176 781 q 181 522 181 651 l 181 0 l 111 0 l 111 875 z "},"O":{"ha":897,"x_min":64,"x_max":833,"o":"m 451 886 q 600 858 531 886 q 722 774 669 831 q 803 634 774 718 q 833 438 833 550 q 803 244 833 328 q 719 104 772 161 q 596 18 667 47 q 446 -11 525 -11 q 297 17 367 -11 q 176 101 228 44 q 94 241 124 157 q 64 438 64 325 q 94 631 64 547 q 178 771 125 714 q 301 857 231 828 q 451 886 372 886 m 139 438 q 165 265 139 338 q 233 143 190 192 q 333 71 276 94 q 451 47 389 47 q 568 71 513 47 q 666 143 624 94 q 733 265 708 192 q 758 438 758 338 q 733 613 758 539 q 664 735 707 688 q 565 805 621 782 q 446 828 508 828 q 329 804 385 828 q 231 732 274 781 q 164 610 189 683 q 139 438 139 538 z "},"P":{"ha":697,"x_min":111,"x_max":635,"o":"m 111 875 l 351 875 q 465 860 413 875 q 554 813 517 844 q 613 735 592 782 q 635 625 635 689 q 612 515 635 563 q 549 435 589 468 q 456 387 510 403 q 340 371 403 371 l 183 371 l 183 0 l 111 0 l 111 875 m 183 429 l 306 429 q 409 439 363 429 q 488 472 456 449 q 539 532 521 494 q 557 624 557 569 q 537 718 557 681 q 485 777 517 756 q 412 808 453 799 q 328 817 371 817 l 183 817 l 183 429 z "},"Q":{"ha":890,"x_min":68,"x_max":863,"o":"m 444 886 q 600 858 529 886 q 722 774 671 831 q 801 634 774 718 q 829 438 829 550 q 817 311 829 372 q 778 196 806 250 q 707 95 751 142 q 596 11 663 49 l 385 -108 q 465 -119 426 -108 q 544 -142 504 -129 q 625 -165 583 -154 q 715 -175 667 -175 q 780 -165 746 -175 q 836 -139 814 -154 l 863 -187 q 791 -220 831 -210 q 711 -231 751 -231 q 618 -220 661 -231 q 535 -197 575 -210 q 453 -174 494 -185 q 369 -164 413 -164 q 210 -208 282 -164 l 181 -158 l 440 -10 q 283 25 353 -8 q 166 117 214 58 q 93 257 118 175 q 68 438 68 339 q 97 631 68 547 q 177 771 126 714 q 297 857 228 828 q 444 886 365 886 m 143 438 q 168 265 143 338 q 235 143 193 192 q 332 71 276 94 q 449 47 388 47 q 570 73 514 47 q 667 149 626 99 q 731 272 708 199 q 754 438 754 344 q 731 613 754 539 q 665 735 707 688 q 567 805 624 782 q 443 828 510 828 q 328 804 382 828 q 233 732 274 781 q 167 610 192 683 q 143 438 143 538 z "},"R":{"ha":722,"x_min":111,"x_max":697,"o":"m 111 875 l 367 875 q 487 857 435 875 q 574 807 539 839 q 626 731 608 775 q 644 632 644 686 q 628 541 644 582 q 586 469 613 500 q 525 416 560 438 q 453 385 490 394 l 697 0 l 614 0 l 386 371 l 176 371 l 176 0 l 111 0 l 111 875 m 176 429 l 338 429 q 431 442 388 429 q 504 479 474 454 q 552 542 535 504 q 569 629 569 579 q 511 773 569 729 q 339 817 453 817 l 176 817 l 176 429 z "},"S":{"ha":671,"x_min":64,"x_max":606,"o":"m 342 886 q 457 874 401 886 q 568 836 513 863 l 549 779 q 442 817 490 807 q 344 828 394 828 q 197 785 253 828 q 140 668 140 743 q 183 559 140 599 q 313 490 226 519 l 411 457 q 556 365 507 425 q 606 226 606 304 q 529 53 606 117 q 322 -11 453 -11 q 191 1 256 -11 q 64 44 126 14 l 85 104 q 198 62 142 75 q 317 49 254 49 q 470 90 410 49 q 531 218 531 132 q 522 274 531 247 q 494 324 514 300 q 439 368 474 347 q 351 407 404 389 l 257 438 q 182 470 217 450 q 121 517 147 490 q 80 579 94 544 q 65 657 65 614 q 138 824 65 763 q 342 886 210 886 z "},"T":{"ha":696,"x_min":14,"x_max":683,"o":"m 683 875 l 683 817 l 382 817 l 382 0 l 310 0 l 310 817 l 14 817 l 14 875 l 683 875 z "},"U":{"ha":850,"x_min":108,"x_max":742,"o":"m 108 875 l 181 875 l 181 351 q 243 118 181 189 q 433 47 306 47 q 542 68 497 47 q 615 127 586 89 q 656 218 643 165 q 669 335 669 271 l 669 875 l 742 875 l 742 339 q 663 74 742 158 q 433 -11 583 -11 q 196 74 283 -11 q 108 346 108 158 l 108 875 z "},"V":{"ha":746,"x_min":4,"x_max":743,"o":"m 83 875 l 281 346 q 328 216 304 281 q 372 86 351 151 l 375 86 q 419 216 396 151 q 467 346 443 281 l 665 875 l 743 875 l 407 0 l 336 0 l 4 875 l 83 875 z "},"W":{"ha":1114,"x_min":11,"x_max":1103,"o":"m 86 875 l 231 360 q 267 224 250 292 q 299 86 285 156 l 301 86 q 335 224 317 156 q 374 360 354 292 l 524 875 l 592 875 l 744 360 q 783 223 764 290 q 819 86 803 156 l 822 86 q 853 223 838 156 q 889 360 869 290 l 1029 875 l 1103 875 l 857 0 l 783 0 l 614 586 q 585 687 599 636 q 558 789 571 738 l 556 789 q 530 688 543 738 q 501 586 517 638 l 336 0 l 264 0 l 11 875 l 86 875 z "},"X":{"ha":704,"x_min":8,"x_max":697,"o":"m 108 875 l 349 492 l 599 875 l 683 875 l 394 444 l 697 0 l 608 0 l 349 397 l 93 0 l 8 0 l 301 444 l 21 875 l 108 875 z "},"Y":{"ha":692,"x_min":21,"x_max":692,"o":"m 106 875 l 354 440 l 604 875 l 692 875 l 389 367 l 389 0 l 317 0 l 317 367 l 21 875 l 106 875 z "},"Z":{"ha":703,"x_min":36,"x_max":661,"o":"m 654 875 l 654 831 l 125 58 l 661 58 l 661 0 l 36 0 l 36 47 l 563 817 l 57 817 l 57 875 l 654 875 z "},"`":{"ha":257,"x_min":31,"x_max":229,"o":"m 31 1000 l 111 1000 l 229 771 l 171 771 l 31 1000 z "},"a":{"ha":638,"x_min":50,"x_max":546,"o":"m 90 596 q 210 646 156 631 q 328 661 265 661 q 412 649 372 661 q 481 608 451 636 q 528 535 511 581 q 546 425 546 490 l 546 0 l 496 0 l 481 86 l 478 86 q 383 13 438 38 q 263 -11 329 -11 q 178 2 217 -11 q 110 40 139 15 q 66 101 82 65 q 50 179 50 136 q 71 269 50 231 q 129 334 92 308 q 219 372 167 360 q 335 385 271 385 l 474 385 l 474 428 q 432 563 474 522 q 324 603 390 603 q 231 590 283 603 q 118 544 178 578 l 90 596 m 474 328 l 358 326 q 251 313 296 325 q 178 283 207 301 q 138 238 150 264 q 125 183 125 213 q 138 122 125 147 q 171 79 150 96 q 220 55 192 63 q 281 47 249 47 q 332 53 306 47 q 384 73 358 60 q 433 106 410 86 q 474 156 457 126 l 474 328 z "},"b":{"ha":722,"x_min":111,"x_max":664,"o":"m 664 326 q 641 186 664 249 q 579 80 618 124 q 488 13 540 36 q 376 -11 435 -11 q 267 6 313 -11 q 179 61 221 24 l 176 61 l 168 0 l 111 0 l 111 986 l 183 986 l 183 571 q 265 632 213 603 q 383 661 317 661 q 493 640 442 661 q 583 578 544 619 q 642 473 621 536 q 664 326 664 410 m 589 325 q 530 533 589 463 q 376 603 471 603 q 319 594 347 603 q 265 570 290 585 q 219 537 240 556 q 183 499 199 518 l 183 121 q 259 68 211 89 q 360 47 307 47 q 447 65 406 47 q 519 119 488 83 q 570 206 551 154 q 589 325 589 258 z "},"c":{"ha":593,"x_min":57,"x_max":549,"o":"m 385 42 q 465 51 429 42 q 533 76 501 61 l 549 26 q 470 -2 511 7 q 376 -11 429 -11 q 253 10 311 -11 q 152 72 196 31 q 83 177 108 114 q 57 325 57 240 q 81 465 57 403 q 147 572 104 528 q 248 638 190 615 q 375 661 306 661 q 458 655 418 661 q 546 626 499 649 l 529 569 q 458 596 492 589 q 388 603 424 603 q 283 583 331 603 q 203 528 236 564 q 151 442 169 493 q 132 329 132 392 q 154 191 132 246 q 212 103 176 136 q 292 56 247 69 q 385 42 338 42 z "},"d":{"ha":699,"x_min":58,"x_max":604,"o":"m 532 986 l 604 986 l 604 0 l 546 0 l 536 61 l 533 61 q 460 9 504 29 q 344 -11 415 -11 q 241 9 292 -11 q 149 71 190 29 q 83 176 108 113 q 58 325 58 239 q 78 464 58 401 q 138 570 99 526 q 231 638 176 614 q 356 661 286 661 q 532 599 461 661 l 532 986 m 532 525 q 458 582 504 561 q 368 603 413 603 q 280 588 322 603 q 205 542 238 574 q 153 457 172 510 q 133 329 133 404 q 153 198 133 251 q 205 111 172 144 q 279 63 238 78 q 365 47 321 47 q 467 69 425 47 q 532 125 510 92 l 532 525 z "},"e":{"ha":657,"x_min":58,"x_max":599,"o":"m 599 326 l 133 326 l 133 307 q 199 116 133 185 q 379 47 265 47 q 549 78 469 47 l 565 22 q 478 -2 529 7 q 375 -11 428 -11 q 252 8 310 -11 q 151 69 194 28 q 83 173 108 110 q 58 325 58 236 q 79 464 58 401 q 139 570 100 526 q 231 638 178 614 q 349 661 283 661 q 451 641 404 661 q 530 583 497 621 q 581 493 563 546 q 599 376 599 440 l 599 326 m 524 385 q 514 465 524 425 q 483 535 504 504 q 427 584 461 565 q 344 603 393 603 q 203 546 260 603 q 136 385 147 489 l 524 385 z "},"f":{"ha":436,"x_min":21,"x_max":492,"o":"m 335 993 q 417 983 374 993 q 492 954 460 972 l 476 901 q 413 926 446 917 q 353 935 379 935 q 248 897 283 935 q 213 764 213 858 l 213 653 l 436 653 l 436 597 l 213 597 l 213 0 l 140 0 l 140 597 l 21 597 l 21 653 l 140 653 l 140 778 q 192 940 140 886 q 335 993 243 993 z "},"g":{"ha":717,"x_min":39,"x_max":683,"o":"m 72 436 q 91 533 72 490 q 144 603 110 575 q 227 647 179 632 q 332 661 275 661 q 376 658 357 661 q 413 653 394 656 l 683 653 l 683 597 l 603 597 l 482 606 q 551 536 525 582 q 578 438 578 490 q 559 341 578 383 q 506 269 540 299 q 426 226 472 240 q 326 211 381 211 q 288 213 307 211 q 249 218 269 214 q 194 180 215 206 q 174 126 174 154 q 201 74 174 90 q 269 58 228 58 l 439 58 q 603 13 547 58 q 658 -106 658 -33 q 636 -194 658 -154 q 572 -261 614 -233 q 471 -304 531 -289 q 336 -319 411 -319 q 119 -266 200 -319 q 39 -119 39 -212 q 69 -33 39 -68 q 154 22 99 3 q 117 59 133 33 q 101 118 101 85 q 128 194 101 164 q 189 240 154 224 q 146 268 167 250 q 108 311 125 286 q 82 367 92 336 q 72 436 72 399 m 207 0 q 141 -43 167 -14 q 115 -111 115 -72 q 177 -224 115 -186 q 338 -261 239 -261 q 449 -248 403 -261 q 526 -213 496 -235 q 569 -165 556 -192 q 583 -110 583 -137 q 570 -55 583 -76 q 533 -22 557 -33 q 476 -5 508 -10 q 404 0 443 0 l 207 0 m 503 433 q 456 559 503 515 q 332 603 408 603 q 260 592 293 603 q 201 562 226 582 q 162 511 176 542 q 147 439 147 481 q 199 311 147 353 q 326 269 250 269 q 453 310 403 269 q 503 433 503 350 z "},"h":{"ha":725,"x_min":111,"x_max":619,"o":"m 183 0 l 111 0 l 111 986 l 183 986 l 183 565 q 285 634 229 607 q 407 661 340 661 q 501 645 461 661 q 567 601 542 629 q 606 534 593 572 q 619 450 619 496 l 619 0 l 547 0 l 547 428 q 504 563 547 524 q 390 603 461 603 q 286 576 340 603 q 183 503 232 549 l 183 0 z "},"i":{"ha":294,"x_min":94,"x_max":200,"o":"m 111 0 l 111 653 l 183 653 l 183 0 l 111 0 m 149 821 q 110 835 126 821 q 94 876 94 850 q 110 919 94 904 q 147 935 125 935 q 184 920 168 935 q 200 876 200 906 q 185 835 200 849 q 149 821 169 821 z "},"j":{"ha":296,"x_min":-58,"x_max":201,"o":"m 115 653 l 188 653 l 188 101 q 178 -43 188 22 q 143 -160 168 -108 q 77 -251 118 -212 q -26 -319 36 -290 l -58 -268 q 22 -216 -11 -243 q 76 -149 56 -189 q 106 -51 97 -108 q 115 90 115 6 l 115 653 m 150 821 q 112 835 128 821 q 96 876 96 850 q 111 919 96 904 q 149 935 126 935 q 185 920 169 935 q 201 876 201 906 q 186 835 201 849 q 150 821 171 821 z "},"k":{"ha":621,"x_min":111,"x_max":614,"o":"m 183 239 l 183 0 l 111 0 l 111 986 l 183 986 l 183 322 l 511 653 l 601 653 l 326 378 l 614 0 l 528 0 l 279 335 l 183 239 z "},"l":{"ha":294,"x_min":111,"x_max":183,"o":"m 111 0 l 111 986 l 183 986 l 183 0 l 111 0 z "},"m":{"ha":1117,"x_min":106,"x_max":1011,"o":"m 178 0 l 106 0 l 106 653 l 157 653 l 168 563 q 267 635 214 608 q 393 663 319 663 q 507 634 463 663 q 574 556 551 606 q 681 635 622 607 q 810 663 739 663 q 960 606 910 663 q 1011 450 1011 550 l 1011 0 l 939 0 l 939 428 q 903 557 939 511 q 776 603 868 603 q 678 576 729 603 q 593 506 628 550 q 594 478 594 493 q 594 450 594 463 l 594 0 l 522 0 l 522 428 q 489 557 522 511 q 365 603 456 603 q 265 576 314 603 q 178 501 215 549 l 178 0 z "},"n":{"ha":714,"x_min":106,"x_max":608,"o":"m 178 0 l 106 0 l 106 653 l 158 653 l 169 563 q 272 634 217 607 q 396 661 326 661 q 552 606 496 661 q 608 450 608 550 l 608 0 l 536 0 l 536 432 q 528 499 536 468 q 502 553 521 531 q 452 590 483 576 q 375 603 421 603 q 270 576 322 603 q 178 503 218 549 l 178 0 z "},"o":{"ha":699,"x_min":58,"x_max":640,"o":"m 640 333 q 618 187 640 251 q 556 78 596 122 q 464 12 517 35 q 349 -11 411 -11 q 234 10 288 -11 q 142 74 181 32 q 81 177 103 115 q 58 319 58 239 q 81 465 58 401 q 144 573 104 529 q 239 639 185 617 q 354 661 293 661 q 468 640 415 661 q 559 578 521 619 q 619 475 597 536 q 640 333 640 414 m 565 326 q 547 451 565 399 q 499 537 529 503 q 431 587 469 571 q 350 603 392 603 q 269 587 308 603 q 200 537 231 571 q 151 451 169 503 q 133 326 133 399 q 152 197 133 250 q 201 111 171 144 q 272 63 232 78 q 353 47 311 47 q 433 62 394 47 q 501 110 471 76 q 548 197 531 143 q 565 326 565 250 z "},"p":{"ha":717,"x_min":111,"x_max":658,"o":"m 339 -11 q 253 1 293 -11 q 183 33 213 13 l 183 -319 l 111 -319 l 111 661 l 171 661 l 182 578 q 263 635 214 610 q 381 661 311 661 q 491 640 440 661 q 579 579 542 619 q 638 479 617 539 q 658 343 658 419 q 631 185 658 251 q 559 74 604 118 q 456 10 514 31 q 339 -11 399 -11 m 365 603 q 305 594 333 603 q 253 571 276 585 q 211 540 229 557 q 183 508 193 524 l 183 93 q 252 58 214 69 q 329 47 290 47 q 424 63 378 47 q 505 113 469 78 q 562 205 540 149 q 583 343 583 261 q 530 535 583 467 q 365 603 476 603 z "},"q":{"ha":715,"x_min":58,"x_max":604,"o":"m 532 49 q 453 3 497 17 q 353 -11 408 -11 q 228 13 283 -11 q 136 81 174 36 q 78 187 99 125 q 58 326 58 249 q 78 460 58 399 q 135 566 97 521 q 226 636 172 611 q 351 661 281 661 q 458 641 410 661 q 539 585 507 621 l 549 653 l 604 653 l 604 -319 l 532 -319 l 532 49 m 532 524 q 466 578 507 554 q 363 603 425 603 q 274 587 315 603 q 201 538 232 571 q 151 453 169 504 q 133 331 133 401 q 198 117 133 186 q 369 47 263 47 q 467 69 425 47 q 532 119 508 90 l 532 524 z "},"r":{"ha":492,"x_min":103,"x_max":472,"o":"m 103 0 l 103 653 l 150 653 l 167 522 q 247 623 190 585 q 375 661 304 661 q 433 656 408 661 q 472 643 458 650 l 458 579 q 421 592 442 586 q 372 597 400 597 q 297 583 332 597 q 234 540 261 569 q 191 467 207 511 q 175 364 175 424 l 175 0 l 103 0 z "},"s":{"ha":549,"x_min":61,"x_max":488,"o":"m 440 571 q 289 603 371 603 q 176 572 214 603 q 139 492 139 540 q 171 417 139 443 q 283 368 203 392 l 325 356 q 446 286 404 332 q 488 174 488 240 q 472 101 488 135 q 428 42 457 67 q 355 3 399 17 q 254 -11 311 -11 q 144 -1 192 -11 q 61 26 97 10 l 81 83 q 156 56 117 65 q 247 47 194 47 q 369 78 326 47 q 413 165 413 108 q 381 242 413 210 q 271 300 350 275 l 226 314 q 64 485 64 365 q 80 556 64 524 q 124 612 96 589 q 192 648 153 635 q 281 661 232 661 q 372 654 325 661 q 458 628 419 647 l 440 571 z "},"t":{"ha":497,"x_min":28,"x_max":472,"o":"m 438 597 l 218 597 l 218 169 q 247 81 218 104 q 328 58 276 58 q 403 66 368 58 q 461 82 438 74 l 472 28 q 404 8 444 17 q 315 0 364 0 q 189 40 232 0 q 146 160 146 79 l 146 597 l 28 597 l 28 653 l 146 653 l 146 861 l 218 861 l 218 653 l 438 653 l 438 597 z "},"u":{"ha":721,"x_min":106,"x_max":615,"o":"m 543 653 l 615 653 l 615 0 l 564 0 l 553 82 l 550 82 q 461 17 517 46 q 331 -11 406 -11 q 167 44 229 -11 q 106 215 106 99 l 106 653 l 178 653 l 178 231 q 190 141 178 176 q 225 85 203 106 q 278 56 247 64 q 346 47 310 47 q 462 76 408 47 q 543 146 515 106 l 543 653 z "},"v":{"ha":565,"x_min":21,"x_max":546,"o":"m 469 653 l 546 653 l 317 0 l 253 0 l 21 653 l 97 653 l 251 190 l 285 61 l 288 61 l 318 189 l 469 653 z "},"w":{"ha":913,"x_min":15,"x_max":893,"o":"m 15 653 l 88 653 l 201 242 l 242 61 l 244 61 l 290 242 l 417 653 l 493 653 l 615 242 l 663 61 l 665 61 l 711 242 l 824 653 l 893 653 l 708 0 l 625 0 l 500 428 l 454 603 l 407 428 l 279 0 l 203 0 l 15 653 z "},"x":{"ha":567,"x_min":15,"x_max":554,"o":"m 325 331 l 554 0 l 471 0 l 358 164 l 281 285 l 206 168 l 94 0 l 15 0 l 242 331 l 25 653 l 107 653 l 232 463 l 286 372 l 343 471 l 461 653 l 539 653 l 325 331 z "},"y":{"ha":593,"x_min":17,"x_max":579,"o":"m 17 653 l 92 653 l 261 219 l 311 72 l 314 72 l 357 219 l 510 653 l 579 653 l 328 -56 q 232 -225 290 -161 q 92 -321 174 -289 l 63 -268 q 183 -187 133 -239 q 267 -37 233 -136 l 279 0 l 17 653 z "},"z":{"ha":571,"x_min":35,"x_max":538,"o":"m 531 613 l 122 60 l 538 60 l 538 0 l 35 0 l 35 47 l 436 593 l 58 593 l 58 653 l 531 653 l 531 613 z "},"€":{"ha":751,"x_min":7,"x_max":724,"o":"m 508 47 q 621 60 575 47 q 703 92 667 72 l 719 33 q 626 1 678 13 q 499 -11 574 -11 q 358 10 424 -11 q 242 74 293 32 q 155 179 190 117 q 106 325 119 242 l 7 325 l 7 381 l 100 381 q 97 413 97 400 q 97 440 97 425 l 97 479 l 7 479 l 7 535 l 104 535 q 150 685 117 619 q 234 794 183 750 q 351 863 285 839 q 496 886 418 886 q 628 873 576 886 q 724 836 679 860 l 707 782 q 615 817 661 806 q 511 828 568 828 q 397 811 451 828 q 298 758 342 794 q 223 667 254 722 q 179 535 192 611 l 619 535 l 619 479 l 172 479 l 172 442 q 173 409 172 426 q 175 381 174 392 l 619 381 l 619 325 l 182 325 q 228 196 196 249 q 306 110 261 143 q 402 62 350 76 q 508 47 454 47 z "},"‚":{"ha":264,"x_min":32,"x_max":194,"o":"m 126 -11 q 87 10 103 -7 q 71 56 71 26 q 87 97 71 81 q 128 114 103 114 q 172 95 150 114 q 194 22 194 76 q 183 -39 194 -10 q 153 -94 172 -68 q 110 -140 135 -119 q 60 -174 86 -160 l 32 -135 q 100 -81 74 -114 q 133 -12 126 -47 l 126 -11 z "},"ƒ":{"ha":617,"x_min":-29,"x_max":651,"o":"m 250 76 q 212 -62 238 -7 q 151 -152 186 -117 q 74 -206 115 -187 q -8 -235 33 -225 l -29 -181 q 45 -153 11 -171 q 106 -106 79 -135 q 152 -35 133 -76 q 179 64 171 7 l 257 599 l 128 599 l 128 653 l 263 653 l 278 763 q 301 870 285 819 q 346 959 318 921 q 416 1019 374 997 q 518 1042 458 1042 q 651 1011 588 1042 l 632 958 q 583 976 611 969 q 525 983 556 983 q 400 928 443 983 q 342 749 357 872 l 329 653 l 544 653 l 544 597 l 324 597 l 250 76 z "},"„":{"ha":500,"x_min":32,"x_max":431,"o":"m 126 -11 q 87 10 103 -7 q 71 56 71 26 q 87 97 71 81 q 128 114 103 114 q 172 95 150 114 q 194 22 194 76 q 183 -39 194 -10 q 153 -94 172 -68 q 110 -140 135 -119 q 60 -174 86 -160 l 32 -135 q 100 -81 74 -114 q 133 -12 126 -47 l 126 -11 m 363 -11 q 323 10 339 -7 q 307 56 307 26 q 323 97 307 81 q 364 114 339 114 q 408 95 386 114 q 431 22 431 76 q 419 -39 431 -10 q 390 -94 408 -68 q 347 -140 371 -119 q 296 -174 322 -160 l 268 -135 q 337 -81 311 -114 q 369 -12 363 -47 l 363 -11 z "},"†":{"ha":488,"x_min":14,"x_max":474,"o":"m 474 653 l 474 597 l 278 597 l 278 -56 l 211 -56 l 211 597 l 14 597 l 14 653 l 211 653 l 211 875 l 278 875 l 278 653 l 474 653 z "},"‡":{"ha":488,"x_min":14,"x_max":474,"o":"m 474 269 l 474 214 l 278 214 l 278 -56 l 211 -56 l 211 214 l 14 214 l 14 269 l 211 269 l 211 597 l 14 597 l 14 653 l 211 653 l 211 875 l 278 875 l 278 653 l 474 653 l 474 597 l 278 597 l 278 269 l 474 269 z "},"ˆ":{"ha":493,"x_min":51,"x_max":447,"o":"m 447 771 l 369 771 l 253 933 l 131 771 l 51 771 l 225 1000 l 279 1000 l 447 771 z "},"‰":{"ha":1693,"x_min":42,"x_max":1651,"o":"m 236 0 l 843 1042 l 906 1042 l 299 0 l 236 0 m 1082 249 q 1068 149 1082 196 q 1027 66 1054 101 q 958 10 1000 31 q 860 -11 915 -11 q 765 10 806 -11 q 697 66 724 31 q 656 149 669 101 q 642 249 642 196 q 656 348 642 301 q 699 430 671 394 q 768 486 726 465 q 864 507 810 507 q 959 486 918 507 q 1027 430 1000 465 q 1068 348 1054 394 q 1082 249 1082 301 m 1018 249 q 1010 330 1018 292 q 983 396 1001 368 q 935 440 964 424 q 864 457 906 456 q 796 443 825 458 q 747 399 767 428 q 716 333 726 371 q 706 249 706 294 q 744 98 706 157 q 860 39 782 39 q 978 94 938 39 q 1018 249 1018 149 m 482 783 q 468 683 482 731 q 427 601 454 636 q 358 544 400 565 q 260 524 315 524 q 165 544 206 524 q 97 601 124 565 q 56 683 69 636 q 42 783 42 731 q 56 883 42 836 q 99 965 71 929 q 168 1021 126 1000 q 264 1042 210 1042 q 359 1021 318 1042 q 427 965 400 1000 q 468 883 454 929 q 482 783 482 836 m 418 783 q 410 865 418 826 q 383 931 401 903 q 335 974 364 958 q 264 992 306 990 q 196 978 225 993 q 147 934 167 963 q 116 867 126 906 q 106 783 106 829 q 144 633 106 692 q 260 574 182 574 q 378 628 338 574 q 418 783 418 683 m 1651 249 q 1638 149 1651 196 q 1597 66 1624 101 q 1527 10 1569 31 q 1429 -11 1485 -11 q 1334 10 1375 -11 q 1266 66 1293 31 q 1225 149 1239 101 q 1211 249 1211 196 q 1226 348 1211 301 q 1268 430 1240 394 q 1338 486 1296 465 q 1433 507 1379 507 q 1528 486 1488 507 q 1597 430 1569 465 q 1638 348 1624 394 q 1651 249 1651 301 m 1588 249 q 1579 330 1588 292 q 1552 396 1571 368 q 1504 440 1533 424 q 1433 457 1475 456 q 1365 443 1394 458 q 1316 399 1336 428 q 1285 333 1296 371 q 1275 249 1275 294 q 1313 98 1275 157 q 1429 39 1351 39 q 1547 94 1507 39 q 1588 249 1588 149 z "},"Š":{"ha":671,"x_min":64,"x_max":606,"o":"m 342 886 q 457 874 401 886 q 568 836 513 863 l 549 779 q 442 817 490 807 q 344 828 394 828 q 197 785 253 828 q 140 668 140 743 q 183 559 140 599 q 313 490 226 519 l 411 457 q 556 365 507 425 q 606 226 606 304 q 529 53 606 117 q 322 -11 453 -11 q 191 1 256 -11 q 64 44 126 14 l 85 104 q 198 62 142 75 q 317 49 254 49 q 470 90 410 49 q 531 218 531 132 q 522 274 531 247 q 494 324 514 300 q 439 368 474 347 q 351 407 404 389 l 257 438 q 182 470 217 450 q 121 517 147 490 q 80 579 94 544 q 65 657 65 614 q 138 824 65 763 q 342 886 210 886 m 140 1174 l 218 1174 l 343 1036 l 468 1174 l 551 1174 l 378 988 l 310 988 l 140 1174 z "},"‹":{"ha":357,"x_min":42,"x_max":325,"o":"m 247 106 l 42 328 l 247 551 l 325 551 l 136 328 l 325 106 l 247 106 z "},"Œ":{"ha":1140,"x_min":64,"x_max":1079,"o":"m 460 -11 q 306 17 378 -11 q 180 101 233 44 q 95 241 126 157 q 64 438 64 325 q 96 631 64 547 q 183 771 128 714 q 310 857 238 828 q 465 886 383 886 q 521 884 493 886 q 575 875 549 882 l 1075 875 l 1075 817 l 647 817 l 647 479 l 1039 479 l 1039 421 l 647 421 l 647 58 l 1079 58 l 1079 0 l 576 0 q 521 -9 550 -7 q 460 -11 492 -11 m 460 828 q 338 804 396 828 q 235 732 279 781 q 165 610 192 683 q 139 438 139 538 q 166 265 139 338 q 238 143 193 192 q 341 71 282 94 q 465 47 400 47 q 522 51 494 47 q 575 64 549 54 l 575 810 q 519 824 547 821 q 460 828 490 828 z "},"Ž":{"ha":703,"x_min":36,"x_max":661,"o":"m 654 875 l 654 831 l 125 58 l 661 58 l 661 0 l 36 0 l 36 47 l 563 817 l 57 817 l 57 875 l 654 875 m 144 1174 l 222 1174 l 347 1036 l 472 1174 l 556 1174 l 382 988 l 314 988 l 144 1174 z "},"“":{"ha":442,"x_min":32,"x_max":411,"o":"m 100 865 q 140 844 124 861 q 156 799 156 828 q 140 757 156 774 q 99 740 124 740 q 54 759 76 740 q 32 832 32 778 q 43 892 32 863 q 73 948 54 922 q 116 994 92 974 q 167 1028 140 1014 l 194 989 q 126 935 153 968 q 93 867 100 901 l 100 865 m 317 865 q 356 844 340 861 q 372 799 372 828 q 356 757 372 774 q 315 740 340 740 q 271 759 293 740 q 249 832 249 778 q 260 892 249 863 q 290 948 271 922 q 333 994 308 974 q 383 1028 357 1014 l 411 989 q 343 935 369 968 q 310 867 317 901 l 317 865 z "},"”":{"ha":442,"x_min":31,"x_max":410,"o":"m 125 869 q 85 890 101 874 q 69 936 69 907 q 85 978 69 961 q 126 994 101 994 q 171 976 149 994 q 193 903 193 957 q 182 842 193 871 q 152 787 171 813 q 109 741 133 761 q 58 707 85 721 l 31 746 q 99 800 72 767 q 132 868 125 833 l 125 869 m 342 869 q 302 890 318 874 q 286 936 286 907 q 302 978 286 961 q 343 994 318 994 q 388 976 365 994 q 410 903 410 957 q 399 842 410 871 q 369 787 388 813 q 326 741 350 761 q 275 707 301 721 l 247 746 q 315 800 289 767 q 349 868 342 833 l 342 869 z "},"•":{"ha":442,"x_min":83,"x_max":358,"o":"m 83 369 q 124 470 83 432 q 221 508 164 508 q 318 470 278 508 q 358 369 358 432 q 318 269 358 307 q 221 231 278 231 q 124 269 164 231 q 83 369 83 307 z "},"˜":{"ha":554,"x_min":47,"x_max":449,"o":"m 47 835 q 72 938 47 901 q 158 975 96 975 q 210 963 188 975 q 254 935 233 950 q 294 908 275 921 q 336 896 314 896 q 381 913 367 896 q 396 979 396 931 l 449 979 q 425 874 449 908 q 343 840 401 840 q 286 853 311 840 q 240 880 261 865 q 199 907 218 894 q 160 919 179 919 q 117 901 132 919 q 101 835 101 883 l 47 835 z "},"™":{"ha":1018,"x_min":56,"x_max":990,"o":"m 431 875 l 431 825 l 272 825 l 272 381 l 211 381 l 211 825 l 56 825 l 56 875 l 431 875 m 525 875 l 593 875 l 704 538 q 717 494 711 518 q 731 443 724 469 l 733 443 q 747 493 740 469 q 760 536 753 517 l 869 875 l 939 875 l 990 381 l 932 381 l 904 667 q 898 736 901 700 q 894 806 894 772 l 893 806 q 885 771 890 790 q 875 733 881 751 q 864 697 869 714 q 854 667 858 679 l 757 381 l 706 381 l 607 667 q 585 737 594 704 q 568 806 575 769 l 567 806 q 564 737 567 771 q 558 667 561 703 l 531 381 l 474 381 l 525 875 z "},"š":{"ha":550,"x_min":61,"x_max":489,"o":"m 440 571 q 289 603 371 603 q 176 572 214 603 q 139 492 139 540 q 171 417 139 443 q 283 368 203 392 l 325 356 q 446 286 404 332 q 488 174 488 240 q 472 101 488 135 q 428 42 457 67 q 355 3 399 17 q 254 -11 311 -11 q 144 -1 192 -11 q 61 26 97 10 l 81 83 q 156 56 117 65 q 247 47 194 47 q 369 78 326 47 q 413 165 413 108 q 381 242 413 210 q 271 300 350 275 l 226 314 q 64 485 64 365 q 80 556 64 524 q 124 612 96 589 q 192 648 153 635 q 281 661 232 661 q 372 654 325 661 q 458 628 419 647 l 440 571 m 78 958 l 158 958 l 281 821 l 406 958 l 489 958 l 315 772 l 247 772 l 78 958 z "},"›":{"ha":357,"x_min":32,"x_max":315,"o":"m 32 106 l 221 329 l 32 551 l 110 551 l 315 329 l 110 106 l 32 106 z "},"œ":{"ha":1176,"x_min":53,"x_max":1100,"o":"m 1100 326 l 635 326 l 635 307 q 701 116 635 185 q 881 47 767 47 q 1050 78 971 47 l 1067 22 q 980 -2 1031 7 q 876 -11 929 -11 q 706 31 782 -11 q 594 160 629 72 q 343 -11 525 -11 q 228 10 282 -11 q 136 74 175 32 q 75 177 97 115 q 53 319 53 239 q 76 465 53 401 q 139 573 99 529 q 233 639 179 617 q 349 661 288 661 q 502 617 435 661 q 601 492 569 574 q 698 617 633 572 q 850 661 763 661 q 952 641 906 661 q 1031 583 999 621 q 1082 493 1064 546 q 1100 376 1100 440 l 1100 326 m 560 326 q 542 451 560 399 q 494 537 524 503 q 425 587 464 571 q 344 603 386 603 q 264 587 303 603 q 194 537 225 571 q 146 451 164 503 q 128 326 128 399 q 147 197 128 250 q 196 111 165 144 q 266 63 226 78 q 347 47 306 47 q 427 62 389 47 q 495 110 465 76 q 542 197 525 143 q 560 326 560 250 m 1025 385 q 1015 465 1025 425 q 984 535 1006 504 q 928 584 963 565 q 846 603 894 603 q 705 546 761 603 q 638 385 649 489 l 1025 385 z "},"ž":{"ha":571,"x_min":35,"x_max":538,"o":"m 531 613 l 122 60 l 538 60 l 538 0 l 35 0 l 35 47 l 436 593 l 58 593 l 58 653 l 531 653 l 531 613 m 114 958 l 192 958 l 306 822 l 419 958 l 499 958 l 339 772 l 271 772 l 114 958 z "},"Ÿ":{"ha":671,"x_min":0,"x_max":671,"o":"m 85 875 l 333 440 l 583 875 l 671 875 l 368 367 l 368 0 l 296 0 l 296 367 l 0 875 l 85 875 m 161 1064 q 177 1108 161 1092 q 217 1125 193 1125 q 256 1108 240 1125 q 272 1064 272 1092 q 256 1019 272 1035 q 217 1003 240 1003 q 177 1019 193 1003 q 161 1064 161 1035 m 397 1064 q 413 1108 397 1092 q 453 1125 429 1125 q 492 1108 476 1125 q 508 1064 508 1092 q 492 1019 508 1035 q 453 1003 476 1003 q 413 1019 429 1003 q 397 1064 397 1035 z "},"¡":{"ha":288,"x_min":89,"x_max":200,"o":"m 89 568 q 105 613 89 597 q 144 629 121 629 q 184 613 168 629 q 200 568 200 597 q 184 524 200 540 q 144 507 168 507 q 105 524 121 507 q 89 568 89 540 m 104 -368 l 117 356 l 172 356 l 179 -368 l 104 -368 z "},"¢":{"ha":694,"x_min":89,"x_max":594,"o":"m 425 149 q 508 158 469 149 q 579 183 547 168 l 594 132 q 525 108 563 117 q 447 96 488 100 l 447 -28 l 381 -28 l 381 97 q 265 125 318 101 q 172 190 211 149 q 111 290 133 231 q 89 425 89 349 q 110 554 89 496 q 169 655 131 613 q 261 722 207 697 q 381 753 315 747 l 381 888 l 447 888 l 447 753 q 519 743 485 750 q 592 719 554 736 l 576 667 q 501 691 544 682 q 417 700 458 700 q 230 631 296 700 q 164 429 164 563 q 188 292 164 346 q 249 206 211 238 q 333 161 286 174 q 425 149 379 149 z "},"£":{"ha":701,"x_min":85,"x_max":639,"o":"m 104 0 l 90 42 q 188 154 154 86 q 221 319 221 222 q 219 363 221 340 q 214 410 217 386 l 85 410 l 85 469 l 200 469 q 190 535 194 499 q 185 608 185 572 q 206 728 185 676 q 264 815 226 781 q 352 868 301 850 q 464 886 403 886 q 560 876 515 886 q 628 853 606 865 l 611 799 q 547 820 585 811 q 465 829 508 829 q 308 772 358 829 q 257 607 257 714 q 262 538 257 575 q 274 469 267 501 l 543 469 l 543 410 l 285 410 q 289 321 289 361 q 267 167 289 229 q 203 64 246 106 l 204 61 l 639 61 l 639 0 l 104 0 z "},"¤":{"ha":713,"x_min":49,"x_max":664,"o":"m 85 117 l 49 153 l 167 271 q 122 426 122 335 q 165 582 122 519 l 50 697 l 86 733 l 199 621 q 358 679 264 679 q 442 663 403 679 q 513 618 482 647 l 628 733 l 664 697 l 546 579 q 578 510 567 549 q 590 426 590 471 q 578 338 590 376 q 547 268 567 299 l 663 153 l 626 117 l 514 229 q 441 186 482 200 q 356 172 400 172 q 269 188 308 172 q 200 232 231 204 l 85 117 m 525 426 q 477 576 525 522 q 357 629 429 629 q 236 578 285 629 q 188 426 188 528 q 233 276 188 331 q 356 222 279 222 q 476 274 426 222 q 525 426 525 326 z "},"¥":{"ha":706,"x_min":21,"x_max":692,"o":"m 656 306 l 656 247 l 389 247 l 389 0 l 317 0 l 317 247 l 44 247 l 44 306 l 317 306 l 317 367 l 281 428 l 44 428 l 44 486 l 247 486 l 21 875 l 106 875 l 354 440 l 604 875 l 692 875 l 460 486 l 656 486 l 656 428 l 425 428 l 389 367 l 389 306 l 656 306 z "},"¦":{"ha":285,"x_min":111,"x_max":174,"o":"m 111 528 l 111 1042 l 174 1042 l 174 528 l 111 528 m 111 -250 l 111 261 l 174 261 l 174 -250 l 111 -250 z "},"§":{"ha":679,"x_min":76,"x_max":603,"o":"m 104 3 q 192 -29 147 -18 q 292 -40 238 -40 q 429 -3 383 -40 q 475 93 475 35 q 440 171 475 143 q 321 231 406 199 l 236 263 q 112 338 147 296 q 76 444 76 381 q 105 533 76 493 q 174 594 133 574 q 144 640 156 611 q 132 700 132 668 q 191 835 132 783 q 363 886 250 886 q 461 877 413 886 q 554 847 510 868 l 536 790 q 445 819 486 811 q 364 828 404 828 q 247 796 289 828 q 204 706 204 764 q 235 628 204 657 q 331 576 267 600 l 415 544 q 555 465 507 510 q 603 356 603 419 q 577 261 603 301 q 515 193 551 221 q 539 149 531 175 q 547 97 547 124 q 531 19 547 56 q 483 -43 514 -17 q 406 -85 451 -69 q 306 -100 361 -100 q 183 -88 235 -100 q 86 -56 131 -76 l 104 3 m 532 349 q 496 431 532 403 q 410 478 460 460 l 325 510 q 269 533 296 521 q 218 560 242 544 q 168 516 189 544 q 147 446 147 488 q 182 363 147 392 q 269 315 217 335 l 354 285 q 419 258 394 269 q 467 232 444 246 q 512 281 492 247 q 532 349 532 314 z "},"¨":{"ha":442,"x_min":47,"x_max":394,"o":"m 47 865 q 63 910 47 893 q 103 926 79 926 q 142 910 126 926 q 158 865 158 893 q 142 820 158 836 q 103 804 126 804 q 63 820 79 804 q 47 865 47 836 m 283 865 q 299 910 283 893 q 339 926 315 926 q 378 910 363 926 q 394 865 394 893 q 378 820 394 836 q 339 804 363 804 q 299 820 315 804 q 283 865 283 836 z "},"©":{"ha":981,"x_min":50,"x_max":931,"o":"m 526 242 q 633 265 586 242 l 649 217 q 518 190 592 190 q 424 206 468 190 q 346 251 379 221 q 293 326 313 281 q 274 433 274 372 q 292 534 274 489 q 342 611 310 579 q 419 660 374 643 q 518 676 464 676 q 578 672 549 676 q 646 651 607 667 l 631 603 q 578 622 606 617 q 525 626 550 626 q 387 576 438 626 q 336 436 336 525 q 353 344 336 382 q 396 284 369 307 q 456 251 422 261 q 526 242 490 242 m 493 886 q 661 858 582 886 q 800 774 740 831 q 895 634 860 718 q 931 438 931 550 q 894 244 931 328 q 797 104 858 161 q 656 18 736 47 q 488 -11 576 -11 q 319 17 399 -11 q 181 101 240 44 q 85 241 121 157 q 50 438 50 325 q 86 631 50 547 q 183 771 122 714 q 324 857 244 828 q 493 886 404 886 m 493 844 q 344 818 415 844 q 218 740 272 792 q 132 613 164 689 q 100 438 100 538 q 131 259 100 335 q 215 132 163 183 q 339 56 268 81 q 488 31 410 31 q 637 57 565 31 q 763 135 708 83 q 849 262 817 186 q 881 438 881 338 q 849 615 881 539 q 765 743 818 692 q 641 819 711 794 q 493 844 571 844 z "},"ª":{"ha":432,"x_min":46,"x_max":376,"o":"m 79 772 q 159 806 124 796 q 233 817 194 817 q 288 810 263 817 q 334 786 314 803 q 365 742 354 769 q 376 675 376 715 l 376 381 l 338 381 l 328 432 l 326 432 q 189 372 271 372 q 86 406 126 372 q 46 497 46 439 q 99 599 46 565 q 240 633 153 633 l 324 633 l 324 679 q 299 750 324 728 q 233 772 274 772 q 174 765 210 772 q 99 735 139 757 l 79 772 m 324 593 l 250 593 q 134 566 167 593 q 101 500 101 539 q 110 460 101 476 q 133 435 119 444 q 165 422 147 425 q 200 418 182 418 q 266 431 233 418 q 324 476 299 444 l 324 593 z "},"«":{"ha":600,"x_min":42,"x_max":568,"o":"m 490 106 l 285 328 l 490 551 l 568 551 l 379 328 l 568 106 l 490 106 m 247 106 l 42 328 l 247 551 l 325 551 l 136 328 l 325 106 l 247 106 z "},"®":{"ha":739,"x_min":56,"x_max":683,"o":"m 257 819 l 379 819 q 465 792 435 819 q 496 721 496 765 q 474 660 496 685 q 425 626 453 636 l 522 469 l 468 469 l 382 617 l 299 617 l 299 469 l 257 469 l 257 819 m 299 649 l 364 649 q 428 667 406 649 q 451 721 451 686 q 426 772 451 758 q 365 786 400 786 l 299 786 l 299 649 m 683 650 q 660 512 683 571 q 596 413 638 453 q 497 352 554 372 q 371 332 439 332 q 244 352 301 332 q 144 410 186 372 q 79 506 103 449 q 56 639 56 564 q 78 776 56 717 q 143 874 101 835 q 242 933 185 914 q 368 953 299 953 q 494 933 436 953 q 594 876 553 914 q 660 781 636 838 q 683 650 683 725 m 642 644 q 619 767 642 715 q 559 853 597 819 q 472 903 521 888 q 368 919 422 919 q 265 903 314 919 q 178 854 215 888 q 119 769 142 821 q 97 644 97 717 q 117 519 97 572 q 174 432 138 467 q 261 381 211 397 q 371 364 311 364 q 474 381 425 364 q 560 431 524 397 q 619 518 597 465 q 642 644 642 571 z "},"°":{"ha":529,"x_min":50,"x_max":485,"o":"m 485 649 q 426 473 485 538 q 265 408 367 408 q 178 425 218 408 q 110 473 139 442 q 66 549 82 504 q 50 649 50 593 q 66 747 50 703 q 111 822 82 790 q 181 869 140 853 q 269 886 221 886 q 355 869 315 886 q 424 822 394 853 q 469 747 453 790 q 485 649 485 703 m 419 649 q 383 786 419 736 q 269 836 346 836 q 155 788 194 836 q 115 649 115 740 q 153 509 115 560 q 265 458 192 458 q 326 469 297 458 q 375 502 354 479 q 408 561 396 525 q 419 649 419 597 z "},"±":{"ha":651,"x_min":49,"x_max":603,"o":"m 561 57 l 561 0 l 90 0 l 90 57 l 561 57 m 603 501 l 603 444 l 354 444 l 354 196 l 297 196 l 297 444 l 49 444 l 49 501 l 297 501 l 297 750 l 354 750 l 354 501 l 603 501 z "},"´":{"ha":310,"x_min":42,"x_max":264,"o":"m 100 771 l 42 771 l 176 1000 l 264 1000 l 100 771 z "},"¶":{"ha":731,"x_min":76,"x_max":633,"o":"m 567 -250 l 567 828 l 426 828 l 426 -250 l 358 -250 l 358 379 q 149 449 221 379 q 76 638 76 518 q 97 747 76 700 q 153 824 117 793 q 242 871 190 856 q 356 886 293 886 l 633 886 l 633 -250 l 567 -250 z "},"¸":{"ha":397,"x_min":79,"x_max":336,"o":"m 178 0 l 235 0 l 200 -67 q 301 -97 265 -69 q 336 -164 336 -124 q 324 -214 336 -193 q 290 -249 311 -235 q 240 -271 268 -264 q 182 -278 213 -278 q 123 -273 150 -278 q 79 -261 96 -268 l 93 -214 q 172 -228 132 -228 q 242 -214 217 -228 q 267 -167 267 -200 q 235 -124 267 -139 q 126 -108 204 -108 l 178 0 z "},"º":{"ha":1164,"x_min":0,"x_max":0,"o":""},"»":{"ha":600,"x_min":32,"x_max":558,"o":"m 275 106 l 464 329 l 275 551 l 353 551 l 558 329 l 353 106 l 275 106 m 32 106 l 221 329 l 32 551 l 110 551 l 315 329 l 110 106 l 32 106 z "},"¿":{"ha":611,"x_min":88,"x_max":538,"o":"m 340 -343 q 154 -282 221 -343 q 88 -119 88 -221 q 132 19 88 -44 q 251 150 176 83 q 308 205 286 181 q 342 251 329 229 q 359 296 354 274 q 364 343 364 318 q 360 389 364 367 q 350 428 357 411 l 411 439 q 424 396 418 425 q 429 343 429 367 q 400 233 429 289 q 292 104 371 176 q 192 -4 226 46 q 157 -118 157 -54 q 167 -181 157 -150 q 201 -234 178 -211 q 260 -271 224 -257 q 349 -285 296 -285 q 428 -275 388 -285 q 510 -237 469 -265 l 538 -286 q 443 -329 497 -315 q 340 -343 389 -343 m 421 600 q 404 556 421 572 q 364 540 388 540 q 324 556 340 540 q 308 600 308 572 q 324 645 308 629 q 364 661 340 661 q 404 645 388 661 q 421 600 421 629 z "},"À":{"ha":810,"x_min":36,"x_max":774,"o":"m 238 1158 l 325 1158 l 450 986 l 392 986 l 238 1158 m 371 875 l 443 875 l 774 0 l 696 0 l 600 258 l 208 258 l 113 0 l 36 0 l 371 875 m 231 317 l 576 317 l 467 617 q 457 646 464 625 q 442 693 450 667 q 424 749 433 719 q 408 803 415 778 l 406 803 q 390 750 399 778 q 372 697 381 722 q 355 650 363 671 q 343 617 347 629 l 231 317 z "},"Á":{"ha":810,"x_min":36,"x_max":774,"o":"m 432 986 l 374 986 l 499 1158 l 586 1158 l 432 986 m 371 875 l 443 875 l 774 0 l 696 0 l 600 258 l 208 258 l 113 0 l 36 0 l 371 875 m 231 317 l 576 317 l 467 617 q 457 646 464 625 q 442 693 450 667 q 424 749 433 719 q 408 803 415 778 l 406 803 q 390 750 399 778 q 372 697 381 722 q 355 650 363 671 q 343 617 347 629 l 231 317 z "},"Â":{"ha":810,"x_min":36,"x_max":774,"o":"m 375 1172 l 443 1172 l 617 986 l 533 986 l 408 1124 l 283 986 l 206 986 l 375 1172 m 371 875 l 443 875 l 774 0 l 696 0 l 600 258 l 208 258 l 113 0 l 36 0 l 371 875 m 231 317 l 576 317 l 467 617 q 457 646 464 625 q 442 693 450 667 q 424 749 433 719 q 408 803 415 778 l 406 803 q 390 750 399 778 q 372 697 381 722 q 355 650 363 671 q 343 617 347 629 l 231 317 z "},"Ã":{"ha":810,"x_min":36,"x_max":774,"o":"m 206 993 q 234 1092 206 1051 q 326 1132 263 1132 q 379 1120 357 1132 q 421 1094 401 1108 q 460 1069 440 1081 q 503 1057 479 1057 q 553 1079 539 1057 q 571 1136 568 1101 l 626 1136 q 619 1085 626 1110 q 597 1042 611 1061 q 560 1013 582 1024 q 510 1001 539 1001 q 453 1013 478 1001 q 407 1039 428 1025 q 367 1065 386 1053 q 331 1076 349 1076 q 279 1051 294 1076 q 261 993 264 1026 l 206 993 m 371 875 l 443 875 l 774 0 l 696 0 l 600 258 l 208 258 l 113 0 l 36 0 l 371 875 m 231 317 l 576 317 l 467 617 q 457 646 464 625 q 442 693 450 667 q 424 749 433 719 q 408 803 415 778 l 406 803 q 390 750 399 778 q 372 697 381 722 q 355 650 363 671 q 343 617 347 629 l 231 317 z "},"Ä":{"ha":810,"x_min":36,"x_max":774,"o":"m 235 1064 q 251 1108 235 1092 q 290 1125 267 1125 q 330 1108 314 1125 q 346 1064 346 1092 q 330 1019 346 1035 q 290 1003 314 1003 q 251 1019 267 1003 q 235 1064 235 1035 m 471 1064 q 487 1108 471 1092 q 526 1125 503 1125 q 566 1108 550 1125 q 582 1064 582 1092 q 566 1019 582 1035 q 526 1003 550 1003 q 487 1019 503 1003 q 471 1064 471 1035 m 371 875 l 443 875 l 774 0 l 696 0 l 600 258 l 208 258 l 113 0 l 36 0 l 371 875 m 231 317 l 576 317 l 467 617 q 457 646 464 625 q 442 693 450 667 q 424 749 433 719 q 408 803 415 778 l 406 803 q 390 750 399 778 q 372 697 381 722 q 355 650 363 671 q 343 617 347 629 l 231 317 z "},"Å":{"ha":810,"x_min":36,"x_max":774,"o":"m 279 1056 q 317 1142 279 1114 q 408 1171 356 1171 q 499 1142 461 1171 q 538 1056 538 1114 q 499 969 538 997 q 408 940 460 940 q 317 970 356 940 q 279 1056 279 1000 m 335 1056 q 354 999 335 1019 q 408 979 374 979 q 463 999 443 979 q 482 1056 482 1019 q 462 1112 482 1092 q 408 1132 442 1132 q 355 1112 375 1132 q 335 1056 335 1092 m 371 875 l 443 875 l 774 0 l 696 0 l 600 258 l 208 258 l 113 0 l 36 0 l 371 875 m 231 317 l 576 317 l 467 617 q 457 646 464 625 q 442 693 450 667 q 424 749 433 719 q 408 803 415 778 l 406 803 q 390 750 399 778 q 372 697 381 722 q 355 650 363 671 q 343 617 347 629 l 231 317 z "},"Æ":{"ha":1065,"x_min":22,"x_max":1004,"o":"m 22 0 l 472 875 l 1000 875 l 1000 817 l 586 817 l 586 479 l 964 479 l 964 421 l 586 421 l 586 58 l 1004 58 l 1004 0 l 514 0 l 514 268 l 233 268 l 99 0 l 22 0 m 514 824 l 263 326 l 514 326 l 514 824 z "},"Ç":{"ha":735,"x_min":49,"x_max":689,"o":"m 474 47 q 586 60 540 47 q 668 92 632 72 l 685 33 q 596 2 644 14 q 478 -11 547 -10 l 454 -65 q 522 -74 493 -65 q 568 -99 550 -83 q 595 -133 586 -114 q 604 -174 604 -153 q 556 -265 604 -232 q 436 -297 508 -297 q 377 -292 404 -297 q 333 -281 350 -287 l 346 -236 q 385 -245 364 -242 q 426 -249 407 -249 q 508 -228 482 -249 q 535 -176 535 -208 q 529 -150 535 -162 q 507 -128 524 -137 q 460 -114 490 -119 q 381 -108 429 -108 l 426 -10 q 278 27 347 -4 q 158 115 208 58 q 78 251 107 171 q 49 436 49 332 q 80 627 49 543 q 166 769 111 711 q 297 856 221 826 q 461 886 372 886 q 593 873 542 886 q 689 836 644 860 l 672 782 q 580 817 626 806 q 476 828 533 828 q 344 806 407 828 q 231 735 281 783 q 153 613 182 688 q 124 435 124 539 q 155 252 124 326 q 236 133 186 178 q 349 67 286 88 q 474 47 411 47 z "},"È":{"ha":676,"x_min":111,"x_max":615,"o":"m 111 875 l 611 875 l 611 817 l 183 817 l 183 479 l 575 479 l 575 421 l 183 421 l 183 58 l 615 58 l 615 0 l 111 0 l 111 875 m 265 1158 l 353 1158 l 478 986 l 419 986 l 265 1158 z "},"É":{"ha":676,"x_min":111,"x_max":615,"o":"m 111 875 l 611 875 l 611 817 l 183 817 l 183 479 l 575 479 l 575 421 l 183 421 l 183 58 l 615 58 l 615 0 l 111 0 l 111 875 m 335 986 l 276 986 l 401 1158 l 489 1158 l 335 986 z "},"Ê":{"ha":676,"x_min":111,"x_max":615,"o":"m 111 875 l 611 875 l 611 817 l 183 817 l 183 479 l 575 479 l 575 421 l 183 421 l 183 58 l 615 58 l 615 0 l 111 0 l 111 875 m 333 1172 l 401 1172 l 575 986 l 492 986 l 367 1124 l 242 986 l 164 986 l 333 1172 z "},"Ë":{"ha":676,"x_min":111,"x_max":615,"o":"m 111 875 l 611 875 l 611 817 l 183 817 l 183 479 l 575 479 l 575 421 l 183 421 l 183 58 l 615 58 l 615 0 l 111 0 l 111 875 m 193 1064 q 209 1108 193 1092 q 249 1125 225 1125 q 288 1108 272 1125 q 304 1064 304 1092 q 288 1019 304 1035 q 249 1003 272 1003 q 209 1019 225 1003 q 193 1064 193 1035 m 429 1064 q 445 1108 429 1092 q 485 1125 461 1125 q 524 1108 508 1125 q 540 1064 540 1092 q 524 1019 540 1035 q 485 1003 508 1003 q 445 1019 461 1003 q 429 1064 429 1035 z "},"Ì":{"ha":296,"x_min":-28,"x_max":185,"o":"m 183 875 l 183 0 l 111 0 l 111 875 l 183 875 m -28 1158 l 60 1158 l 185 986 l 126 986 l -28 1158 z "},"Í":{"ha":293,"x_min":111,"x_max":324,"o":"m 183 875 l 183 0 l 111 0 l 111 875 l 183 875 m 169 986 l 111 986 l 236 1158 l 324 1158 l 169 986 z "},"Î":{"ha":293,"x_min":-53,"x_max":358,"o":"m 183 875 l 183 0 l 111 0 l 111 875 l 183 875 m 117 1172 l 185 1172 l 358 986 l 275 986 l 150 1124 l 25 986 l -53 986 l 117 1172 z "},"Ï":{"ha":293,"x_min":-26,"x_max":321,"o":"m 183 875 l 183 0 l 111 0 l 111 875 l 183 875 m -26 1064 q -10 1108 -26 1092 q 29 1125 6 1125 q 69 1108 53 1125 q 85 1064 85 1092 q 69 1019 85 1035 q 29 1003 53 1003 q -10 1019 6 1003 q -26 1064 -26 1035 m 210 1064 q 226 1108 210 1092 q 265 1125 242 1125 q 305 1108 289 1125 q 321 1064 321 1092 q 305 1019 321 1035 q 265 1003 289 1003 q 226 1019 242 1003 q 210 1064 210 1035 z "},"Ð":{"ha":878,"x_min":42,"x_max":814,"o":"m 410 875 q 570 849 496 875 q 699 770 644 822 q 783 640 753 718 q 814 457 814 561 q 778 243 814 331 q 679 101 742 156 q 535 24 617 47 q 361 0 453 0 l 153 0 l 153 428 l 42 428 l 42 486 l 153 486 l 153 875 l 410 875 m 458 486 l 458 428 l 225 428 l 225 58 l 349 58 q 490 76 421 58 q 615 138 560 93 q 705 260 671 183 q 739 457 739 338 q 713 608 739 542 q 640 722 688 675 q 528 792 593 768 q 385 817 464 817 l 225 817 l 225 486 l 458 486 z "},"Ñ":{"ha":865,"x_min":111,"x_max":754,"o":"m 111 875 l 222 875 l 556 300 l 683 72 l 686 72 l 685 328 l 685 875 l 754 875 l 754 0 l 643 0 l 322 550 l 182 822 l 179 822 l 181 522 l 181 0 l 111 0 l 111 875 m 229 993 q 258 1092 229 1051 q 350 1132 286 1132 q 403 1120 381 1132 q 444 1094 425 1108 q 483 1069 464 1081 q 526 1057 503 1057 q 577 1079 563 1057 q 594 1136 592 1101 l 650 1136 q 642 1085 650 1110 q 620 1042 635 1061 q 584 1013 606 1024 q 533 1001 563 1001 q 476 1013 501 1001 q 431 1039 451 1025 q 391 1065 410 1053 q 354 1076 372 1076 q 303 1051 318 1076 q 285 993 288 1026 l 229 993 z "},"Ò":{"ha":897,"x_min":64,"x_max":833,"o":"m 451 886 q 600 858 531 886 q 722 774 669 831 q 803 634 774 718 q 833 438 833 550 q 803 244 833 328 q 719 104 772 161 q 596 18 667 47 q 446 -11 525 -11 q 297 17 367 -11 q 176 101 228 44 q 94 241 124 157 q 64 438 64 325 q 94 631 64 547 q 178 771 125 714 q 301 857 231 828 q 451 886 372 886 m 139 438 q 165 265 139 338 q 233 143 190 192 q 333 71 276 94 q 451 47 389 47 q 568 71 513 47 q 666 143 624 94 q 733 265 708 192 q 758 438 758 338 q 733 613 758 539 q 664 735 707 688 q 565 805 621 782 q 446 828 508 828 q 329 804 385 828 q 231 732 274 781 q 164 610 189 683 q 139 438 139 538 m 321 1158 l 408 1158 l 533 986 l 475 986 l 321 1158 z "},"Ó":{"ha":897,"x_min":64,"x_max":833,"o":"m 451 886 q 600 858 531 886 q 722 774 669 831 q 803 634 774 718 q 833 438 833 550 q 803 244 833 328 q 719 104 772 161 q 596 18 667 47 q 446 -11 525 -11 q 297 17 367 -11 q 176 101 228 44 q 94 241 124 157 q 64 438 64 325 q 94 631 64 547 q 178 771 125 714 q 301 857 231 828 q 451 886 372 886 m 139 438 q 165 265 139 338 q 233 143 190 192 q 333 71 276 94 q 451 47 389 47 q 568 71 513 47 q 666 143 624 94 q 733 265 708 192 q 758 438 758 338 q 733 613 758 539 q 664 735 707 688 q 565 805 621 782 q 446 828 508 828 q 329 804 385 828 q 231 732 274 781 q 164 610 189 683 q 139 438 139 538 m 418 986 l 360 986 l 485 1158 l 572 1158 l 418 986 z "},"Ô":{"ha":897,"x_min":64,"x_max":833,"o":"m 451 886 q 600 858 531 886 q 722 774 669 831 q 803 634 774 718 q 833 438 833 550 q 803 244 833 328 q 719 104 772 161 q 596 18 667 47 q 446 -11 525 -11 q 297 17 367 -11 q 176 101 228 44 q 94 241 124 157 q 64 438 64 325 q 94 631 64 547 q 178 771 125 714 q 301 857 231 828 q 451 886 372 886 m 139 438 q 165 265 139 338 q 233 143 190 192 q 333 71 276 94 q 451 47 389 47 q 568 71 513 47 q 666 143 624 94 q 733 265 708 192 q 758 438 758 338 q 733 613 758 539 q 664 735 707 688 q 565 805 621 782 q 446 828 508 828 q 329 804 385 828 q 231 732 274 781 q 164 610 189 683 q 139 438 139 538 m 417 1172 l 485 1172 l 658 986 l 575 986 l 450 1124 l 325 986 l 247 986 l 417 1172 z "},"Õ":{"ha":897,"x_min":64,"x_max":833,"o":"m 451 886 q 600 858 531 886 q 722 774 669 831 q 803 634 774 718 q 833 438 833 550 q 803 244 833 328 q 719 104 772 161 q 596 18 667 47 q 446 -11 525 -11 q 297 17 367 -11 q 176 101 228 44 q 94 241 124 157 q 64 438 64 325 q 94 631 64 547 q 178 771 125 714 q 301 857 231 828 q 451 886 372 886 m 139 438 q 165 265 139 338 q 233 143 190 192 q 333 71 276 94 q 451 47 389 47 q 568 71 513 47 q 666 143 624 94 q 733 265 708 192 q 758 438 758 338 q 733 613 758 539 q 664 735 707 688 q 565 805 621 782 q 446 828 508 828 q 329 804 385 828 q 231 732 274 781 q 164 610 189 683 q 139 438 139 538 m 240 993 q 269 1092 240 1051 q 361 1132 297 1132 q 414 1120 392 1132 q 456 1094 436 1108 q 494 1069 475 1081 q 538 1057 514 1057 q 588 1079 574 1057 q 606 1136 603 1101 l 661 1136 q 653 1085 661 1110 q 631 1042 646 1061 q 595 1013 617 1024 q 544 1001 574 1001 q 488 1013 513 1001 q 442 1039 463 1025 q 402 1065 421 1053 q 365 1076 383 1076 q 314 1051 329 1076 q 296 993 299 1026 l 240 993 z "},"Ö":{"ha":897,"x_min":64,"x_max":833,"o":"m 451 886 q 600 858 531 886 q 722 774 669 831 q 803 634 774 718 q 833 438 833 550 q 803 244 833 328 q 719 104 772 161 q 596 18 667 47 q 446 -11 525 -11 q 297 17 367 -11 q 176 101 228 44 q 94 241 124 157 q 64 438 64 325 q 94 631 64 547 q 178 771 125 714 q 301 857 231 828 q 451 886 372 886 m 139 438 q 165 265 139 338 q 233 143 190 192 q 333 71 276 94 q 451 47 389 47 q 568 71 513 47 q 666 143 624 94 q 733 265 708 192 q 758 438 758 338 q 733 613 758 539 q 664 735 707 688 q 565 805 621 782 q 446 828 508 828 q 329 804 385 828 q 231 732 274 781 q 164 610 189 683 q 139 438 139 538 m 276 1064 q 292 1108 276 1092 q 332 1125 308 1125 q 372 1108 356 1125 q 388 1064 388 1092 q 372 1019 388 1035 q 332 1003 356 1003 q 292 1019 308 1003 q 276 1064 276 1035 m 513 1064 q 528 1108 513 1092 q 568 1125 544 1125 q 608 1108 592 1125 q 624 1064 624 1092 q 608 1019 624 1035 q 568 1003 592 1003 q 528 1019 544 1003 q 513 1064 513 1035 z "},"Ø":{"ha":897,"x_min":64,"x_max":833,"o":"m 678 1046 l 725 1028 l 647 833 q 782 685 731 783 q 833 438 833 586 q 803 244 833 328 q 719 104 772 161 q 596 18 667 47 q 446 -11 525 -11 q 317 10 376 -11 l 232 -203 l 183 -183 l 268 29 q 120 179 176 78 q 64 438 64 281 q 94 631 64 547 q 178 771 125 714 q 301 857 231 828 q 451 886 372 886 q 601 857 532 886 l 678 1046 m 139 438 q 182 220 139 306 q 293 92 225 135 l 578 799 q 446 828 517 828 q 329 804 385 828 q 231 732 274 781 q 164 610 189 683 q 139 438 139 538 m 451 47 q 568 71 513 47 q 666 143 624 94 q 733 265 708 192 q 758 438 758 338 q 721 645 758 563 q 622 772 683 728 l 340 68 q 451 47 392 47 z "},"Ù":{"ha":850,"x_min":108,"x_max":742,"o":"m 108 875 l 181 875 l 181 351 q 243 118 181 189 q 433 47 306 47 q 542 68 497 47 q 615 127 586 89 q 656 218 643 165 q 669 335 669 271 l 669 875 l 742 875 l 742 339 q 663 74 742 158 q 433 -11 583 -11 q 196 74 283 -11 q 108 346 108 158 l 108 875 m 328 1158 l 415 1158 l 540 986 l 482 986 l 328 1158 z "},"Ú":{"ha":850,"x_min":108,"x_max":742,"o":"m 108 875 l 181 875 l 181 351 q 243 118 181 189 q 433 47 306 47 q 542 68 497 47 q 615 127 586 89 q 656 218 643 165 q 669 335 669 271 l 669 875 l 742 875 l 742 339 q 663 74 742 158 q 433 -11 583 -11 q 196 74 283 -11 q 108 346 108 158 l 108 875 m 389 986 l 331 986 l 456 1158 l 543 1158 l 389 986 z "},"Û":{"ha":850,"x_min":108,"x_max":742,"o":"m 108 875 l 181 875 l 181 351 q 243 118 181 189 q 433 47 306 47 q 542 68 497 47 q 615 127 586 89 q 656 218 643 165 q 669 335 669 271 l 669 875 l 742 875 l 742 339 q 663 74 742 158 q 433 -11 583 -11 q 196 74 283 -11 q 108 346 108 158 l 108 875 m 400 1172 l 468 1172 l 642 986 l 558 986 l 433 1124 l 308 986 l 231 986 l 400 1172 z "},"Ü":{"ha":850,"x_min":108,"x_max":742,"o":"m 108 875 l 181 875 l 181 351 q 243 118 181 189 q 433 47 306 47 q 542 68 497 47 q 615 127 586 89 q 656 218 643 165 q 669 335 669 271 l 669 875 l 742 875 l 742 339 q 663 74 742 158 q 433 -11 583 -11 q 196 74 283 -11 q 108 346 108 158 l 108 875 m 260 1064 q 276 1108 260 1092 q 315 1125 292 1125 q 355 1108 339 1125 q 371 1064 371 1092 q 355 1019 371 1035 q 315 1003 339 1003 q 276 1019 292 1003 q 260 1064 260 1035 m 496 1064 q 512 1108 496 1092 q 551 1125 528 1125 q 591 1108 575 1125 q 607 1064 607 1092 q 591 1019 607 1035 q 551 1003 575 1003 q 512 1019 528 1003 q 496 1064 496 1035 z "},"Ý":{"ha":671,"x_min":0,"x_max":671,"o":"m 85 875 l 333 440 l 583 875 l 671 875 l 368 367 l 368 0 l 296 0 l 296 367 l 0 875 l 85 875 m 307 986 l 249 986 l 374 1158 l 461 1158 l 307 986 z "},"Þ":{"ha":654,"x_min":100,"x_max":596,"o":"m 100 875 l 164 875 l 164 690 q 223 703 192 699 q 289 708 254 708 q 409 690 353 708 q 507 638 465 672 q 572 556 549 604 q 596 446 596 507 q 571 317 596 372 q 501 226 546 263 q 394 172 456 190 q 263 154 333 154 q 215 156 243 154 q 164 161 186 158 l 164 0 l 100 0 l 100 875 m 164 218 q 210 212 188 214 q 265 210 233 210 q 455 269 383 210 q 526 433 526 328 q 506 531 526 489 q 451 599 486 572 q 372 640 417 626 q 276 653 326 653 q 214 649 244 653 q 164 638 183 644 l 164 218 z "},"ß":{"ha":790,"x_min":114,"x_max":708,"o":"m 114 0 l 114 667 q 132 801 114 739 q 186 906 150 863 q 278 975 222 950 q 411 1000 335 1000 q 506 986 463 1000 q 583 944 550 972 q 634 873 615 915 q 653 775 653 831 q 644 711 653 743 q 628 661 636 679 q 501 615 539 650 q 464 532 464 579 q 490 458 464 488 q 563 394 517 429 q 617 351 590 372 q 663 305 643 329 q 696 251 683 281 q 708 185 708 222 q 647 43 708 97 q 472 -11 585 -11 q 433 -9 454 -11 q 390 -3 411 -7 q 351 6 369 0 q 319 18 332 11 l 336 69 q 401 51 365 58 q 469 44 436 44 q 592 82 551 44 q 633 182 633 119 q 626 226 633 207 q 603 263 618 246 q 567 298 589 281 q 519 338 546 315 q 463 383 488 361 q 423 426 439 404 q 399 473 407 449 q 390 528 390 497 q 435 641 390 590 q 571 708 481 692 q 578 737 575 721 q 581 774 581 753 q 531 899 581 853 q 407 944 482 944 q 315 929 357 944 q 244 878 274 914 q 197 786 214 843 q 181 647 181 729 l 181 0 l 114 0 z "},"à":{"ha":638,"x_min":50,"x_max":546,"o":"m 90 596 q 210 646 156 631 q 328 661 265 661 q 412 649 372 661 q 481 608 451 636 q 528 535 511 581 q 546 425 546 490 l 546 0 l 496 0 l 481 86 l 478 86 q 383 13 438 38 q 263 -11 329 -11 q 178 2 217 -11 q 110 40 139 15 q 66 101 82 65 q 50 179 50 136 q 71 269 50 231 q 129 334 92 308 q 219 372 167 360 q 335 385 271 385 l 474 385 l 474 428 q 432 563 474 522 q 324 603 390 603 q 231 590 283 603 q 118 544 178 578 l 90 596 m 474 328 l 358 326 q 251 313 296 325 q 178 283 207 301 q 138 238 150 264 q 125 183 125 213 q 138 122 125 147 q 171 79 150 96 q 220 55 192 63 q 281 47 249 47 q 332 53 306 47 q 384 73 358 60 q 433 106 410 86 q 474 156 457 126 l 474 328 m 240 958 l 328 958 l 439 772 l 381 772 l 240 958 z "},"á":{"ha":638,"x_min":50,"x_max":546,"o":"m 90 596 q 210 646 156 631 q 328 661 265 661 q 412 649 372 661 q 481 608 451 636 q 528 535 511 581 q 546 425 546 490 l 546 0 l 496 0 l 481 86 l 478 86 q 383 13 438 38 q 263 -11 329 -11 q 178 2 217 -11 q 110 40 139 15 q 66 101 82 65 q 50 179 50 136 q 71 269 50 231 q 129 334 92 308 q 219 372 167 360 q 335 385 271 385 l 474 385 l 474 428 q 432 563 474 522 q 324 603 390 603 q 231 590 283 603 q 118 544 178 578 l 90 596 m 474 328 l 358 326 q 251 313 296 325 q 178 283 207 301 q 138 238 150 264 q 125 183 125 213 q 138 122 125 147 q 171 79 150 96 q 220 55 192 63 q 281 47 249 47 q 332 53 306 47 q 384 73 358 60 q 433 106 410 86 q 474 156 457 126 l 474 328 m 303 772 l 244 772 l 356 958 l 443 958 l 303 772 z "},"â":{"ha":639,"x_min":50,"x_max":547,"o":"m 90 596 q 210 646 156 631 q 328 661 265 661 q 412 649 372 661 q 481 608 451 636 q 528 535 511 581 q 546 425 546 490 l 546 0 l 496 0 l 481 86 l 478 86 q 383 13 438 38 q 263 -11 329 -11 q 178 2 217 -11 q 110 40 139 15 q 66 101 82 65 q 50 179 50 136 q 71 269 50 231 q 129 334 92 308 q 219 372 167 360 q 335 385 271 385 l 474 385 l 474 428 q 432 563 474 522 q 324 603 390 603 q 231 590 283 603 q 118 544 178 578 l 90 596 m 474 328 l 358 326 q 251 313 296 325 q 178 283 207 301 q 138 238 150 264 q 125 183 125 213 q 138 122 125 147 q 171 79 150 96 q 220 55 192 63 q 281 47 249 47 q 332 53 306 47 q 384 73 358 60 q 433 106 410 86 q 474 156 457 126 l 474 328 m 547 772 l 469 772 l 351 908 l 231 772 l 151 772 l 318 958 l 386 958 l 547 772 z "},"ã":{"ha":638,"x_min":50,"x_max":546,"o":"m 90 596 q 210 646 156 631 q 328 661 265 661 q 412 649 372 661 q 481 608 451 636 q 528 535 511 581 q 546 425 546 490 l 546 0 l 496 0 l 481 86 l 478 86 q 383 13 438 38 q 263 -11 329 -11 q 178 2 217 -11 q 110 40 139 15 q 66 101 82 65 q 50 179 50 136 q 71 269 50 231 q 129 334 92 308 q 219 372 167 360 q 335 385 271 385 l 474 385 l 474 428 q 432 563 474 522 q 324 603 390 603 q 231 590 283 603 q 118 544 178 578 l 90 596 m 474 328 l 358 326 q 251 313 296 325 q 178 283 207 301 q 138 238 150 264 q 125 183 125 213 q 138 122 125 147 q 171 79 150 96 q 220 55 192 63 q 281 47 249 47 q 332 53 306 47 q 384 73 358 60 q 433 106 410 86 q 474 156 457 126 l 474 328 m 110 779 q 138 883 110 846 q 228 919 165 919 q 281 907 257 919 q 325 880 304 894 q 366 853 346 865 q 408 840 386 840 q 457 858 439 840 q 475 924 475 875 l 528 924 q 501 819 528 853 q 415 785 474 785 q 358 797 383 785 q 310 824 332 810 q 268 851 288 839 q 229 864 249 864 q 183 846 203 864 q 164 779 164 828 l 110 779 z "},"ä":{"ha":638,"x_min":50,"x_max":546,"o":"m 90 596 q 210 646 156 631 q 328 661 265 661 q 412 649 372 661 q 481 608 451 636 q 528 535 511 581 q 546 425 546 490 l 546 0 l 496 0 l 481 86 l 478 86 q 383 13 438 38 q 263 -11 329 -11 q 178 2 217 -11 q 110 40 139 15 q 66 101 82 65 q 50 179 50 136 q 71 269 50 231 q 129 334 92 308 q 219 372 167 360 q 335 385 271 385 l 474 385 l 474 428 q 432 563 474 522 q 324 603 390 603 q 231 590 283 603 q 118 544 178 578 l 90 596 m 474 328 l 358 326 q 251 313 296 325 q 178 283 207 301 q 138 238 150 264 q 125 183 125 213 q 138 122 125 147 q 171 79 150 96 q 220 55 192 63 q 281 47 249 47 q 332 53 306 47 q 384 73 358 60 q 433 106 410 86 q 474 156 457 126 l 474 328 m 154 865 q 170 910 154 893 q 210 926 186 926 q 249 910 233 926 q 265 865 265 893 q 249 820 265 836 q 210 804 233 804 q 170 820 186 804 q 154 865 154 836 m 390 865 q 406 910 390 893 q 446 926 422 926 q 485 910 469 926 q 501 865 501 893 q 485 820 501 836 q 446 804 469 804 q 406 820 422 804 q 390 865 390 836 z "},"å":{"ha":638,"x_min":50,"x_max":546,"o":"m 90 596 q 210 646 156 631 q 328 661 265 661 q 412 649 372 661 q 481 608 451 636 q 528 535 511 581 q 546 425 546 490 l 546 0 l 496 0 l 481 86 l 478 86 q 383 13 438 38 q 263 -11 329 -11 q 178 2 217 -11 q 110 40 139 15 q 66 101 82 65 q 50 179 50 136 q 71 269 50 231 q 129 334 92 308 q 219 372 167 360 q 335 385 271 385 l 474 385 l 474 428 q 432 563 474 522 q 324 603 390 603 q 231 590 283 603 q 118 544 178 578 l 90 596 m 474 328 l 358 326 q 251 313 296 325 q 178 283 207 301 q 138 238 150 264 q 125 183 125 213 q 138 122 125 147 q 171 79 150 96 q 220 55 192 63 q 281 47 249 47 q 332 53 306 47 q 384 73 358 60 q 433 106 410 86 q 474 156 457 126 l 474 328 m 201 865 q 238 952 201 924 q 326 981 275 981 q 415 952 379 981 q 451 865 451 924 q 413 778 451 807 q 326 750 375 750 q 239 780 276 750 q 201 865 201 810 m 257 865 q 274 811 257 833 q 326 789 290 789 q 379 811 363 789 q 396 865 396 833 q 378 919 396 897 q 326 942 361 942 q 274 919 292 942 q 257 865 257 897 z "},"æ":{"ha":1071,"x_min":50,"x_max":1013,"o":"m 1013 326 l 547 326 l 547 307 q 613 116 547 185 q 793 47 679 47 q 963 78 883 47 l 979 22 q 892 -2 943 7 q 789 -11 842 -11 q 640 19 708 -11 q 529 114 572 49 l 526 114 q 419 20 485 51 q 276 -11 354 -11 q 186 2 228 -11 q 114 40 144 15 q 67 101 83 65 q 50 179 50 136 q 71 269 50 231 q 129 334 92 308 q 219 372 167 360 q 335 385 271 385 l 474 385 l 474 428 q 432 563 474 522 q 324 603 390 603 q 231 590 283 603 q 118 544 178 578 l 90 596 q 210 646 156 631 q 328 661 265 661 q 447 631 394 661 q 526 535 499 600 l 529 535 q 624 628 567 596 q 757 661 682 661 q 860 641 813 661 q 941 583 907 621 q 994 493 975 546 q 1013 376 1013 440 l 1013 326 m 125 183 q 172 80 125 113 q 294 47 218 47 q 347 54 319 47 q 403 76 375 61 q 456 113 431 90 q 500 168 481 136 q 472 326 472 236 l 358 326 q 251 315 296 326 q 178 285 207 304 q 138 239 150 265 q 125 183 125 213 m 938 385 q 928 465 938 425 q 897 535 918 504 q 841 584 875 565 q 758 603 807 603 q 617 546 674 603 q 550 385 561 489 l 938 385 z "},"ç":{"ha":593,"x_min":57,"x_max":549,"o":"m 385 42 q 465 51 429 42 q 533 76 501 61 l 549 26 q 479 1 515 10 q 399 -11 443 -8 l 369 -67 q 470 -97 435 -69 q 506 -164 506 -124 q 493 -214 506 -193 q 459 -249 481 -235 q 410 -271 438 -264 q 351 -278 382 -278 q 292 -273 319 -278 q 249 -261 265 -268 l 263 -214 q 342 -228 301 -228 q 411 -214 386 -228 q 436 -167 436 -200 q 405 -124 436 -139 q 296 -108 374 -108 l 342 -10 q 231 19 283 -4 q 140 85 179 43 q 79 186 101 126 q 57 325 57 246 q 81 465 57 403 q 147 572 104 528 q 248 638 190 615 q 375 661 306 661 q 458 655 418 661 q 546 626 499 649 l 529 569 q 458 596 492 589 q 388 603 424 603 q 283 583 331 603 q 203 528 236 564 q 151 442 169 493 q 132 329 132 392 q 154 191 132 246 q 212 103 176 136 q 292 56 247 69 q 385 42 338 42 z "},"è":{"ha":700,"x_min":82,"x_max":622,"o":"m 622 326 l 157 326 l 157 307 q 223 116 157 185 q 403 47 289 47 q 572 78 493 47 l 589 22 q 502 -2 553 7 q 399 -11 451 -11 q 276 8 333 -11 q 175 69 218 28 q 107 173 132 110 q 82 325 82 236 q 103 464 82 401 q 163 570 124 526 q 254 638 201 614 q 372 661 307 661 q 474 641 428 661 q 553 583 521 621 q 604 493 586 546 q 622 376 622 440 l 622 326 m 547 385 q 538 465 547 425 q 506 535 528 504 q 451 584 485 565 q 368 603 417 603 q 227 546 283 603 q 160 385 171 489 l 547 385 m 350 958 l 461 772 l 403 772 l 263 958 l 350 958 z "},"é":{"ha":700,"x_min":82,"x_max":622,"o":"m 622 326 l 157 326 l 157 307 q 223 116 157 185 q 403 47 289 47 q 572 78 493 47 l 589 22 q 502 -2 553 7 q 399 -11 451 -11 q 276 8 333 -11 q 175 69 218 28 q 107 173 132 110 q 82 325 82 236 q 103 464 82 401 q 163 570 124 526 q 254 638 201 614 q 372 661 307 661 q 474 641 428 661 q 553 583 521 621 q 604 493 586 546 q 622 376 622 440 l 622 326 m 547 385 q 538 465 547 425 q 506 535 528 504 q 451 584 485 565 q 368 603 417 603 q 227 546 283 603 q 160 385 171 489 l 547 385 m 467 958 l 326 772 l 268 772 l 379 958 l 467 958 z "},"ê":{"ha":700,"x_min":82,"x_max":622,"o":"m 622 326 l 157 326 l 157 307 q 223 116 157 185 q 403 47 289 47 q 572 78 493 47 l 589 22 q 502 -2 553 7 q 399 -11 451 -11 q 276 8 333 -11 q 175 69 218 28 q 107 173 132 110 q 82 325 82 236 q 103 464 82 401 q 163 570 124 526 q 254 638 201 614 q 372 661 307 661 q 474 641 428 661 q 553 583 521 621 q 604 493 586 546 q 622 376 622 440 l 622 326 m 547 385 q 538 465 547 425 q 506 535 528 504 q 451 584 485 565 q 368 603 417 603 q 227 546 283 603 q 160 385 171 489 l 547 385 m 496 772 l 378 908 l 257 772 l 178 772 l 344 958 l 413 958 l 574 772 l 496 772 z "},"ë":{"ha":700,"x_min":82,"x_max":622,"o":"m 622 326 l 157 326 l 157 307 q 223 116 157 185 q 403 47 289 47 q 572 78 493 47 l 589 22 q 502 -2 553 7 q 399 -11 451 -11 q 276 8 333 -11 q 175 69 218 28 q 107 173 132 110 q 82 325 82 236 q 103 464 82 401 q 163 570 124 526 q 254 638 201 614 q 372 661 307 661 q 474 641 428 661 q 553 583 521 621 q 604 493 586 546 q 622 376 622 440 l 622 326 m 547 385 q 538 465 547 425 q 506 535 528 504 q 451 584 485 565 q 368 603 417 603 q 227 546 283 603 q 160 385 171 489 l 547 385 m 206 865 q 222 910 206 893 q 261 926 238 926 q 301 910 285 926 q 317 865 317 893 q 301 820 317 836 q 261 804 285 804 q 222 820 238 804 q 206 865 206 836 m 442 865 q 458 910 442 893 q 497 926 474 926 q 537 910 521 926 q 553 865 553 893 q 537 820 553 836 q 497 804 521 804 q 458 820 474 804 q 442 865 442 836 z "},"ì":{"ha":294,"x_min":-14,"x_max":185,"o":"m 111 0 l 111 653 l 183 653 l 183 0 l 111 0 m -14 958 l 74 958 l 185 772 l 126 772 l -14 958 z "},"í":{"ha":294,"x_min":111,"x_max":310,"o":"m 111 0 l 111 653 l 183 653 l 183 0 l 111 0 m 169 772 l 111 772 l 222 958 l 310 958 l 169 772 z "},"î":{"ha":294,"x_min":-54,"x_max":342,"o":"m 111 0 l 111 653 l 183 653 l 183 0 l 111 0 m 342 772 l 264 772 l 147 906 l 25 772 l -54 772 l 113 958 l 181 958 l 342 772 z "},"ï":{"ha":294,"x_min":-26,"x_max":321,"o":"m 111 0 l 111 653 l 183 653 l 183 0 l 111 0 m -26 865 q -10 910 -26 893 q 29 926 6 926 q 69 910 53 926 q 85 865 85 893 q 69 820 85 836 q 29 804 53 804 q -10 820 6 804 q -26 865 -26 836 m 210 865 q 226 910 210 893 q 265 926 242 926 q 305 910 289 926 q 321 865 321 893 q 305 820 321 836 q 265 804 289 804 q 226 820 242 804 q 210 865 210 836 z "},"ð":{"ha":694,"x_min":56,"x_max":636,"o":"m 333 635 q 451 606 396 635 q 540 525 506 576 l 544 525 q 521 603 538 563 q 481 683 504 644 q 428 756 457 722 q 371 813 400 790 l 201 726 l 178 768 l 329 844 q 257 884 301 864 q 172 919 213 904 l 203 972 q 301 932 247 957 q 399 875 354 907 l 535 944 l 558 901 l 438 842 q 506 766 471 813 q 569 657 540 719 q 617 517 599 594 q 636 350 636 440 q 616 204 636 271 q 558 90 596 138 q 467 15 521 42 q 344 -11 413 -11 q 243 7 294 -11 q 150 65 192 25 q 82 165 108 104 q 56 311 56 225 q 78 448 56 388 q 138 550 100 508 q 226 613 175 592 q 333 635 276 635 m 344 576 q 269 563 307 576 q 200 519 231 550 q 150 438 169 488 q 131 315 131 388 q 150 185 131 236 q 201 103 169 133 q 272 60 232 72 q 350 47 311 47 q 434 67 396 47 q 500 122 472 86 q 544 206 528 157 q 560 317 560 256 q 542 424 560 376 q 494 506 524 472 q 425 558 464 540 q 344 576 386 576 z "},"ñ":{"ha":692,"x_min":94,"x_max":597,"o":"m 167 0 l 94 0 l 94 653 l 147 653 l 158 563 q 260 634 206 607 q 385 661 315 661 q 541 606 485 661 q 597 450 597 550 l 597 0 l 525 0 l 525 432 q 517 499 525 468 q 491 553 510 531 q 441 590 472 576 q 364 603 410 603 q 259 576 311 603 q 167 503 207 549 l 167 0 m 149 779 q 176 883 149 846 q 267 919 204 919 q 319 907 296 919 q 364 880 343 894 q 405 853 385 865 q 447 840 425 840 q 496 858 478 840 q 514 924 514 875 l 567 924 q 540 819 567 853 q 454 785 513 785 q 397 797 422 785 q 349 824 371 810 q 307 851 326 839 q 268 864 288 864 q 222 846 242 864 q 203 779 203 828 l 149 779 z "},"ò":{"ha":689,"x_min":53,"x_max":635,"o":"m 635 333 q 613 187 635 251 q 551 78 590 122 q 458 12 511 35 q 343 -11 406 -11 q 228 10 282 -11 q 136 74 175 32 q 75 177 97 115 q 53 319 53 239 q 76 465 53 401 q 139 573 99 529 q 233 639 179 617 q 349 661 288 661 q 463 640 410 661 q 553 578 515 619 q 613 475 592 536 q 635 333 635 414 m 560 326 q 542 451 560 399 q 494 537 524 503 q 425 587 464 571 q 344 603 386 603 q 264 587 303 603 q 194 537 225 571 q 146 451 164 503 q 128 326 128 399 q 147 197 128 250 q 196 111 165 144 q 266 63 226 78 q 347 47 306 47 q 427 62 389 47 q 495 110 465 76 q 542 197 525 143 q 560 326 560 250 m 244 958 l 332 958 l 443 772 l 385 772 l 244 958 z "},"ó":{"ha":689,"x_min":53,"x_max":635,"o":"m 635 333 q 613 187 635 251 q 551 78 590 122 q 458 12 511 35 q 343 -11 406 -11 q 228 10 282 -11 q 136 74 175 32 q 75 177 97 115 q 53 319 53 239 q 76 465 53 401 q 139 573 99 529 q 233 639 179 617 q 349 661 288 661 q 463 640 410 661 q 553 578 515 619 q 613 475 592 536 q 635 333 635 414 m 560 326 q 542 451 560 399 q 494 537 524 503 q 425 587 464 571 q 344 603 386 603 q 264 587 303 603 q 194 537 225 571 q 146 451 164 503 q 128 326 128 399 q 147 197 128 250 q 196 111 165 144 q 266 63 226 78 q 347 47 306 47 q 427 62 389 47 q 495 110 465 76 q 542 197 525 143 q 560 326 560 250 m 310 772 l 251 772 l 363 958 l 450 958 l 310 772 z "},"ô":{"ha":689,"x_min":53,"x_max":635,"o":"m 635 333 q 613 187 635 251 q 551 78 590 122 q 458 12 511 35 q 343 -11 406 -11 q 228 10 282 -11 q 136 74 175 32 q 75 177 97 115 q 53 319 53 239 q 76 465 53 401 q 139 573 99 529 q 233 639 179 617 q 349 661 288 661 q 463 640 410 661 q 553 578 515 619 q 613 475 592 536 q 635 333 635 414 m 560 326 q 542 451 560 399 q 494 537 524 503 q 425 587 464 571 q 344 603 386 603 q 264 587 303 603 q 194 537 225 571 q 146 451 164 503 q 128 326 128 399 q 147 197 128 250 q 196 111 165 144 q 266 63 226 78 q 347 47 306 47 q 427 62 389 47 q 495 110 465 76 q 542 197 525 143 q 560 326 560 250 m 543 772 l 465 772 l 347 908 l 226 772 l 147 772 l 314 958 l 382 958 l 543 772 z "},"õ":{"ha":689,"x_min":53,"x_max":635,"o":"m 635 333 q 613 187 635 251 q 551 78 590 122 q 458 12 511 35 q 343 -11 406 -11 q 228 10 282 -11 q 136 74 175 32 q 75 177 97 115 q 53 319 53 239 q 76 465 53 401 q 139 573 99 529 q 233 639 179 617 q 349 661 288 661 q 463 640 410 661 q 553 578 515 619 q 613 475 592 536 q 635 333 635 414 m 560 326 q 542 451 560 399 q 494 537 524 503 q 425 587 464 571 q 344 603 386 603 q 264 587 303 603 q 194 537 225 571 q 146 451 164 503 q 128 326 128 399 q 147 197 128 250 q 196 111 165 144 q 266 63 226 78 q 347 47 306 47 q 427 62 389 47 q 495 110 465 76 q 542 197 525 143 q 560 326 560 250 m 140 779 q 168 883 140 846 q 258 919 196 919 q 311 907 288 919 q 356 880 335 894 q 397 853 376 865 q 439 840 417 840 q 488 858 469 840 q 506 924 506 875 l 558 924 q 531 819 558 853 q 446 785 504 785 q 388 797 414 785 q 340 824 363 810 q 299 851 318 839 q 260 864 279 864 q 214 846 233 864 q 194 779 194 828 l 140 779 z "},"ö":{"ha":689,"x_min":53,"x_max":635,"o":"m 635 333 q 613 187 635 251 q 551 78 590 122 q 458 12 511 35 q 343 -11 406 -11 q 228 10 282 -11 q 136 74 175 32 q 75 177 97 115 q 53 319 53 239 q 76 465 53 401 q 139 573 99 529 q 233 639 179 617 q 349 661 288 661 q 463 640 410 661 q 553 578 515 619 q 613 475 592 536 q 635 333 635 414 m 560 326 q 542 451 560 399 q 494 537 524 503 q 425 587 464 571 q 344 603 386 603 q 264 587 303 603 q 194 537 225 571 q 146 451 164 503 q 128 326 128 399 q 147 197 128 250 q 196 111 165 144 q 266 63 226 78 q 347 47 306 47 q 427 62 389 47 q 495 110 465 76 q 542 197 525 143 q 560 326 560 250 m 171 865 q 187 910 171 893 q 226 926 203 926 q 266 910 250 926 q 282 865 282 893 q 266 820 282 836 q 226 804 250 804 q 187 820 203 804 q 171 865 171 836 m 407 865 q 423 910 407 893 q 463 926 439 926 q 502 910 486 926 q 518 865 518 893 q 502 820 518 836 q 463 804 486 804 q 423 820 439 804 q 407 865 407 836 z "},"ø":{"ha":689,"x_min":53,"x_max":635,"o":"m 493 793 l 538 782 l 488 628 q 594 518 554 592 q 635 333 635 444 q 613 187 635 251 q 551 78 590 122 q 458 12 511 35 q 343 -11 406 -11 q 314 -10 328 -11 q 286 -6 300 -8 l 249 -124 l 204 -111 l 242 6 q 105 114 157 35 q 53 319 53 193 q 76 465 53 401 q 139 573 99 529 q 233 639 179 617 q 349 661 288 661 q 446 646 397 661 l 493 793 m 344 603 q 264 587 303 603 q 194 537 225 571 q 146 451 164 503 q 128 326 128 399 q 165 152 128 215 q 260 64 203 89 l 426 586 q 344 603 389 603 m 560 326 q 533 472 560 414 q 467 561 507 529 l 304 51 q 347 47 322 47 q 427 62 389 47 q 495 110 465 76 q 542 197 525 143 q 560 326 560 250 z "},"ù":{"ha":699,"x_min":94,"x_max":604,"o":"m 532 653 l 604 653 l 604 0 l 553 0 l 542 82 l 539 82 q 450 17 506 46 q 319 -11 394 -11 q 156 44 218 -11 q 94 215 94 99 l 94 653 l 167 653 l 167 231 q 179 141 167 176 q 214 85 192 106 q 267 56 236 64 q 335 47 299 47 q 451 76 397 47 q 532 146 504 106 l 532 653 m 233 958 l 321 958 l 432 772 l 374 772 l 233 958 z "},"ú":{"ha":699,"x_min":94,"x_max":604,"o":"m 532 653 l 604 653 l 604 0 l 553 0 l 542 82 l 539 82 q 450 17 506 46 q 319 -11 394 -11 q 156 44 218 -11 q 94 215 94 99 l 94 653 l 167 653 l 167 231 q 179 141 167 176 q 214 85 192 106 q 267 56 236 64 q 335 47 299 47 q 451 76 397 47 q 532 146 504 106 l 532 653 m 324 772 l 265 772 l 376 958 l 464 958 l 324 772 z "},"û":{"ha":699,"x_min":94,"x_max":604,"o":"m 532 653 l 604 653 l 604 0 l 553 0 l 542 82 l 539 82 q 450 17 506 46 q 319 -11 394 -11 q 156 44 218 -11 q 94 215 94 99 l 94 653 l 167 653 l 167 231 q 179 141 167 176 q 214 85 192 106 q 267 56 236 64 q 335 47 299 47 q 451 76 397 47 q 532 146 504 106 l 532 653 m 544 772 l 467 772 l 349 908 l 228 772 l 149 772 l 315 958 l 383 958 l 544 772 z "},"ü":{"ha":699,"x_min":94,"x_max":604,"o":"m 532 653 l 604 653 l 604 0 l 553 0 l 542 82 l 539 82 q 450 17 506 46 q 319 -11 394 -11 q 156 44 218 -11 q 94 215 94 99 l 94 653 l 167 653 l 167 231 q 179 141 167 176 q 214 85 192 106 q 267 56 236 64 q 335 47 299 47 q 451 76 397 47 q 532 146 504 106 l 532 653 m 176 865 q 192 910 176 893 q 232 926 208 926 q 272 910 256 926 q 288 865 288 893 q 272 820 288 836 q 232 804 256 804 q 192 820 208 804 q 176 865 176 836 m 413 865 q 428 910 413 893 q 468 926 444 926 q 508 910 492 926 q 524 865 524 893 q 508 820 524 836 q 468 804 492 804 q 428 820 444 804 q 413 865 413 836 z "},"ý":{"ha":585,"x_min":13,"x_max":575,"o":"m 13 653 l 88 653 l 257 219 l 307 72 l 310 72 l 353 219 l 506 653 l 575 653 l 324 -56 q 228 -225 286 -161 q 88 -321 169 -289 l 58 -268 q 179 -187 129 -239 q 263 -37 229 -136 l 275 0 l 13 653 m 283 772 l 225 772 l 336 958 l 424 958 l 283 772 z "},"þ":{"ha":686,"x_min":96,"x_max":628,"o":"m 628 333 q 606 192 628 256 q 544 84 583 129 q 454 14 506 39 q 344 -11 403 -11 q 239 1 282 -11 q 161 40 196 13 l 161 -222 l 96 -222 l 96 986 l 161 986 l 161 575 q 253 641 203 621 q 357 661 304 661 q 555 576 482 661 q 628 333 628 492 m 556 332 q 498 531 556 458 q 339 603 440 603 q 242 577 286 603 q 161 511 197 551 l 161 106 q 233 59 189 74 q 313 44 276 44 q 403 61 360 44 q 481 113 447 78 q 535 203 515 149 q 556 332 556 257 z "},"ÿ":{"ha":585,"x_min":13,"x_max":575,"o":"m 13 653 l 88 653 l 256 219 l 308 68 l 311 68 l 356 219 l 506 653 l 575 653 l 324 -56 q 228 -225 286 -161 q 88 -321 169 -289 l 58 -268 q 181 -187 129 -239 q 265 -37 232 -136 l 278 0 l 13 653 m 131 865 q 147 910 131 893 q 186 926 163 926 q 226 910 210 926 q 242 865 242 893 q 226 820 242 836 q 186 804 210 804 q 147 820 163 804 q 131 865 131 836 m 367 865 q 383 910 367 893 q 422 926 399 926 q 462 910 446 926 q 478 865 478 893 q 462 820 478 836 q 422 804 446 804 q 383 820 399 804 q 367 865 367 836 z "},"¬":{"ha":2006,"x_min":0,"x_max":0,"o":""},"˘":{"ha":410,"x_min":21,"x_max":394,"o":"m 88 944 q 117 860 89 892 q 210 828 144 828 q 295 858 264 828 q 328 944 326 889 l 394 944 q 347 821 394 869 q 210 772 300 772 q 124 786 160 772 q 66 824 89 800 q 32 880 43 849 q 21 944 21 911 l 88 944 z "},"ˇ":{"ha":467,"x_min":28,"x_max":439,"o":"m 28 958 l 108 958 l 231 821 l 356 958 l 439 958 l 265 772 l 197 772 l 28 958 z "},"ˉ":{"ha":424,"x_min":42,"x_max":382,"o":"m 382 1072 l 382 1014 l 42 1014 l 42 1072 l 382 1072 z "},"˙":{"ha":194,"x_min":42,"x_max":153,"o":"m 42 875 q 58 919 42 903 q 97 936 74 936 q 137 919 121 936 q 153 875 153 903 q 137 830 153 846 q 97 814 121 814 q 58 830 74 814 q 42 875 42 846 z "},"˝":{"ha":403,"x_min":0,"x_max":449,"o":"m 58 772 l 0 772 l 125 958 l 213 958 l 58 772 m 294 772 l 236 772 l 361 958 l 449 958 l 294 772 z "},"¯":{"ha":397,"x_min":43,"x_max":356,"o":"m 356 917 l 356 865 l 43 865 l 43 917 l 356 917 z "},"˛":{"ha":347,"x_min":35,"x_max":294,"o":"m 229 0 q 138 -66 172 -33 q 103 -146 103 -99 q 132 -208 103 -186 q 207 -231 161 -231 q 251 -226 232 -231 q 283 -215 269 -222 l 294 -257 q 248 -277 275 -269 q 189 -285 221 -285 q 80 -251 125 -285 q 35 -151 35 -217 q 45 -101 35 -125 q 72 -58 56 -78 q 108 -24 88 -39 q 149 0 128 -10 l 229 0 z "},"˚":{"ha":342,"x_min":43,"x_max":293,"o":"m 43 865 q 80 952 43 924 q 168 981 117 981 q 257 952 221 981 q 293 865 293 924 q 255 778 293 807 q 168 750 217 750 q 81 780 118 750 q 43 865 43 810 m 99 865 q 115 811 99 833 q 168 789 132 789 q 221 811 204 789 q 238 865 238 833 q 220 919 238 897 q 168 942 203 942 q 116 919 133 942 q 99 865 99 897 z "},"Ă":{"ha":810,"x_min":36,"x_max":774,"o":"m 286 1158 q 315 1074 288 1106 q 408 1042 343 1042 q 494 1072 463 1042 q 526 1158 525 1103 l 593 1158 q 546 1035 593 1083 q 408 986 499 986 q 323 1000 358 986 q 265 1038 288 1014 q 231 1094 242 1063 q 219 1158 219 1125 l 286 1158 m 371 875 l 443 875 l 774 0 l 696 0 l 600 258 l 208 258 l 113 0 l 36 0 l 371 875 m 231 317 l 576 317 l 467 617 q 457 646 464 625 q 442 693 450 667 q 424 749 433 719 q 408 803 415 778 l 406 803 q 390 750 399 778 q 372 697 381 722 q 355 650 363 671 q 343 617 347 629 l 231 317 z "},"Ā":{"ha":810,"x_min":36,"x_max":774,"o":"m 579 1072 l 579 1014 l 239 1014 l 239 1072 l 579 1072 m 371 875 l 443 875 l 774 0 l 696 0 l 600 258 l 208 258 l 113 0 l 36 0 l 371 875 m 231 317 l 576 317 l 467 617 q 457 646 464 625 q 442 693 450 667 q 424 749 433 719 q 408 803 415 778 l 406 803 q 390 750 399 778 q 372 697 381 722 q 355 650 363 671 q 343 617 347 629 l 231 317 z "},"Ą":{"ha":813,"x_min":36,"x_max":835,"o":"m 371 875 l 443 875 l 774 0 q 643 -147 643 -62 q 669 -209 643 -187 q 744 -231 696 -231 q 788 -226 768 -231 q 822 -214 808 -221 l 835 -257 q 724 -286 786 -286 q 617 -251 660 -286 q 575 -151 575 -217 q 612 -59 575 -99 q 696 0 649 -19 l 600 258 l 208 258 l 113 0 l 36 0 l 371 875 m 231 317 l 576 317 l 467 617 q 457 646 464 625 q 442 693 450 667 q 424 749 433 719 q 408 803 415 778 l 406 803 q 390 750 399 778 q 372 697 381 722 q 355 650 363 671 q 343 617 347 629 l 231 317 z "},"Ǽ":{"ha":1065,"x_min":22,"x_max":1004,"o":"m 22 0 l 472 875 l 1000 875 l 1000 817 l 586 817 l 586 479 l 964 479 l 964 421 l 586 421 l 586 58 l 1004 58 l 1004 0 l 514 0 l 514 268 l 233 268 l 99 0 l 22 0 m 514 824 l 263 326 l 514 326 l 514 824 m 543 986 l 485 986 l 610 1158 l 697 1158 l 543 986 z "},"Ć":{"ha":735,"x_min":49,"x_max":689,"o":"m 474 47 q 586 60 540 47 q 668 92 632 72 l 685 33 q 591 1 643 13 q 464 -11 539 -11 q 302 18 378 -11 q 170 103 226 47 q 81 243 114 160 q 49 436 49 326 q 80 627 49 543 q 166 769 111 711 q 297 856 221 826 q 461 886 372 886 q 593 873 542 886 q 689 836 644 860 l 672 782 q 580 817 626 806 q 476 828 533 828 q 344 806 407 828 q 231 735 281 783 q 153 613 182 688 q 124 435 124 539 q 155 252 124 326 q 236 133 186 178 q 349 67 286 88 q 474 47 411 47 m 404 986 l 346 986 l 471 1158 l 558 1158 l 404 986 z "},"Č":{"ha":743,"x_min":49,"x_max":689,"o":"m 474 47 q 586 60 540 47 q 668 92 632 72 l 685 33 q 591 1 643 13 q 464 -11 539 -11 q 302 18 378 -11 q 170 103 226 47 q 81 243 114 160 q 49 436 49 326 q 80 627 49 543 q 166 769 111 711 q 297 856 221 826 q 461 886 372 886 q 593 873 542 886 q 689 836 644 860 l 672 782 q 580 817 626 806 q 476 828 533 828 q 344 806 407 828 q 231 735 281 783 q 153 613 182 688 q 124 435 124 539 q 155 252 124 326 q 236 133 186 178 q 349 67 286 88 q 474 47 411 47 m 258 1174 l 336 1174 l 461 1036 l 586 1174 l 669 1174 l 496 988 l 428 988 l 258 1174 z "},"Ĉ":{"ha":735,"x_min":49,"x_max":689,"o":"m 474 47 q 586 60 540 47 q 668 92 632 72 l 685 33 q 591 1 643 13 q 464 -11 539 -11 q 302 18 378 -11 q 170 103 226 47 q 81 243 114 160 q 49 436 49 326 q 80 627 49 543 q 166 769 111 711 q 297 856 221 826 q 461 886 372 886 q 593 873 542 886 q 689 836 644 860 l 672 782 q 580 817 626 806 q 476 828 533 828 q 344 806 407 828 q 231 735 281 783 q 153 613 182 688 q 124 435 124 539 q 155 252 124 326 q 236 133 186 178 q 349 67 286 88 q 474 47 411 47 m 429 1172 l 497 1172 l 671 986 l 588 986 l 463 1124 l 338 986 l 260 986 l 429 1172 z "},"Ċ":{"ha":735,"x_min":49,"x_max":689,"o":"m 474 47 q 586 60 540 47 q 668 92 632 72 l 685 33 q 591 1 643 13 q 464 -11 539 -11 q 302 18 378 -11 q 170 103 226 47 q 81 243 114 160 q 49 436 49 326 q 80 627 49 543 q 166 769 111 711 q 297 856 221 826 q 461 886 372 886 q 593 873 542 886 q 689 836 644 860 l 672 782 q 580 817 626 806 q 476 828 533 828 q 344 806 407 828 q 231 735 281 783 q 153 613 182 688 q 124 435 124 539 q 155 252 124 326 q 236 133 186 178 q 349 67 286 88 q 474 47 411 47 m 406 1081 q 422 1125 406 1108 q 461 1142 438 1142 q 501 1125 485 1142 q 517 1081 517 1108 q 501 1035 517 1051 q 461 1019 485 1019 q 422 1035 438 1019 q 406 1081 406 1051 z "},"Ď":{"ha":836,"x_min":111,"x_max":772,"o":"m 368 875 q 528 849 454 875 q 657 770 603 822 q 742 640 711 718 q 772 457 772 561 q 736 243 772 331 q 638 101 700 156 q 493 24 575 47 q 319 0 411 0 l 111 0 l 111 875 l 368 875 m 183 58 l 307 58 q 449 76 379 58 q 574 138 518 93 q 663 260 629 183 q 697 457 697 338 q 672 608 697 542 q 599 722 646 675 q 487 792 551 768 q 343 817 422 817 l 183 817 l 183 58 m 154 1172 l 232 1172 l 357 1035 l 482 1172 l 565 1172 l 392 986 l 324 986 l 154 1172 z "},"Đ":{"ha":878,"x_min":42,"x_max":814,"o":"m 410 875 q 570 849 496 875 q 699 770 644 822 q 783 640 753 718 q 814 457 814 561 q 778 243 814 331 q 679 101 742 156 q 535 24 617 47 q 361 0 453 0 l 153 0 l 153 428 l 42 428 l 42 486 l 153 486 l 153 875 l 410 875 m 458 486 l 458 428 l 225 428 l 225 58 l 349 58 q 490 76 421 58 q 615 138 560 93 q 705 260 671 183 q 739 457 739 338 q 713 608 739 542 q 640 722 688 675 q 528 792 593 768 q 385 817 464 817 l 225 817 l 225 486 l 458 486 z "},"Ĕ":{"ha":676,"x_min":111,"x_max":615,"o":"m 111 875 l 611 875 l 611 817 l 183 817 l 183 479 l 575 479 l 575 421 l 183 421 l 183 58 l 615 58 l 615 0 l 111 0 l 111 875 m 244 1158 q 274 1074 246 1106 q 367 1042 301 1042 q 452 1072 421 1042 q 485 1158 483 1103 l 551 1158 q 504 1035 551 1083 q 367 986 457 986 q 281 1000 317 986 q 223 1038 246 1014 q 189 1094 200 1063 q 178 1158 178 1125 l 244 1158 z "},"Ě":{"ha":676,"x_min":111,"x_max":615,"o":"m 111 875 l 611 875 l 611 817 l 183 817 l 183 479 l 575 479 l 575 421 l 183 421 l 183 58 l 615 58 l 615 0 l 111 0 l 111 875 m 164 1174 l 242 1174 l 367 1036 l 492 1174 l 575 1174 l 401 988 l 333 988 l 164 1174 z "},"Ė":{"ha":676,"x_min":111,"x_max":615,"o":"m 111 875 l 611 875 l 611 817 l 183 817 l 183 479 l 575 479 l 575 421 l 183 421 l 183 58 l 615 58 l 615 0 l 111 0 l 111 875 m 311 1081 q 327 1125 311 1108 q 367 1142 343 1142 q 406 1125 390 1142 q 422 1081 422 1108 q 406 1035 422 1051 q 367 1019 390 1019 q 327 1035 343 1019 q 311 1081 311 1051 z "},"Ē":{"ha":676,"x_min":111,"x_max":615,"o":"m 111 875 l 611 875 l 611 817 l 183 817 l 183 479 l 575 479 l 575 421 l 183 421 l 183 58 l 615 58 l 615 0 l 111 0 l 111 875 m 538 1072 l 538 1014 l 197 1014 l 197 1072 l 538 1072 z "},"Ę":{"ha":676,"x_min":111,"x_max":667,"o":"m 615 0 q 510 -63 544 -24 q 475 -147 475 -103 q 501 -209 475 -187 q 576 -231 528 -231 q 620 -226 600 -231 q 654 -214 640 -221 l 667 -257 q 556 -286 618 -286 q 449 -251 492 -286 q 407 -151 407 -217 q 438 -60 407 -99 q 518 -3 469 -21 l 518 0 l 111 0 l 111 875 l 611 875 l 611 817 l 183 817 l 183 479 l 575 479 l 575 421 l 183 421 l 183 58 l 615 58 l 615 0 z "},"Ğ":{"ha":806,"x_min":63,"x_max":725,"o":"m 483 886 q 612 875 556 886 q 718 836 668 864 l 700 778 q 601 815 651 801 q 499 828 551 828 q 362 807 428 828 q 245 740 296 786 q 165 619 194 693 q 135 436 135 544 q 163 271 135 343 q 240 149 192 199 q 356 73 289 99 q 499 47 422 47 q 594 55 553 47 q 653 72 635 63 l 653 383 l 465 383 l 465 440 l 725 440 l 725 32 q 625 1 679 13 q 492 -11 571 -11 q 326 18 404 -11 q 190 103 249 47 q 97 243 131 160 q 63 436 63 326 q 94 631 63 546 q 183 772 126 715 q 316 857 239 828 q 483 886 393 886 m 363 1175 q 392 1090 364 1122 q 485 1058 419 1058 q 570 1089 539 1058 q 603 1175 601 1119 l 669 1175 q 622 1051 669 1100 q 485 1003 575 1003 q 399 1017 435 1003 q 341 1055 364 1031 q 307 1110 318 1079 q 296 1175 296 1142 l 363 1175 z "},"Ĝ":{"ha":806,"x_min":63,"x_max":725,"o":"m 483 886 q 612 875 556 886 q 718 836 668 864 l 700 778 q 601 815 651 801 q 499 828 551 828 q 362 807 428 828 q 245 740 296 786 q 165 619 194 693 q 135 436 135 544 q 163 271 135 343 q 240 149 192 199 q 356 73 289 99 q 499 47 422 47 q 594 55 553 47 q 653 72 635 63 l 653 383 l 465 383 l 465 440 l 725 440 l 725 32 q 625 1 679 13 q 492 -11 571 -11 q 326 18 404 -11 q 190 103 249 47 q 97 243 131 160 q 63 436 63 326 q 94 631 63 546 q 183 772 126 715 q 316 857 239 828 q 483 886 393 886 m 450 1172 l 518 1172 l 692 986 l 608 986 l 483 1124 l 358 986 l 281 986 l 450 1172 z "},"Ģ":{"ha":806,"x_min":63,"x_max":725,"o":"m 483 886 q 612 875 556 886 q 718 836 668 864 l 700 778 q 601 815 651 801 q 499 828 551 828 q 362 807 428 828 q 245 740 296 786 q 165 619 194 693 q 135 436 135 544 q 163 271 135 343 q 240 149 192 199 q 356 73 289 99 q 499 47 422 47 q 594 55 553 47 q 653 72 635 63 l 653 383 l 465 383 l 465 440 l 725 440 l 725 32 q 625 1 679 13 q 492 -11 571 -11 q 326 18 404 -11 q 190 103 249 47 q 97 243 131 160 q 63 436 63 326 q 94 631 63 546 q 183 772 126 715 q 316 857 239 828 q 483 886 393 886 m 483 -258 q 444 -237 460 -254 q 428 -192 428 -221 q 444 -150 428 -167 q 485 -133 460 -133 q 529 -152 507 -133 q 551 -225 551 -171 q 540 -286 551 -257 q 510 -341 529 -315 q 467 -387 492 -367 q 417 -421 443 -407 l 389 -382 q 457 -328 431 -361 q 490 -260 483 -294 l 483 -258 z "},"Ġ":{"ha":806,"x_min":63,"x_max":725,"o":"m 483 886 q 612 875 556 886 q 718 836 668 864 l 700 778 q 601 815 651 801 q 499 828 551 828 q 362 807 428 828 q 245 740 296 786 q 165 619 194 693 q 135 436 135 544 q 163 271 135 343 q 240 149 192 199 q 356 73 289 99 q 499 47 422 47 q 594 55 553 47 q 653 72 635 63 l 653 383 l 465 383 l 465 440 l 725 440 l 725 32 q 625 1 679 13 q 492 -11 571 -11 q 326 18 404 -11 q 190 103 249 47 q 97 243 131 160 q 63 436 63 326 q 94 631 63 546 q 183 772 126 715 q 316 857 239 828 q 483 886 393 886 m 431 1081 q 447 1125 431 1108 q 486 1142 463 1142 q 526 1125 510 1142 q 542 1081 542 1108 q 526 1035 542 1051 q 486 1019 510 1019 q 447 1035 463 1019 q 431 1081 431 1051 z "},"Ħ":{"ha":893,"x_min":28,"x_max":865,"o":"m 865 736 l 865 678 l 754 678 l 754 0 l 682 0 l 682 424 l 211 424 l 211 0 l 139 0 l 139 678 l 28 678 l 28 736 l 139 736 l 139 875 l 211 875 l 211 736 l 682 736 l 682 875 l 754 875 l 754 736 l 865 736 m 682 482 l 682 678 l 211 678 l 211 482 l 682 482 z "},"Ĥ":{"ha":838,"x_min":111,"x_max":726,"o":"m 111 0 l 111 875 l 183 875 l 183 482 l 654 482 l 654 875 l 726 875 l 726 0 l 654 0 l 654 424 l 183 424 l 183 0 l 111 0 m 385 1172 l 453 1172 l 626 986 l 543 986 l 418 1124 l 293 986 l 215 986 l 385 1172 z "},"Ĭ":{"ha":293,"x_min":-42,"x_max":332,"o":"m 183 875 l 183 0 l 111 0 l 111 875 l 183 875 m 25 1158 q 54 1074 26 1106 q 147 1042 82 1042 q 233 1072 201 1042 q 265 1158 264 1103 l 332 1158 q 285 1035 332 1083 q 147 986 238 986 q 62 1000 97 986 q 3 1038 26 1014 q -31 1094 -19 1063 q -42 1158 -42 1125 l 25 1158 z "},"İ":{"ha":350,"x_min":92,"x_max":203,"o":"m 183 875 l 183 0 l 111 0 l 111 875 l 183 875 m 92 1081 q 108 1125 92 1108 q 147 1142 124 1142 q 187 1125 171 1142 q 203 1081 203 1108 q 187 1035 203 1051 q 147 1019 171 1019 q 108 1035 124 1019 q 92 1081 92 1051 z "},"Ī":{"ha":293,"x_min":-22,"x_max":318,"o":"m 183 875 l 183 0 l 111 0 l 111 875 l 183 875 m 318 1072 l 318 1014 l -22 1014 l -22 1072 l 318 1072 z "},"Į":{"ha":293,"x_min":3,"x_max":263,"o":"m 183 0 q 99 -66 126 -33 q 71 -146 71 -99 q 100 -208 71 -186 q 175 -231 129 -231 q 219 -226 200 -231 q 251 -215 238 -222 l 263 -257 q 216 -277 243 -269 q 157 -285 189 -285 q 48 -251 93 -285 q 3 -151 3 -217 q 35 -60 3 -99 q 111 0 67 -22 l 111 875 l 183 875 l 183 0 z "},"Ĩ":{"ha":293,"x_min":-64,"x_max":357,"o":"m 183 875 l 183 0 l 111 0 l 111 875 l 183 875 m -64 993 q -35 1092 -64 1051 q 57 1132 -7 1132 q 110 1120 88 1132 q 151 1094 132 1108 q 190 1069 171 1081 q 233 1057 210 1057 q 284 1079 269 1057 q 301 1136 299 1101 l 357 1136 q 349 1085 357 1110 q 327 1042 342 1061 q 291 1013 313 1024 q 240 1001 269 1001 q 183 1013 208 1001 q 138 1039 158 1025 q 98 1065 117 1053 q 61 1076 79 1076 q 10 1051 25 1076 q -8 993 -6 1026 l -64 993 z "},"Ĳ":{"ha":622,"x_min":111,"x_max":522,"o":"m 183 875 l 183 0 l 111 0 l 111 875 l 183 875 m 522 875 l 522 144 q 513 7 522 58 q 476 -85 503 -44 q 431 -133 457 -114 q 376 -165 406 -153 q 316 -182 347 -176 q 256 -187 285 -187 l 256 -136 q 389 -92 338 -135 q 438 -12 425 -60 q 450 96 450 36 l 450 875 l 522 875 z "},"Ĵ":{"ha":346,"x_min":-21,"x_max":422,"o":"m 246 875 l 246 144 q 236 7 246 58 q 200 -85 226 -44 q 155 -133 181 -114 q 100 -165 129 -153 q 40 -182 71 -176 q -21 -187 8 -187 l -21 -136 q 113 -92 61 -135 q 161 -12 149 -60 q 174 96 174 36 l 174 875 l 246 875 m 181 1172 l 249 1172 l 422 986 l 339 986 l 214 1124 l 89 986 l 11 986 l 181 1172 z "},"Ķ":{"ha":732,"x_min":111,"x_max":725,"o":"m 111 0 l 111 875 l 183 875 l 183 424 l 599 875 l 690 875 l 333 492 l 725 0 l 632 0 l 285 442 l 183 332 l 183 0 l 111 0 m 386 -258 q 347 -237 363 -254 q 331 -192 331 -221 q 347 -150 331 -167 q 388 -133 363 -133 q 432 -152 410 -133 q 454 -225 454 -171 q 443 -286 454 -257 q 413 -341 432 -315 q 370 -387 394 -367 q 319 -421 346 -407 l 292 -382 q 360 -328 333 -361 q 393 -260 386 -294 l 386 -258 z "},"Ĺ":{"ha":607,"x_min":111,"x_max":586,"o":"m 113 875 l 185 875 l 185 58 l 586 58 l 586 0 l 113 0 l 113 875 m 169 986 l 111 986 l 236 1158 l 324 1158 l 169 986 z "},"Ľ":{"ha":606,"x_min":111,"x_max":585,"o":"m 111 875 l 183 875 l 183 58 l 585 58 l 585 0 l 111 0 l 111 875 m 442 867 q 402 888 418 871 q 386 933 386 904 q 402 975 386 958 q 443 992 418 992 q 488 973 465 992 q 510 900 510 954 q 499 839 510 868 q 469 784 488 810 q 426 738 450 758 q 375 704 401 718 l 347 743 q 415 797 389 764 q 449 865 442 831 l 442 867 z "},"Ļ":{"ha":606,"x_min":111,"x_max":585,"o":"m 111 875 l 183 875 l 183 58 l 585 58 l 585 0 l 111 0 l 111 875 m 361 -261 q 322 -240 338 -257 q 306 -194 306 -224 q 322 -153 306 -169 q 363 -136 338 -136 q 407 -155 385 -136 q 429 -228 429 -174 q 418 -289 429 -260 q 388 -344 407 -318 q 345 -390 369 -369 q 294 -424 321 -410 l 267 -385 q 335 -331 308 -364 q 368 -262 361 -297 l 361 -261 z "},"Ŀ":{"ha":606,"x_min":111,"x_max":585,"o":"m 111 875 l 183 875 l 183 58 l 585 58 l 585 0 l 111 0 l 111 875 m 367 460 q 383 504 367 488 q 422 521 399 521 q 462 504 446 521 q 478 460 478 488 q 462 415 478 431 q 422 399 446 399 q 383 415 399 399 q 367 460 367 431 z "},"Ł":{"ha":606,"x_min":-40,"x_max":585,"o":"m 426 682 l 464 636 l 183 400 l 183 58 l 585 58 l 585 0 l 111 0 l 111 353 l -3 260 l -40 306 l 111 432 l 111 875 l 183 875 l 183 478 l 426 682 z "},"Ń":{"ha":865,"x_min":111,"x_max":754,"o":"m 419 986 l 361 986 l 486 1158 l 574 1158 l 419 986 m 111 875 l 181 875 l 563 300 q 625 207 594 253 q 685 114 656 161 l 688 114 q 685 221 685 167 q 685 328 685 275 l 685 875 l 754 875 l 754 0 l 685 0 l 315 550 q 244 664 278 606 q 179 781 210 722 l 176 781 q 181 522 181 651 l 181 0 l 111 0 l 111 875 z "},"Ň":{"ha":865,"x_min":111,"x_max":754,"o":"m 258 1174 l 336 1174 l 461 1036 l 586 1174 l 669 1174 l 496 988 l 428 988 l 258 1174 m 111 875 l 181 875 l 563 300 q 625 207 594 253 q 685 114 656 161 l 688 114 q 685 221 685 167 q 685 328 685 275 l 685 875 l 754 875 l 754 0 l 685 0 l 315 550 q 244 664 278 606 q 179 781 210 722 l 176 781 q 181 522 181 651 l 181 0 l 111 0 l 111 875 z "},"Ņ":{"ha":865,"x_min":111,"x_max":754,"o":"m 444 -261 q 405 -240 421 -257 q 389 -194 389 -224 q 405 -153 389 -169 q 446 -136 421 -136 q 490 -155 468 -136 q 513 -228 513 -174 q 501 -289 513 -260 q 472 -344 490 -318 q 428 -390 453 -369 q 378 -424 404 -410 l 350 -385 q 418 -331 392 -364 q 451 -262 444 -297 l 444 -261 m 111 875 l 181 875 l 563 300 q 625 207 594 253 q 685 114 656 161 l 688 114 q 685 221 685 167 q 685 328 685 275 l 685 875 l 754 875 l 754 0 l 685 0 l 315 550 q 244 664 278 606 q 179 781 210 722 l 176 781 q 181 522 181 651 l 181 0 l 111 0 l 111 875 z "},"Ŏ":{"ha":897,"x_min":64,"x_max":833,"o":"m 451 886 q 600 858 531 886 q 722 774 669 831 q 803 634 774 718 q 833 438 833 550 q 803 244 833 328 q 719 104 772 161 q 596 18 667 47 q 446 -11 525 -11 q 297 17 367 -11 q 176 101 228 44 q 94 241 124 157 q 64 438 64 325 q 94 631 64 547 q 178 771 125 714 q 301 857 231 828 q 451 886 372 886 m 139 438 q 165 265 139 338 q 233 143 190 192 q 333 71 276 94 q 451 47 389 47 q 568 71 513 47 q 666 143 624 94 q 733 265 708 192 q 758 438 758 338 q 733 613 758 539 q 664 735 707 688 q 565 805 621 782 q 446 828 508 828 q 329 804 385 828 q 231 732 274 781 q 164 610 189 683 q 139 438 139 538 m 331 1158 q 358 1074 332 1106 q 449 1042 383 1042 q 536 1072 503 1042 q 571 1158 569 1103 l 638 1158 q 588 1035 638 1083 q 449 986 539 986 q 364 1000 399 986 q 307 1038 329 1014 q 274 1094 285 1063 q 264 1158 264 1125 l 331 1158 z "},"Ő":{"ha":897,"x_min":64,"x_max":833,"o":"m 500 986 l 625 1158 l 713 1158 l 558 986 l 500 986 m 264 986 l 389 1158 l 476 1158 l 322 986 l 264 986 m 64 438 q 94 631 64 547 q 178 771 125 714 q 301 857 231 828 q 451 886 372 886 q 600 858 531 886 q 722 774 669 831 q 803 634 774 718 q 833 438 833 550 q 803 244 833 328 q 719 104 772 161 q 596 18 667 47 q 446 -11 525 -11 q 297 17 367 -11 q 176 101 228 44 q 94 241 124 157 q 64 438 64 325 m 446 828 q 329 804 385 828 q 231 732 274 781 q 164 610 189 683 q 139 438 139 538 q 165 265 139 338 q 233 143 190 192 q 333 71 276 94 q 451 47 389 47 q 568 71 513 47 q 666 143 624 94 q 733 265 708 192 q 758 438 758 338 q 733 613 758 539 q 664 735 707 688 q 565 805 621 782 q 446 828 508 828 z "},"Ō":{"ha":897,"x_min":64,"x_max":833,"o":"m 451 886 q 600 858 531 886 q 722 774 669 831 q 803 634 774 718 q 833 438 833 550 q 803 244 833 328 q 719 104 772 161 q 596 18 667 47 q 446 -11 525 -11 q 297 17 367 -11 q 176 101 228 44 q 94 241 124 157 q 64 438 64 325 q 94 631 64 547 q 178 771 125 714 q 301 857 231 828 q 451 886 372 886 m 139 438 q 165 265 139 338 q 233 143 190 192 q 333 71 276 94 q 451 47 389 47 q 568 71 513 47 q 666 143 624 94 q 733 265 708 192 q 758 438 758 338 q 733 613 758 539 q 664 735 707 688 q 565 805 621 782 q 446 828 508 828 q 329 804 385 828 q 231 732 274 781 q 164 610 189 683 q 139 438 139 538 m 617 1072 l 617 1014 l 276 1014 l 276 1072 l 617 1072 z "},"Ǿ":{"ha":897,"x_min":64,"x_max":833,"o":"m 418 986 l 360 986 l 485 1158 l 572 1158 l 418 986 m 678 1046 l 725 1028 l 647 833 q 782 685 731 783 q 833 438 833 586 q 803 244 833 328 q 719 104 772 161 q 596 18 667 47 q 446 -11 525 -11 q 317 10 376 -11 l 232 -203 l 183 -183 l 268 29 q 120 179 176 78 q 64 438 64 281 q 94 631 64 547 q 178 771 125 714 q 301 857 231 828 q 451 886 372 886 q 601 857 532 886 l 678 1046 m 139 438 q 182 220 139 306 q 293 92 225 135 l 578 799 q 446 828 517 828 q 329 804 385 828 q 231 732 274 781 q 164 610 189 683 q 139 438 139 538 m 451 47 q 568 71 513 47 q 666 143 624 94 q 733 265 708 192 q 758 438 758 338 q 721 645 758 563 q 622 772 683 728 l 340 68 q 451 47 392 47 z "},"Ŕ":{"ha":722,"x_min":111,"x_max":697,"o":"m 111 875 l 367 875 q 487 857 435 875 q 574 807 539 839 q 626 731 608 775 q 644 632 644 686 q 628 541 644 582 q 586 469 613 500 q 525 416 560 438 q 453 385 490 394 l 697 0 l 614 0 l 386 371 l 176 371 l 176 0 l 111 0 l 111 875 m 176 429 l 338 429 q 431 442 388 429 q 504 479 474 454 q 552 542 535 504 q 569 629 569 579 q 511 773 569 729 q 339 817 453 817 l 176 817 l 176 429 m 321 986 l 263 986 l 388 1158 l 475 1158 l 321 986 z "},"Ř":{"ha":722,"x_min":111,"x_max":697,"o":"m 111 875 l 367 875 q 487 857 435 875 q 574 807 539 839 q 626 731 608 775 q 644 632 644 686 q 628 541 644 582 q 586 469 613 500 q 525 416 560 438 q 453 385 490 394 l 697 0 l 614 0 l 386 371 l 176 371 l 176 0 l 111 0 l 111 875 m 176 429 l 338 429 q 431 442 388 429 q 504 479 474 454 q 552 542 535 504 q 569 629 569 579 q 511 773 569 729 q 339 817 453 817 l 176 817 l 176 429 m 136 1174 l 214 1174 l 339 1036 l 464 1174 l 547 1174 l 374 988 l 306 988 l 136 1174 z "},"Ŗ":{"ha":722,"x_min":111,"x_max":697,"o":"m 111 875 l 367 875 q 487 857 435 875 q 574 807 539 839 q 626 731 608 775 q 644 632 644 686 q 628 541 644 582 q 586 469 613 500 q 525 416 560 438 q 453 385 490 394 l 697 0 l 614 0 l 386 371 l 176 371 l 176 0 l 111 0 l 111 875 m 176 429 l 338 429 q 431 442 388 429 q 504 479 474 454 q 552 542 535 504 q 569 629 569 579 q 511 773 569 729 q 339 817 453 817 l 176 817 l 176 429 m 389 -261 q 349 -240 365 -257 q 333 -194 333 -224 q 349 -153 333 -169 q 390 -136 365 -136 q 435 -155 413 -136 q 457 -228 457 -174 q 446 -289 457 -260 q 416 -344 435 -318 q 373 -390 397 -369 q 322 -424 349 -410 l 294 -385 q 363 -331 336 -364 q 396 -262 389 -297 l 389 -261 z "},"Ś":{"ha":671,"x_min":64,"x_max":606,"o":"m 342 886 q 457 874 401 886 q 568 836 513 863 l 549 779 q 442 817 490 807 q 344 828 394 828 q 197 785 253 828 q 140 668 140 743 q 183 559 140 599 q 313 490 226 519 l 411 457 q 556 365 507 425 q 606 226 606 304 q 529 53 606 117 q 322 -11 453 -11 q 191 1 256 -11 q 64 44 126 14 l 85 104 q 198 62 142 75 q 317 49 254 49 q 470 90 410 49 q 531 218 531 132 q 522 274 531 247 q 494 324 514 300 q 439 368 474 347 q 351 407 404 389 l 257 438 q 182 470 217 450 q 121 517 147 490 q 80 579 94 544 q 65 657 65 614 q 138 824 65 763 q 342 886 210 886 m 307 986 l 249 986 l 374 1158 l 461 1158 l 307 986 z "},"Ş":{"ha":671,"x_min":64,"x_max":606,"o":"m 342 886 q 457 874 401 886 q 568 836 513 863 l 549 779 q 442 817 490 807 q 344 828 394 828 q 197 785 253 828 q 140 668 140 743 q 183 559 140 599 q 313 490 226 519 l 411 457 q 556 365 507 425 q 606 226 606 304 q 534 58 606 121 q 340 -11 463 -6 l 317 -65 q 384 -74 356 -65 q 431 -99 413 -83 q 458 -133 449 -114 q 467 -174 467 -153 q 419 -265 467 -232 q 299 -297 371 -297 q 240 -292 267 -297 q 196 -281 213 -287 l 208 -236 q 248 -245 226 -242 q 289 -249 269 -249 q 371 -228 344 -249 q 397 -176 397 -208 q 392 -150 397 -162 q 369 -128 386 -137 q 322 -114 353 -119 q 243 -108 292 -108 l 289 -10 q 174 5 231 -7 q 64 44 118 17 l 85 104 q 198 62 142 75 q 317 49 254 49 q 470 90 410 49 q 531 218 531 132 q 522 274 531 247 q 494 324 514 300 q 439 368 474 347 q 351 407 404 389 l 257 438 q 182 470 217 450 q 121 517 147 490 q 80 579 94 544 q 65 657 65 614 q 138 824 65 763 q 342 886 210 886 z "},"Ŝ":{"ha":671,"x_min":64,"x_max":606,"o":"m 342 886 q 457 874 401 886 q 568 836 513 863 l 549 779 q 442 817 490 807 q 344 828 394 828 q 197 785 253 828 q 140 668 140 743 q 183 559 140 599 q 313 490 226 519 l 411 457 q 556 365 507 425 q 606 226 606 304 q 529 53 606 117 q 322 -11 453 -11 q 191 1 256 -11 q 64 44 126 14 l 85 104 q 198 62 142 75 q 317 49 254 49 q 470 90 410 49 q 531 218 531 132 q 522 274 531 247 q 494 324 514 300 q 439 368 474 347 q 351 407 404 389 l 257 438 q 182 470 217 450 q 121 517 147 490 q 80 579 94 544 q 65 657 65 614 q 138 824 65 763 q 342 886 210 886 m 303 1172 l 371 1172 l 544 986 l 461 986 l 336 1124 l 211 986 l 133 986 l 303 1172 z "},"Ș":{"ha":671,"x_min":64,"x_max":606,"o":"m 549 779 q 442 817 490 807 q 344 828 394 828 q 197 785 253 828 q 140 668 140 743 q 158 592 140 622 q 210 538 175 561 q 294 497 244 515 q 411 457 344 479 q 556 365 507 425 q 606 226 606 304 q 529 53 606 117 q 322 -11 453 -11 q 191 1 256 -11 q 64 44 126 14 l 85 104 q 198 62 142 75 q 317 49 254 49 q 403 59 364 49 q 470 90 442 69 q 515 143 499 111 q 531 218 531 175 q 519 287 531 257 q 476 342 507 317 q 393 390 446 367 q 257 438 340 413 q 182 470 217 450 q 121 517 147 490 q 80 579 94 544 q 65 657 65 614 q 138 824 65 763 q 342 886 210 886 q 457 874 401 886 q 568 836 513 863 l 549 779 m 324 -261 q 284 -240 300 -257 q 268 -194 268 -224 q 284 -153 268 -169 q 325 -136 300 -136 q 369 -155 347 -136 q 392 -228 392 -174 q 381 -289 392 -260 q 351 -344 369 -318 q 308 -390 332 -369 q 257 -424 283 -410 l 229 -385 q 297 -331 271 -364 q 331 -262 324 -297 l 324 -261 z "},"Ŧ":{"ha":696,"x_min":14,"x_max":683,"o":"m 549 486 l 549 428 l 382 428 l 382 0 l 310 0 l 310 428 l 143 428 l 143 486 l 310 486 l 310 817 l 14 817 l 14 875 l 683 875 l 683 817 l 382 817 l 382 486 l 549 486 z "},"Ť":{"ha":696,"x_min":14,"x_max":683,"o":"m 683 875 l 683 817 l 382 817 l 382 0 l 310 0 l 310 817 l 14 817 l 14 875 l 683 875 m 136 1174 l 214 1174 l 339 1036 l 464 1174 l 547 1174 l 374 988 l 306 988 l 136 1174 z "},"Ţ":{"ha":696,"x_min":14,"x_max":683,"o":"m 683 875 l 683 817 l 382 817 l 382 0 l 310 0 l 310 817 l 14 817 l 14 875 l 683 875 m 342 -261 q 302 -240 318 -257 q 286 -194 286 -224 q 302 -153 286 -169 q 343 -136 318 -136 q 388 -155 365 -136 q 410 -228 410 -174 q 399 -289 410 -260 q 369 -344 388 -318 q 326 -390 350 -369 q 275 -424 301 -410 l 247 -385 q 315 -331 289 -364 q 349 -262 342 -297 l 342 -261 z "},"Ŭ":{"ha":850,"x_min":108,"x_max":742,"o":"m 108 875 l 181 875 l 181 351 q 243 118 181 189 q 433 47 306 47 q 542 68 497 47 q 615 127 586 89 q 656 218 643 165 q 669 335 669 271 l 669 875 l 742 875 l 742 339 q 663 74 742 158 q 433 -11 583 -11 q 196 74 283 -11 q 108 346 108 158 l 108 875 m 311 1158 q 340 1074 313 1106 q 433 1042 368 1042 q 519 1072 488 1042 q 551 1158 550 1103 l 618 1158 q 571 1035 618 1083 q 433 986 524 986 q 348 1000 383 986 q 290 1038 313 1014 q 256 1094 267 1063 q 244 1158 244 1125 l 311 1158 z "},"Ű":{"ha":850,"x_min":108,"x_max":742,"o":"m 108 875 l 181 875 l 181 351 q 243 118 181 189 q 433 47 306 47 q 542 68 497 47 q 615 127 586 89 q 656 218 643 165 q 669 335 669 271 l 669 875 l 742 875 l 742 339 q 663 74 742 158 q 433 -11 583 -11 q 196 74 283 -11 q 108 346 108 158 l 108 875 m 293 986 l 235 986 l 360 1158 l 447 1158 l 293 986 m 529 986 l 471 986 l 596 1158 l 683 1158 l 529 986 z "},"Ū":{"ha":850,"x_min":108,"x_max":742,"o":"m 108 875 l 181 875 l 181 351 q 243 118 181 189 q 433 47 306 47 q 542 68 497 47 q 615 127 586 89 q 656 218 643 165 q 669 335 669 271 l 669 875 l 742 875 l 742 339 q 663 74 742 158 q 433 -11 583 -11 q 196 74 283 -11 q 108 346 108 158 l 108 875 m 604 1072 l 604 1014 l 264 1014 l 264 1072 l 604 1072 z "},"Ų":{"ha":850,"x_min":108,"x_max":742,"o":"m 108 875 l 181 875 l 181 351 q 243 118 181 189 q 433 47 306 47 q 542 68 497 47 q 615 127 586 89 q 656 218 643 165 q 669 335 669 271 l 669 875 l 742 875 l 742 339 q 676 91 742 175 q 488 -7 611 7 q 405 -72 435 -37 q 375 -147 375 -106 q 401 -209 375 -187 q 476 -231 428 -231 q 520 -226 500 -231 q 554 -214 540 -221 l 567 -257 q 456 -286 518 -286 q 349 -251 392 -286 q 307 -151 307 -217 q 336 -68 307 -104 q 401 -10 365 -32 q 187 83 265 -3 q 108 346 108 168 l 108 875 z "},"Ů":{"ha":850,"x_min":108,"x_max":742,"o":"m 108 875 l 181 875 l 181 351 q 243 118 181 189 q 433 47 306 47 q 542 68 497 47 q 615 127 586 89 q 656 218 643 165 q 669 335 669 271 l 669 875 l 742 875 l 742 339 q 663 74 742 158 q 433 -11 583 -11 q 196 74 283 -11 q 108 346 108 158 l 108 875 m 304 1056 q 342 1142 304 1114 q 433 1171 381 1171 q 524 1142 486 1171 q 563 1056 563 1114 q 524 969 563 997 q 433 940 485 940 q 342 970 381 940 q 304 1056 304 1000 m 360 1056 q 379 999 360 1019 q 433 979 399 979 q 488 999 468 979 q 507 1056 507 1019 q 487 1112 507 1092 q 433 1132 467 1132 q 380 1112 400 1132 q 360 1056 360 1092 z "},"Ũ":{"ha":850,"x_min":108,"x_max":742,"o":"m 108 875 l 181 875 l 181 351 q 243 118 181 189 q 433 47 306 47 q 542 68 497 47 q 615 127 586 89 q 656 218 643 165 q 669 335 669 271 l 669 875 l 742 875 l 742 339 q 663 74 742 158 q 433 -11 583 -11 q 196 74 283 -11 q 108 346 108 158 l 108 875 m 224 993 q 252 1092 224 1051 q 344 1132 281 1132 q 397 1120 375 1132 q 439 1094 419 1108 q 478 1069 458 1081 q 521 1057 497 1057 q 572 1079 557 1057 q 589 1136 586 1101 l 644 1136 q 637 1085 644 1110 q 615 1042 629 1061 q 578 1013 600 1024 q 528 1001 557 1001 q 471 1013 496 1001 q 425 1039 446 1025 q 385 1065 404 1053 q 349 1076 367 1076 q 297 1051 313 1076 q 279 993 282 1026 l 224 993 z "},"Ẃ":{"ha":1114,"x_min":11,"x_max":1103,"o":"m 582 986 l 524 986 l 649 1158 l 736 1158 l 582 986 m 86 875 l 231 360 q 267 224 250 292 q 299 86 285 156 l 301 86 q 335 224 317 156 q 374 360 354 292 l 524 875 l 592 875 l 744 360 q 783 223 764 290 q 819 86 803 156 l 822 86 q 853 223 838 156 q 889 360 869 290 l 1029 875 l 1103 875 l 857 0 l 783 0 l 614 586 q 585 687 599 636 q 558 789 571 738 l 556 789 q 530 688 543 738 q 501 586 517 638 l 336 0 l 264 0 l 11 875 l 86 875 z "},"Ŵ":{"ha":1114,"x_min":11,"x_max":1103,"o":"m 524 1172 l 592 1172 l 765 986 l 682 986 l 557 1124 l 432 986 l 354 986 l 524 1172 m 86 875 l 231 360 q 267 224 250 292 q 299 86 285 156 l 301 86 q 335 224 317 156 q 374 360 354 292 l 524 875 l 592 875 l 744 360 q 783 223 764 290 q 819 86 803 156 l 822 86 q 853 223 838 156 q 889 360 869 290 l 1029 875 l 1103 875 l 857 0 l 783 0 l 614 586 q 585 687 599 636 q 558 789 571 738 l 556 789 q 530 688 543 738 q 501 586 517 638 l 336 0 l 264 0 l 11 875 l 86 875 z "},"Ẅ":{"ha":1110,"x_min":11,"x_max":1103,"o":"m 382 1064 q 398 1108 382 1092 q 438 1125 414 1125 q 477 1108 461 1125 q 493 1064 493 1092 q 477 1019 493 1035 q 438 1003 461 1003 q 398 1019 414 1003 q 382 1064 382 1035 m 618 1064 q 634 1108 618 1092 q 674 1125 650 1125 q 713 1108 697 1125 q 729 1064 729 1092 q 713 1019 729 1035 q 674 1003 697 1003 q 634 1019 650 1003 q 618 1064 618 1035 m 86 875 l 231 360 q 267 224 250 292 q 299 86 285 156 l 301 86 q 335 224 317 156 q 374 360 354 292 l 524 875 l 592 875 l 744 360 q 783 223 764 290 q 819 86 803 156 l 822 86 q 853 223 838 156 q 889 360 869 290 l 1029 875 l 1103 875 l 857 0 l 783 0 l 614 586 q 585 687 599 636 q 558 789 571 738 l 556 789 q 530 688 543 738 q 501 586 517 638 l 336 0 l 264 0 l 11 875 l 86 875 z "},"Ẁ":{"ha":1110,"x_min":11,"x_max":1103,"o":"m 379 1158 l 467 1158 l 592 986 l 533 986 l 379 1158 m 86 875 l 231 360 q 267 224 250 292 q 299 86 285 156 l 301 86 q 335 224 317 156 q 374 360 354 292 l 524 875 l 592 875 l 744 360 q 783 223 764 290 q 819 86 803 156 l 822 86 q 853 223 838 156 q 889 360 869 290 l 1029 875 l 1103 875 l 857 0 l 783 0 l 614 586 q 585 687 599 636 q 558 789 571 738 l 556 789 q 530 688 543 738 q 501 586 517 638 l 336 0 l 264 0 l 11 875 l 86 875 z "},"Ŷ":{"ha":671,"x_min":0,"x_max":671,"o":"m 85 875 l 333 440 l 583 875 l 671 875 l 368 367 l 368 0 l 296 0 l 296 367 l 0 875 l 85 875 m 301 1172 l 369 1172 l 543 986 l 460 986 l 335 1124 l 210 986 l 132 986 l 301 1172 z "},"Ỳ":{"ha":671,"x_min":0,"x_max":671,"o":"m 85 875 l 333 440 l 583 875 l 671 875 l 368 367 l 368 0 l 296 0 l 296 367 l 0 875 l 85 875 m 208 1158 l 296 1158 l 421 986 l 363 986 l 208 1158 z "},"Ź":{"ha":703,"x_min":36,"x_max":661,"o":"m 654 875 l 654 831 l 125 58 l 661 58 l 661 0 l 36 0 l 36 47 l 563 817 l 57 817 l 57 875 l 654 875 m 333 986 l 275 986 l 400 1158 l 488 1158 l 333 986 z "},"Ż":{"ha":703,"x_min":36,"x_max":661,"o":"m 654 875 l 654 831 l 125 58 l 661 58 l 661 0 l 36 0 l 36 47 l 563 817 l 57 817 l 57 875 l 654 875 m 292 1081 q 308 1125 292 1108 q 347 1142 324 1142 q 387 1125 371 1142 q 403 1081 403 1108 q 387 1035 403 1051 q 347 1019 371 1019 q 308 1035 324 1019 q 292 1081 292 1051 z "},"⁄":{"ha":588,"x_min":-21,"x_max":608,"o":"m -21 -12 l 546 888 l 608 888 l 42 -12 l -21 -12 z "},"₨":{"ha":694,"x_min":-14,"x_max":611,"o":"m 28 581 l 28 639 l 347 639 q 315 735 340 683 q 256 822 289 786 l -14 822 l -14 875 l 611 875 l 611 822 l 343 822 q 394 747 367 799 q 431 639 421 696 l 569 639 l 569 581 l 436 581 q 415 490 435 532 q 358 418 394 449 q 270 371 322 388 q 154 356 218 354 l 424 31 l 361 -14 l 167 242 q 110 310 135 282 q 69 356 86 338 q 35 389 50 376 l 56 432 q 149 419 93 419 q 292 465 238 419 q 351 581 346 511 l 28 581 z "},"":{"ha":568,"x_min":1,"x_max":568,"o":"m 253 653 l 321 653 l 568 0 l 496 0 l 426 183 l 140 183 l 72 0 l 1 0 l 253 653 m 285 571 q 263 510 274 539 q 246 463 253 482 l 161 238 l 407 238 l 324 463 q 307 509 318 476 q 288 571 296 542 l 285 571 z "},"":{"ha":588,"x_min":94,"x_max":535,"o":"m 307 653 q 456 608 403 653 q 508 492 508 564 q 476 402 508 439 q 394 349 444 365 q 497 297 458 336 q 535 190 535 257 q 520 117 535 151 q 477 56 506 82 q 406 15 449 31 q 306 0 363 0 l 94 0 l 94 653 l 307 653 m 161 367 l 289 367 q 401 399 364 367 q 439 485 439 432 q 401 570 439 540 q 278 600 364 600 l 161 600 l 161 367 m 161 53 l 276 53 q 415 85 364 53 q 465 194 465 117 q 456 239 465 217 q 428 278 447 261 q 378 305 408 294 q 306 315 349 315 l 161 315 l 161 53 z "},"":{"ha":579,"x_min":53,"x_max":544,"o":"m 381 39 q 461 49 425 39 q 529 74 497 58 l 544 26 q 466 -2 507 7 q 372 -11 425 -11 q 249 10 307 -11 q 148 72 192 31 q 78 177 104 114 q 53 325 53 240 q 76 465 53 403 q 143 572 100 528 q 244 638 186 615 q 371 661 301 661 q 460 653 417 661 q 542 626 503 644 l 525 575 q 453 599 492 592 q 379 606 415 606 q 275 586 322 606 q 194 531 228 567 q 141 443 160 494 q 122 329 122 392 q 145 190 122 246 q 205 101 168 135 q 288 53 242 68 q 381 39 333 39 z "},"":{"ha":661,"x_min":94,"x_max":608,"o":"m 265 653 q 394 636 332 653 q 503 582 456 619 q 580 485 551 544 q 608 342 608 426 q 581 188 608 253 q 507 82 554 124 q 395 20 460 40 q 257 0 331 0 l 94 0 l 94 653 l 265 653 m 161 53 l 229 53 q 331 63 276 53 q 432 102 386 72 q 508 188 478 132 q 539 338 539 244 q 229 600 539 600 l 161 600 l 161 53 z "},"":{"ha":544,"x_min":94,"x_max":496,"o":"m 94 653 l 493 653 l 493 600 l 161 600 l 161 364 l 469 364 l 469 313 l 161 313 l 161 53 l 496 53 l 496 0 l 94 0 l 94 653 z "},"":{"ha":515,"x_min":94,"x_max":467,"o":"m 467 653 l 467 600 l 161 600 l 161 354 l 442 354 l 442 301 l 161 301 l 161 0 l 94 0 l 94 653 l 467 653 z "},"":{"ha":658,"x_min":54,"x_max":589,"o":"m 399 42 q 469 47 432 42 q 529 64 506 53 l 529 285 l 368 285 l 368 333 l 589 333 l 589 28 q 499 -1 549 8 q 394 -11 449 -11 q 262 10 324 -11 q 154 72 200 31 q 81 177 108 114 q 54 325 54 240 q 79 465 54 403 q 149 572 104 528 q 255 638 193 615 q 392 661 317 661 q 480 656 435 661 q 565 632 525 650 l 550 581 q 479 601 514 594 q 399 607 444 607 q 198 535 272 607 q 124 329 124 463 q 147 191 124 246 q 209 103 171 136 q 297 56 247 69 q 399 42 346 42 z "},"":{"ha":656,"x_min":94,"x_max":561,"o":"m 94 0 l 94 653 l 161 653 l 161 369 l 494 369 l 494 653 l 561 653 l 561 0 l 494 0 l 494 317 l 161 317 l 161 0 l 94 0 z "},"":{"ha":256,"x_min":94,"x_max":161,"o":"m 161 653 l 161 0 l 94 0 l 94 653 l 161 653 z "},"":{"ha":296,"x_min":0,"x_max":201,"o":"m 201 653 l 201 79 q 199 14 201 43 q 192 -39 197 -15 q 179 -83 188 -62 q 157 -124 171 -104 q 122 -160 142 -146 q 81 -182 103 -174 q 39 -193 60 -190 q 0 -196 18 -196 l 0 -143 q 60 -131 29 -143 q 110 -85 92 -118 q 130 -17 125 -56 q 135 53 135 22 l 135 653 l 201 653 z "},"":{"ha":569,"x_min":94,"x_max":563,"o":"m 94 0 l 94 653 l 161 653 l 161 328 l 450 653 l 539 653 l 278 368 l 563 0 l 471 0 l 232 319 l 161 242 l 161 0 l 94 0 z "},"":{"ha":481,"x_min":94,"x_max":475,"o":"m 94 653 l 161 653 l 161 53 l 475 53 l 475 0 l 94 0 l 94 653 z "},"":{"ha":842,"x_min":81,"x_max":761,"o":"m 149 653 l 219 653 l 386 174 q 403 123 393 154 q 419 64 413 92 l 422 64 q 439 124 429 92 q 456 172 449 156 l 619 653 l 693 653 l 761 0 l 693 0 l 656 376 q 647 474 650 425 q 643 561 644 524 l 642 561 q 615 473 631 522 q 583 376 600 424 l 453 0 l 386 0 l 254 376 q 224 468 239 424 q 196 561 208 513 l 194 561 q 191 469 194 515 q 183 376 188 424 l 146 0 l 81 0 l 149 653 z "},"":{"ha":699,"x_min":94,"x_max":604,"o":"m 94 653 l 160 653 l 454 225 l 539 99 l 540 99 q 538 173 539 136 q 538 246 538 210 l 538 653 l 604 653 l 604 0 l 539 0 l 256 413 q 203 492 228 453 q 160 568 178 532 l 157 568 q 161 392 161 478 l 161 0 l 94 0 l 94 653 z "},"":{"ha":717,"x_min":53,"x_max":664,"o":"m 664 333 q 640 187 664 251 q 574 78 615 122 q 476 12 532 35 q 356 -11 419 -11 q 235 10 290 -11 q 140 74 181 32 q 76 177 99 115 q 53 319 53 239 q 76 465 53 401 q 142 573 100 529 q 240 639 183 617 q 361 661 296 661 q 481 640 425 661 q 577 578 536 619 q 641 475 618 536 q 664 333 664 414 m 592 326 q 572 456 592 403 q 519 542 551 508 q 444 590 486 575 q 357 606 401 606 q 271 591 313 606 q 197 544 229 576 q 144 458 164 511 q 125 326 125 404 q 145 197 125 250 q 198 109 165 143 q 273 60 231 75 q 360 44 315 44 q 446 60 404 44 q 520 108 488 75 q 572 195 553 142 q 592 326 592 249 z "},"":{"ha":556,"x_min":96,"x_max":521,"o":"m 96 653 l 299 653 q 385 640 344 653 q 455 603 425 628 q 503 544 485 579 q 521 465 521 510 q 496 364 521 403 q 431 303 471 325 q 343 274 392 282 q 247 267 294 267 l 163 267 l 163 0 l 96 0 l 96 653 m 161 319 l 251 319 q 323 326 288 319 q 387 347 358 332 q 433 390 415 363 q 451 461 451 418 q 434 531 451 504 q 389 574 417 558 q 326 594 361 589 q 256 600 290 600 l 161 600 l 161 319 z "},"":{"ha":732,"x_min":53,"x_max":718,"o":"m 392 -11 q 442 -29 417 -17 q 492 -54 467 -42 q 547 -76 518 -67 q 611 -86 576 -86 q 659 -79 639 -86 q 694 -61 679 -72 l 718 -108 q 671 -132 700 -122 q 607 -142 642 -142 q 526 -129 563 -142 q 458 -101 490 -117 q 394 -74 425 -86 q 326 -61 363 -61 q 252 -75 286 -61 q 186 -110 218 -89 l 156 -61 q 216 -24 181 -40 q 282 -6 251 -8 l 282 -3 q 117 99 181 18 q 53 319 53 181 q 76 465 53 401 q 142 573 100 529 q 240 639 183 617 q 361 661 296 661 q 481 640 425 661 q 577 578 536 619 q 641 475 618 536 q 664 333 664 414 q 643 196 664 257 q 585 92 622 135 q 499 23 549 49 q 392 -8 450 -3 l 392 -11 m 592 326 q 572 456 592 403 q 519 542 551 508 q 444 590 486 575 q 357 606 401 606 q 271 591 313 606 q 197 544 229 576 q 144 458 164 511 q 125 326 125 404 q 144 196 125 250 q 196 108 164 142 q 269 58 228 74 q 356 42 311 42 q 442 57 400 42 q 518 106 485 72 q 572 194 551 140 q 592 326 592 249 z "},"":{"ha":569,"x_min":94,"x_max":535,"o":"m 94 653 l 297 653 q 381 642 342 653 q 451 606 421 631 q 499 546 482 582 q 517 460 517 510 q 505 397 517 426 q 474 343 493 367 q 427 302 454 319 q 371 275 400 285 l 535 0 l 454 0 l 307 263 l 161 263 l 161 0 l 94 0 l 94 653 m 160 315 l 263 315 q 399 352 350 315 q 447 458 447 389 q 400 571 447 542 q 274 600 353 600 l 160 600 l 160 315 z "},"":{"ha":547,"x_min":53,"x_max":494,"o":"m 446 567 q 365 597 404 588 q 290 606 325 606 q 167 576 210 606 q 124 494 124 547 q 131 455 124 472 q 155 423 138 438 q 201 396 172 408 q 275 369 231 383 l 317 357 q 449 288 404 331 q 494 175 494 246 q 433 39 494 89 q 258 -11 371 -11 q 146 0 200 -11 q 53 31 92 11 l 69 85 q 156 55 106 65 q 251 44 206 44 q 378 76 331 44 q 425 171 425 108 q 417 215 425 196 q 389 248 408 233 q 339 276 369 263 q 263 303 308 289 l 218 317 q 99 381 143 340 q 54 492 54 422 q 71 562 54 531 q 117 615 88 593 q 188 649 147 638 q 276 661 228 661 q 370 652 321 661 q 464 622 419 643 l 446 567 z "},"":{"ha":536,"x_min":7,"x_max":531,"o":"m 531 653 l 531 600 l 300 600 l 300 0 l 233 0 l 233 600 l 7 600 l 7 653 l 531 653 z "},"":{"ha":729,"x_min":94,"x_max":635,"o":"m 94 653 l 161 653 l 161 313 q 176 177 161 229 q 219 96 192 125 q 286 56 247 67 q 372 44 325 44 q 516 103 464 44 q 568 299 568 161 l 568 653 l 635 653 l 635 308 q 567 67 635 146 q 369 -11 500 -11 q 164 66 233 -11 q 94 307 94 143 l 94 653 z "},"":{"ha":561,"x_min":4,"x_max":558,"o":"m 78 653 l 219 260 q 250 172 233 221 q 281 78 267 124 l 282 78 q 311 172 294 124 q 343 260 328 219 l 486 653 l 558 653 l 313 0 l 246 0 l 4 653 l 78 653 z "},"":{"ha":840,"x_min":6,"x_max":836,"o":"m 75 653 l 183 269 q 206 181 194 226 q 228 92 218 136 l 231 92 q 253 183 240 136 q 278 269 265 229 l 397 653 l 447 653 l 569 269 q 596 183 585 225 q 618 92 607 140 l 621 92 q 640 181 631 138 q 663 269 650 225 l 768 653 l 836 653 l 653 0 l 592 0 l 457 439 q 438 501 446 472 q 422 561 429 529 l 421 561 q 406 501 414 529 q 388 439 399 472 l 256 0 l 194 0 l 6 653 l 75 653 z "},"":{"ha":549,"x_min":4,"x_max":543,"o":"m 314 331 l 543 0 l 460 0 l 347 164 l 269 285 l 194 168 l 83 0 l 4 0 l 231 331 l 14 653 l 96 653 l 221 463 l 275 372 l 332 471 l 450 653 l 528 653 l 314 331 z "},"":{"ha":508,"x_min":3,"x_max":507,"o":"m 79 653 l 253 322 l 432 653 l 507 653 l 282 264 l 282 0 l 219 0 l 219 264 l 3 653 l 79 653 z "},"":{"ha":557,"x_min":33,"x_max":522,"o":"m 515 613 l 117 53 l 522 53 l 522 0 l 33 0 l 33 47 l 426 599 l 54 599 l 54 653 l 515 653 l 515 613 z "},"ă":{"ha":638,"x_min":50,"x_max":546,"o":"m 90 596 q 210 646 156 631 q 328 661 265 661 q 412 649 372 661 q 481 608 451 636 q 528 535 511 581 q 546 425 546 490 l 546 0 l 496 0 l 481 86 l 478 86 q 383 13 438 38 q 263 -11 329 -11 q 178 2 217 -11 q 110 40 139 15 q 66 101 82 65 q 50 179 50 136 q 71 269 50 231 q 129 334 92 308 q 219 372 167 360 q 335 385 271 385 l 474 385 l 474 428 q 432 563 474 522 q 324 603 390 603 q 231 590 283 603 q 118 544 178 578 l 90 596 m 474 328 l 358 326 q 251 313 296 325 q 178 283 207 301 q 138 238 150 264 q 125 183 125 213 q 138 122 125 147 q 171 79 150 96 q 220 55 192 63 q 281 47 249 47 q 332 53 306 47 q 384 73 358 60 q 433 106 410 86 q 474 156 457 126 l 474 328 m 206 944 q 235 860 207 892 q 328 828 263 828 q 413 858 382 828 q 446 944 444 889 l 513 944 q 465 821 513 869 q 328 772 418 772 q 242 786 278 772 q 184 824 207 800 q 150 880 161 849 q 139 944 139 911 l 206 944 z "},"ā":{"ha":638,"x_min":50,"x_max":546,"o":"m 90 596 q 210 646 156 631 q 328 661 265 661 q 412 649 372 661 q 481 608 451 636 q 528 535 511 581 q 546 425 546 490 l 546 0 l 496 0 l 481 86 l 478 86 q 383 13 438 38 q 263 -11 329 -11 q 178 2 217 -11 q 110 40 139 15 q 66 101 82 65 q 50 179 50 136 q 71 269 50 231 q 129 334 92 308 q 219 372 167 360 q 335 385 271 385 l 474 385 l 474 428 q 432 563 474 522 q 324 603 390 603 q 231 590 283 603 q 118 544 178 578 l 90 596 m 474 328 l 358 326 q 251 313 296 325 q 178 283 207 301 q 138 238 150 264 q 125 183 125 213 q 138 122 125 147 q 171 79 150 96 q 220 55 192 63 q 281 47 249 47 q 332 53 306 47 q 384 73 358 60 q 433 106 410 86 q 474 156 457 126 l 474 328 m 486 906 l 486 850 l 174 850 l 174 906 l 486 906 z "},"ą":{"ha":638,"x_min":50,"x_max":614,"o":"m 546 0 q 468 -60 500 -24 q 436 -146 436 -97 q 461 -208 436 -186 q 526 -231 486 -231 q 570 -226 551 -231 q 603 -215 589 -222 l 614 -257 q 567 -277 593 -269 q 508 -285 540 -285 q 409 -251 450 -285 q 368 -151 368 -217 q 401 -59 368 -99 q 492 4 435 -19 l 481 86 l 478 86 q 383 13 438 38 q 263 -11 329 -11 q 178 2 217 -11 q 110 40 139 15 q 66 101 82 65 q 50 179 50 136 q 71 269 50 231 q 129 334 92 308 q 219 372 167 360 q 335 385 271 385 l 474 385 l 474 428 q 432 563 474 522 q 324 603 390 603 q 231 590 283 603 q 118 544 178 578 l 90 596 q 210 646 156 631 q 328 661 265 661 q 412 649 372 661 q 481 608 451 636 q 528 535 511 581 q 546 425 546 490 l 546 0 m 474 328 l 358 326 q 251 313 296 325 q 178 283 207 301 q 138 238 150 264 q 125 183 125 213 q 138 122 125 147 q 171 79 150 96 q 220 55 192 63 q 281 47 249 47 q 332 53 306 47 q 384 73 358 60 q 433 106 410 86 q 474 156 457 126 l 474 328 z "},"ǽ":{"ha":1071,"x_min":50,"x_max":1013,"o":"m 1013 326 l 547 326 l 547 307 q 613 116 547 185 q 793 47 679 47 q 963 78 883 47 l 979 22 q 892 -2 943 7 q 789 -11 842 -11 q 640 19 708 -11 q 529 114 572 49 l 526 114 q 419 20 485 51 q 276 -11 354 -11 q 186 2 228 -11 q 114 40 144 15 q 67 101 83 65 q 50 179 50 136 q 71 269 50 231 q 129 334 92 308 q 219 372 167 360 q 335 385 271 385 l 474 385 l 474 428 q 432 563 474 522 q 324 603 390 603 q 231 590 283 603 q 118 544 178 578 l 90 596 q 210 646 156 631 q 328 661 265 661 q 447 631 394 661 q 526 535 499 600 l 529 535 q 624 628 567 596 q 757 661 682 661 q 860 641 813 661 q 941 583 907 621 q 994 493 975 546 q 1013 376 1013 440 l 1013 326 m 125 183 q 172 80 125 113 q 294 47 218 47 q 347 54 319 47 q 403 76 375 61 q 456 113 431 90 q 500 168 481 136 q 472 326 472 236 l 358 326 q 251 313 296 325 q 178 283 207 301 q 138 238 150 264 q 125 183 125 213 m 938 385 q 928 465 938 425 q 897 535 918 504 q 841 584 875 565 q 758 603 807 603 q 617 546 674 603 q 550 385 561 489 l 938 385 m 693 958 l 553 772 l 494 772 l 606 958 l 693 958 z "},"ć":{"ha":593,"x_min":57,"x_max":549,"o":"m 385 42 q 465 51 429 42 q 533 76 501 61 l 549 26 q 470 -2 511 7 q 376 -11 429 -11 q 253 10 311 -11 q 152 72 196 31 q 83 177 108 114 q 57 325 57 240 q 81 465 57 403 q 147 572 104 528 q 248 638 190 615 q 375 661 306 661 q 458 655 418 661 q 546 626 499 649 l 529 569 q 458 596 492 589 q 388 603 424 603 q 283 583 331 603 q 203 528 236 564 q 151 442 169 493 q 132 329 132 392 q 154 191 132 246 q 212 103 176 136 q 292 56 247 69 q 385 42 338 42 m 296 772 l 238 772 l 349 958 l 436 958 l 296 772 z "},"č":{"ha":622,"x_min":57,"x_max":578,"o":"m 385 42 q 465 51 429 42 q 533 76 501 61 l 549 26 q 470 -2 511 7 q 376 -11 429 -11 q 253 10 311 -11 q 152 72 196 31 q 83 177 108 114 q 57 325 57 240 q 81 465 57 403 q 147 572 104 528 q 248 638 190 615 q 375 661 306 661 q 458 655 418 661 q 546 626 499 649 l 529 569 q 458 596 492 589 q 388 603 424 603 q 283 583 331 603 q 203 528 236 564 q 151 442 169 493 q 132 329 132 392 q 154 191 132 246 q 212 103 176 136 q 292 56 247 69 q 385 42 338 42 m 167 958 l 247 958 l 369 821 l 494 958 l 578 958 l 404 772 l 336 772 l 167 958 z "},"ĉ":{"ha":592,"x_min":57,"x_max":569,"o":"m 385 42 q 465 51 429 42 q 533 76 501 61 l 549 26 q 470 -2 511 7 q 376 -11 429 -11 q 253 10 311 -11 q 152 72 196 31 q 83 177 108 114 q 57 325 57 240 q 81 465 57 403 q 147 572 104 528 q 248 638 190 615 q 375 661 306 661 q 458 655 418 661 q 546 626 499 649 l 529 569 q 458 596 492 589 q 388 603 424 603 q 283 583 331 603 q 203 528 236 564 q 151 442 169 493 q 132 329 132 392 q 154 191 132 246 q 212 103 176 136 q 292 56 247 69 q 385 42 338 42 m 569 772 l 492 772 l 375 906 l 253 772 l 174 772 l 340 958 l 408 958 l 569 772 z "},"ċ":{"ha":593,"x_min":57,"x_max":549,"o":"m 385 42 q 465 51 429 42 q 533 76 501 61 l 549 26 q 470 -2 511 7 q 376 -11 429 -11 q 253 10 311 -11 q 152 72 196 31 q 83 177 108 114 q 57 325 57 240 q 81 465 57 403 q 147 572 104 528 q 248 638 190 615 q 375 661 306 661 q 458 655 418 661 q 546 626 499 649 l 529 569 q 458 596 492 589 q 388 603 424 603 q 283 583 331 603 q 203 528 236 564 q 151 442 169 493 q 132 329 132 392 q 154 191 132 246 q 212 103 176 136 q 292 56 247 69 q 385 42 338 42 m 319 875 q 335 919 319 903 q 375 936 351 936 q 415 919 399 936 q 431 875 431 903 q 415 830 431 846 q 375 814 399 814 q 335 830 351 814 q 319 875 319 846 z "},"ď":{"ha":822,"x_min":58,"x_max":881,"o":"m 532 986 l 604 986 l 604 0 l 546 0 l 536 61 l 533 61 q 460 9 504 29 q 344 -11 415 -11 q 241 9 292 -11 q 149 71 190 29 q 83 176 108 113 q 58 325 58 239 q 78 464 58 401 q 138 570 99 526 q 231 638 176 614 q 356 661 286 661 q 532 599 461 661 l 532 986 m 532 525 q 458 582 504 561 q 368 603 413 603 q 280 588 322 603 q 205 542 238 574 q 153 457 172 510 q 133 329 133 404 q 153 198 133 251 q 205 111 172 144 q 279 63 238 78 q 365 47 321 47 q 467 69 425 47 q 532 125 510 92 l 532 525 m 813 868 q 773 889 789 872 q 757 935 757 906 q 773 976 757 960 q 814 993 789 993 q 858 974 836 993 q 881 901 881 956 q 869 840 881 869 q 840 785 858 811 q 797 740 821 760 q 746 706 772 719 l 718 744 q 786 799 760 765 q 819 867 813 832 l 813 868 z "},"≤":{"ha":603,"x_min":56,"x_max":547,"o":"m 547 147 l 57 147 l 57 204 l 547 204 l 547 147 m 56 560 l 547 810 l 547 738 l 132 533 l 547 329 l 547 257 l 56 507 l 56 560 z "},"≥":{"ha":603,"x_min":56,"x_max":547,"o":"m 547 147 l 57 147 l 57 204 l 547 204 l 547 147 m 547 507 l 56 257 l 56 329 l 471 533 l 56 738 l 56 810 l 547 560 l 547 507 z "},"đ":{"ha":743,"x_min":58,"x_max":739,"o":"m 532 986 l 604 986 l 604 875 l 739 875 l 739 819 l 604 819 l 604 0 l 546 0 l 536 61 l 533 61 q 460 9 504 29 q 344 -11 415 -11 q 241 9 292 -11 q 149 71 190 29 q 83 176 108 113 q 58 325 58 239 q 78 464 58 401 q 138 570 99 526 q 231 638 176 614 q 356 661 286 661 q 532 599 461 661 l 532 819 l 350 819 l 350 875 l 532 875 l 532 986 m 532 525 q 458 582 504 561 q 368 603 413 603 q 280 588 322 603 q 205 542 238 574 q 153 457 172 510 q 133 329 133 404 q 153 198 133 251 q 205 111 172 144 q 279 63 238 78 q 365 47 321 47 q 467 69 425 47 q 532 125 510 92 l 532 525 z "},"ĕ":{"ha":700,"x_min":82,"x_max":622,"o":"m 622 326 l 157 326 l 157 307 q 223 116 157 185 q 403 47 289 47 q 572 78 493 47 l 589 22 q 502 -2 553 7 q 399 -11 451 -11 q 276 8 333 -11 q 175 69 218 28 q 107 173 132 110 q 82 325 82 236 q 103 464 82 401 q 163 570 124 526 q 254 638 201 614 q 372 661 307 661 q 474 641 428 661 q 553 583 521 621 q 604 493 586 546 q 622 376 622 440 l 622 326 m 547 385 q 538 465 547 425 q 506 535 528 504 q 451 584 485 565 q 368 603 417 603 q 227 546 283 603 q 160 385 171 489 l 547 385 m 257 944 q 286 860 258 892 q 379 828 314 828 q 465 858 433 828 q 497 944 496 889 l 564 944 q 517 821 564 869 q 379 772 469 772 q 294 786 329 772 q 235 824 258 800 q 201 880 213 849 q 190 944 190 911 l 257 944 z "},"ě":{"ha":700,"x_min":82,"x_max":622,"o":"m 622 326 l 157 326 l 157 307 q 223 116 157 185 q 403 47 289 47 q 572 78 493 47 l 589 22 q 502 -2 553 7 q 399 -11 451 -11 q 276 8 333 -11 q 175 69 218 28 q 107 173 132 110 q 82 325 82 236 q 103 464 82 401 q 163 570 124 526 q 254 638 201 614 q 372 661 307 661 q 474 641 428 661 q 553 583 521 621 q 604 493 586 546 q 622 376 622 440 l 622 326 m 547 385 q 538 465 547 425 q 506 535 528 504 q 451 584 485 565 q 368 603 417 603 q 227 546 283 603 q 160 385 171 489 l 547 385 m 565 958 l 406 772 l 338 772 l 181 958 l 258 958 l 372 822 l 486 958 l 565 958 z "},"ė":{"ha":700,"x_min":82,"x_max":622,"o":"m 622 326 l 157 326 l 157 307 q 223 116 157 185 q 403 47 289 47 q 572 78 493 47 l 589 22 q 502 -2 553 7 q 399 -11 451 -11 q 276 8 333 -11 q 175 69 218 28 q 107 173 132 110 q 82 325 82 236 q 103 464 82 401 q 163 570 124 526 q 254 638 201 614 q 372 661 307 661 q 474 641 428 661 q 553 583 521 621 q 604 493 586 546 q 622 376 622 440 l 622 326 m 547 385 q 538 465 547 425 q 506 535 528 504 q 451 584 485 565 q 368 603 417 603 q 227 546 283 603 q 160 385 171 489 l 547 385 m 317 875 q 333 919 317 903 q 372 936 349 936 q 412 919 396 936 q 428 875 428 903 q 412 830 428 846 q 372 814 396 814 q 333 830 349 814 q 317 875 317 846 z "},"ē":{"ha":700,"x_min":82,"x_max":622,"o":"m 622 326 l 157 326 l 157 307 q 223 116 157 185 q 403 47 289 47 q 572 78 493 47 l 589 22 q 502 -2 553 7 q 399 -11 451 -11 q 276 8 333 -11 q 175 69 218 28 q 107 173 132 110 q 82 325 82 236 q 103 464 82 401 q 163 570 124 526 q 254 638 201 614 q 372 661 307 661 q 474 641 428 661 q 553 583 521 621 q 604 493 586 546 q 622 376 622 440 l 622 326 m 547 385 q 538 465 547 425 q 506 535 528 504 q 451 584 485 565 q 368 603 417 603 q 227 546 283 603 q 160 385 171 489 l 547 385 m 535 906 l 535 850 l 222 850 l 222 906 l 535 906 z "},"ę":{"ha":700,"x_min":82,"x_max":626,"o":"m 622 326 l 157 326 l 157 307 q 223 116 157 185 q 403 47 289 47 q 572 78 493 47 l 589 22 q 526 -8 554 7 q 477 -39 497 -22 q 446 -76 457 -56 q 435 -125 435 -96 q 465 -184 435 -165 q 539 -203 494 -203 q 583 -199 564 -203 q 615 -187 601 -194 l 626 -229 q 580 -249 607 -242 q 521 -257 553 -257 q 412 -226 457 -257 q 367 -131 367 -196 q 386 -61 367 -90 q 433 -12 406 -32 l 433 -10 q 415 -11 424 -11 q 399 -11 407 -11 q 276 8 333 -11 q 175 69 218 28 q 107 173 132 110 q 82 325 82 236 q 103 464 82 401 q 163 570 124 526 q 254 638 201 614 q 372 661 307 661 q 474 641 428 661 q 553 583 521 621 q 604 493 586 546 q 622 376 622 440 l 622 326 m 547 385 q 538 465 547 425 q 506 535 528 504 q 451 584 485 565 q 368 603 417 603 q 227 546 283 603 q 160 385 171 489 l 547 385 z "},"ﬀ":{"ha":849,"x_min":26,"x_max":886,"o":"m 743 993 q 818 983 779 993 q 886 954 857 972 l 868 906 q 813 928 840 921 q 761 935 785 935 q 656 897 692 935 q 621 764 621 858 l 621 653 l 844 653 l 844 603 l 621 603 l 621 0 l 549 0 l 549 603 l 218 603 l 218 0 l 146 0 l 146 603 l 26 603 l 26 653 l 146 653 l 146 778 q 197 940 146 886 q 340 993 249 993 q 415 983 376 993 q 483 954 454 972 l 465 906 q 410 928 438 921 q 358 935 382 935 q 253 897 289 935 q 218 764 218 858 l 218 653 l 549 653 l 549 778 q 600 940 549 886 q 743 993 651 993 z "},"ﬃ":{"ha":1115,"x_min":26,"x_max":1021,"o":"m 340 993 q 416 984 376 993 q 485 957 456 975 l 465 907 q 410 928 438 922 q 358 935 382 935 q 253 897 289 935 q 218 764 218 858 l 218 653 l 547 653 l 547 736 q 610 930 547 867 q 783 993 674 993 q 878 983 828 993 q 968 954 929 972 l 953 901 q 875 926 917 917 q 801 935 833 935 q 665 887 710 935 q 619 722 619 839 l 619 653 l 1021 653 l 1021 0 l 949 0 l 949 603 l 619 603 l 619 0 l 547 0 l 547 603 l 218 603 l 218 0 l 146 0 l 146 603 l 26 603 l 26 653 l 146 653 l 146 778 q 197 940 146 886 q 340 993 249 993 z "},"ﬄ":{"ha":1115,"x_min":26,"x_max":1019,"o":"m 340 993 q 416 984 376 993 q 485 957 456 975 l 465 907 q 410 928 438 922 q 358 935 382 935 q 253 897 289 935 q 218 764 218 858 l 218 653 l 547 653 l 547 736 q 614 930 547 867 q 790 993 681 993 q 914 978 853 993 q 1019 940 975 964 l 1019 0 l 947 0 l 947 603 l 619 603 l 619 0 l 547 0 l 547 603 l 218 603 l 218 0 l 146 0 l 146 603 l 26 603 l 26 653 l 146 653 l 146 778 q 197 940 146 886 q 340 993 249 993 m 619 653 l 947 653 l 947 908 q 880 928 915 921 q 804 935 844 935 q 666 887 713 935 q 619 722 619 839 l 619 653 z "},"ﬁ":{"ha":714,"x_min":26,"x_max":619,"o":"m 547 0 l 547 603 l 218 603 l 218 0 l 146 0 l 146 603 l 26 603 l 26 653 l 146 653 l 146 736 q 209 930 146 867 q 382 993 272 993 q 477 983 426 993 q 567 954 528 972 l 551 901 q 474 926 515 917 q 400 935 432 935 q 263 887 308 935 q 218 722 218 839 l 218 653 l 619 653 l 619 0 l 547 0 z "},"ﬂ":{"ha":736,"x_min":26,"x_max":618,"o":"m 546 0 l 546 603 l 218 603 l 218 0 l 146 0 l 146 603 l 26 603 l 26 653 l 146 653 l 146 736 q 213 930 146 867 q 389 993 279 993 q 513 978 451 993 q 618 940 574 964 l 618 0 l 546 0 m 218 653 l 546 653 l 546 908 q 478 928 514 921 q 403 935 443 935 q 265 887 311 935 q 218 722 218 839 l 218 653 z "},"ğ":{"ha":738,"x_min":65,"x_max":696,"o":"m 106 436 q 174 603 106 546 q 351 661 243 661 q 395 658 376 661 q 432 653 414 656 l 696 653 l 696 597 l 622 597 l 501 606 q 560 536 538 582 q 583 438 583 490 q 566 341 583 383 q 517 269 549 299 q 443 226 486 240 q 349 211 400 211 q 275 219 310 211 q 221 181 242 207 q 200 126 200 154 q 224 74 200 90 q 289 58 247 58 l 451 58 q 615 13 560 58 q 671 -106 671 -33 q 588 -261 671 -203 q 356 -319 506 -319 q 142 -266 219 -319 q 65 -119 65 -212 q 95 -33 65 -68 q 181 22 125 3 q 144 59 160 33 q 128 118 128 85 q 156 194 128 164 q 219 242 185 225 q 138 314 169 267 q 106 436 106 361 m 233 0 q 167 -43 193 -14 q 142 -111 142 -72 q 200 -224 142 -186 q 357 -261 258 -261 q 467 -248 422 -261 q 541 -213 513 -235 q 583 -165 569 -192 q 596 -110 596 -137 q 583 -55 596 -76 q 545 -22 569 -33 q 488 -5 521 -10 q 417 0 456 0 l 233 0 m 508 433 q 465 559 508 515 q 351 603 422 603 q 231 562 281 603 q 181 439 181 521 q 194 364 181 396 q 230 311 207 332 q 283 280 253 290 q 349 269 314 269 q 464 310 419 269 q 508 433 508 350 m 238 944 q 267 860 239 892 q 360 828 294 828 q 445 858 414 828 q 478 944 476 889 l 544 944 q 497 821 544 869 q 360 772 450 772 q 274 786 310 772 q 216 824 239 800 q 182 880 193 849 q 171 944 171 911 l 238 944 z "},"ĝ":{"ha":738,"x_min":65,"x_max":696,"o":"m 106 436 q 174 603 106 546 q 351 661 243 661 q 395 658 376 661 q 432 653 414 656 l 696 653 l 696 597 l 622 597 l 501 606 q 560 536 538 582 q 583 438 583 490 q 566 341 583 383 q 517 269 549 299 q 443 226 486 240 q 349 211 400 211 q 275 219 310 211 q 221 181 242 207 q 200 126 200 154 q 224 74 200 90 q 289 58 247 58 l 451 58 q 615 13 560 58 q 671 -106 671 -33 q 588 -261 671 -203 q 356 -319 506 -319 q 142 -266 219 -319 q 65 -119 65 -212 q 95 -33 65 -68 q 181 22 125 3 q 144 59 160 33 q 128 118 128 85 q 156 194 128 164 q 219 242 185 225 q 138 314 169 267 q 106 436 106 361 m 233 0 q 167 -43 193 -14 q 142 -111 142 -72 q 200 -224 142 -186 q 357 -261 258 -261 q 467 -248 422 -261 q 541 -213 513 -235 q 583 -165 569 -192 q 596 -110 596 -137 q 583 -55 596 -76 q 545 -22 569 -33 q 488 -5 521 -10 q 417 0 456 0 l 233 0 m 508 433 q 465 559 508 515 q 351 603 422 603 q 231 562 281 603 q 181 439 181 521 q 194 364 181 396 q 230 311 207 332 q 283 280 253 290 q 349 269 314 269 q 464 310 419 269 q 508 433 508 350 m 554 772 l 476 772 l 360 906 l 238 772 l 158 772 l 325 958 l 393 958 l 554 772 z "},"ģ":{"ha":738,"x_min":65,"x_max":696,"o":"m 106 436 q 174 603 106 546 q 351 661 243 661 q 395 658 376 661 q 432 653 414 656 l 696 653 l 696 597 l 622 597 l 501 606 q 560 536 538 582 q 583 438 583 490 q 566 341 583 383 q 517 269 549 299 q 443 226 486 240 q 349 211 400 211 q 275 219 310 211 q 221 181 242 207 q 200 126 200 154 q 224 74 200 90 q 289 58 247 58 l 451 58 q 615 13 560 58 q 671 -106 671 -33 q 588 -261 671 -203 q 356 -319 506 -319 q 142 -266 219 -319 q 65 -119 65 -212 q 95 -33 65 -68 q 181 22 125 3 q 144 59 160 33 q 128 118 128 85 q 156 194 128 164 q 219 242 185 225 q 138 314 169 267 q 106 436 106 361 m 233 0 q 167 -43 193 -14 q 142 -111 142 -72 q 200 -224 142 -186 q 357 -261 258 -261 q 467 -248 422 -261 q 541 -213 513 -235 q 583 -165 569 -192 q 596 -110 596 -137 q 583 -55 596 -76 q 545 -22 569 -33 q 488 -5 521 -10 q 417 0 456 0 l 233 0 m 508 433 q 465 559 508 515 q 351 603 422 603 q 231 562 281 603 q 181 439 181 521 q 194 364 181 396 q 230 311 207 332 q 283 280 253 290 q 349 269 314 269 q 464 310 419 269 q 508 433 508 350 m 353 907 q 392 886 376 903 q 408 840 408 869 q 392 799 408 815 q 351 782 376 782 q 307 801 329 782 q 285 874 285 819 q 296 934 285 904 q 326 990 307 964 q 369 1035 344 1015 q 419 1069 393 1056 l 447 1031 q 379 976 406 1010 q 346 908 353 943 l 353 907 z "},"ġ":{"ha":738,"x_min":65,"x_max":696,"o":"m 106 436 q 174 603 106 546 q 351 661 243 661 q 395 658 376 661 q 432 653 414 656 l 696 653 l 696 597 l 622 597 l 501 606 q 560 536 538 582 q 583 438 583 490 q 566 341 583 383 q 517 269 549 299 q 443 226 486 240 q 349 211 400 211 q 275 219 310 211 q 221 181 242 207 q 200 126 200 154 q 224 74 200 90 q 289 58 247 58 l 451 58 q 615 13 560 58 q 671 -106 671 -33 q 588 -261 671 -203 q 356 -319 506 -319 q 142 -266 219 -319 q 65 -119 65 -212 q 95 -33 65 -68 q 181 22 125 3 q 144 59 160 33 q 128 118 128 85 q 156 194 128 164 q 219 242 185 225 q 138 314 169 267 q 106 436 106 361 m 233 0 q 167 -43 193 -14 q 142 -111 142 -72 q 200 -224 142 -186 q 357 -261 258 -261 q 467 -248 422 -261 q 541 -213 513 -235 q 583 -165 569 -192 q 596 -110 596 -137 q 583 -55 596 -76 q 545 -22 569 -33 q 488 -5 521 -10 q 417 0 456 0 l 233 0 m 508 433 q 465 559 508 515 q 351 603 422 603 q 231 562 281 603 q 181 439 181 521 q 194 364 181 396 q 230 311 207 332 q 283 280 253 290 q 349 269 314 269 q 464 310 419 269 q 508 433 508 350 m 304 875 q 320 919 304 903 q 360 936 336 936 q 399 919 383 936 q 415 875 415 903 q 399 830 415 846 q 360 814 383 814 q 320 830 336 814 q 304 875 304 846 z "},"ħ":{"ha":699,"x_min":-14,"x_max":604,"o":"m 375 875 l 375 817 l 168 817 l 168 565 q 269 634 214 607 q 392 661 325 661 q 486 645 446 661 q 552 601 526 629 q 591 534 578 572 q 604 450 604 496 l 604 0 l 532 0 l 532 428 q 489 563 532 524 q 375 603 446 603 q 271 576 325 603 q 168 503 217 549 l 168 0 l 96 0 l 96 817 l -14 817 l -14 875 l 96 875 l 96 986 l 168 986 l 168 875 l 375 875 z "},"ĥ":{"ha":699,"x_min":-67,"x_max":604,"o":"m 168 0 l 96 0 l 96 986 l 168 986 l 168 565 q 269 634 214 607 q 392 661 325 661 q 486 645 446 661 q 552 601 526 629 q 591 534 578 572 q 604 450 604 496 l 604 0 l 532 0 l 532 428 q 489 563 532 524 q 375 603 446 603 q 271 576 325 603 q 168 503 217 549 l 168 0 m 329 1022 l 251 1022 l 133 1158 l 13 1022 l -67 1022 l 100 1208 l 168 1208 l 329 1022 z "},"ĭ":{"ha":294,"x_min":-42,"x_max":332,"o":"m 111 0 l 111 653 l 183 653 l 183 0 l 111 0 m 25 944 q 54 860 26 892 q 147 828 82 828 q 233 858 201 828 q 265 944 264 889 l 332 944 q 285 821 332 869 q 147 772 238 772 q 62 786 97 772 q 3 824 26 800 q -31 880 -19 849 q -42 944 -42 911 l 25 944 z "},"ī":{"ha":294,"x_min":-8,"x_max":304,"o":"m 111 0 l 111 653 l 183 653 l 183 0 l 111 0 m 304 904 l 304 853 l -8 853 l -8 904 l 304 904 z "},"į":{"ha":294,"x_min":-3,"x_max":257,"o":"m 183 0 q 96 -66 126 -33 q 65 -146 65 -99 q 94 -208 65 -186 q 169 -231 124 -231 q 213 -226 194 -231 q 246 -215 232 -222 l 257 -257 q 210 -277 238 -269 q 151 -285 183 -285 q 42 -251 88 -285 q -3 -151 -3 -217 q 8 -101 -3 -125 q 34 -58 18 -78 q 70 -24 50 -39 q 111 0 90 -10 l 111 653 l 183 653 l 183 0 m 149 821 q 110 835 126 821 q 94 876 94 850 q 110 919 94 904 q 147 935 125 935 q 184 920 168 935 q 200 876 200 906 q 185 835 200 849 q 149 821 169 821 z "},"ĩ":{"ha":294,"x_min":-62,"x_max":356,"o":"m 111 0 l 111 653 l 183 653 l 183 0 l 111 0 m -62 779 q -35 883 -62 846 q 56 919 -7 919 q 108 907 85 919 q 153 880 132 894 q 194 853 174 865 q 236 840 214 840 q 285 858 267 840 q 303 924 303 875 l 356 924 q 328 819 356 853 q 243 785 301 785 q 185 797 211 785 q 138 824 160 810 q 96 851 115 839 q 57 864 76 864 q 11 846 31 864 q -8 779 -8 828 l -62 779 z "},"ĳ":{"ha":543,"x_min":94,"x_max":449,"o":"m 111 0 l 111 653 l 183 653 l 183 0 l 111 0 m 149 821 q 110 835 126 821 q 94 876 94 850 q 110 919 94 904 q 147 935 125 935 q 184 920 168 935 q 200 876 200 906 q 185 835 200 849 q 149 821 169 821 m 363 653 l 435 653 l 435 101 q 425 -43 435 22 q 390 -160 415 -108 q 324 -251 365 -212 q 221 -319 283 -290 l 189 -268 q 269 -216 236 -243 q 324 -149 303 -189 q 353 -51 344 -108 q 363 90 363 6 l 363 653 m 397 821 q 359 835 375 821 q 343 876 343 850 q 358 919 343 904 q 396 935 374 935 q 433 920 417 935 q 449 876 449 906 q 433 835 449 849 q 397 821 418 821 z "},"ĵ":{"ha":292,"x_min":-62,"x_max":344,"o":"m 111 653 l 183 653 l 183 101 q 174 -43 183 22 q 139 -160 164 -108 q 73 -251 114 -212 q -31 -319 32 -290 l -62 -268 q 18 -216 -15 -243 q 72 -149 51 -189 q 102 -51 93 -108 q 111 90 111 6 l 111 653 m 344 772 l 267 772 l 149 908 l 28 772 l -51 772 l 115 958 l 183 958 l 344 772 z "},"ķ":{"ha":606,"x_min":96,"x_max":599,"o":"m 168 239 l 168 0 l 96 0 l 96 986 l 168 986 l 168 322 l 496 653 l 586 653 l 311 378 l 599 0 l 513 0 l 264 335 l 168 239 m 331 -258 q 291 -237 307 -254 q 275 -192 275 -221 q 291 -150 275 -167 q 332 -133 307 -133 q 376 -152 354 -133 q 399 -225 399 -171 q 388 -286 399 -257 q 358 -341 376 -315 q 315 -387 339 -367 q 264 -421 290 -407 l 236 -382 q 304 -328 278 -361 q 338 -260 331 -294 l 331 -258 z "},"ĺ":{"ha":263,"x_min":96,"x_max":294,"o":"m 96 0 l 96 986 l 168 986 l 168 0 l 96 0 m 154 1042 l 96 1042 l 207 1228 l 294 1228 l 154 1042 z "},"ľ":{"ha":421,"x_min":96,"x_max":435,"o":"m 96 0 l 96 986 l 168 986 l 168 0 l 96 0 m 367 875 q 327 896 343 879 q 311 942 311 913 q 327 983 311 967 q 368 1000 343 1000 q 413 981 390 1000 q 435 908 435 963 q 424 847 435 876 q 394 792 413 818 q 351 747 375 767 q 300 713 326 726 l 272 751 q 340 806 314 772 q 374 874 367 839 l 367 875 z "},"ļ":{"ha":263,"x_min":40,"x_max":203,"o":"m 96 0 l 96 986 l 168 986 l 168 0 l 96 0 m 135 -258 q 95 -237 111 -254 q 79 -192 79 -221 q 95 -150 79 -167 q 136 -133 111 -133 q 181 -152 158 -133 q 203 -225 203 -171 q 192 -286 203 -257 q 162 -341 181 -315 q 119 -387 143 -367 q 68 -421 94 -407 l 40 -382 q 108 -328 82 -361 q 142 -260 135 -294 l 135 -258 z "},"ŀ":{"ha":392,"x_min":96,"x_max":406,"o":"m 96 0 l 96 986 l 168 986 l 168 0 l 96 0 m 294 458 q 310 503 294 486 q 350 519 326 519 q 390 503 374 519 q 406 458 406 486 q 390 413 406 429 q 350 397 374 397 q 310 413 326 397 q 294 458 294 429 z "},"ł":{"ha":457,"x_min":15,"x_max":478,"o":"m 443 686 l 478 651 l 240 415 l 240 0 l 168 0 l 168 360 l 50 240 l 15 275 l 168 429 l 168 986 l 240 986 l 240 486 l 443 686 z "},"ń":{"ha":692,"x_min":94,"x_max":597,"o":"m 167 0 l 94 0 l 94 653 l 147 653 l 158 563 q 260 634 206 607 q 385 661 315 661 q 541 606 485 661 q 597 450 597 550 l 597 0 l 525 0 l 525 432 q 517 499 525 468 q 491 553 510 531 q 441 590 472 576 q 364 603 410 603 q 259 576 311 603 q 167 503 207 549 l 167 0 m 335 772 l 276 772 l 388 958 l 475 958 l 335 772 z "},"ŉ":{"ha":692,"x_min":-33,"x_max":597,"o":"m 167 0 l 94 0 l 94 653 l 147 653 l 158 563 q 260 634 206 607 q 385 661 315 661 q 541 606 485 661 q 597 450 597 550 l 597 0 l 525 0 l 525 432 q 517 499 525 468 q 491 553 510 531 q 441 590 472 576 q 364 603 410 603 q 259 576 311 603 q 167 503 207 549 l 167 0 m 61 875 q 22 896 38 879 q 6 942 6 913 q 22 983 6 967 q 63 1000 38 1000 q 107 981 85 1000 q 129 908 129 963 q 118 847 129 876 q 88 792 107 818 q 45 747 69 767 q -6 713 21 726 l -33 751 q 35 806 8 772 q 68 874 61 839 l 61 875 z "},"ň":{"ha":692,"x_min":94,"x_max":597,"o":"m 167 0 l 94 0 l 94 653 l 147 653 l 158 563 q 260 634 206 607 q 385 661 315 661 q 541 606 485 661 q 597 450 597 550 l 597 0 l 525 0 l 525 432 q 517 499 525 468 q 491 553 510 531 q 441 590 472 576 q 364 603 410 603 q 259 576 311 603 q 167 503 207 549 l 167 0 m 389 772 l 321 772 l 164 958 l 242 958 l 356 822 l 469 958 l 549 958 l 389 772 z "},"ņ":{"ha":692,"x_min":94,"x_max":597,"o":"m 167 0 l 94 0 l 94 653 l 147 653 l 158 563 q 260 634 206 607 q 385 661 315 661 q 541 606 485 661 q 597 450 597 550 l 597 0 l 525 0 l 525 432 q 517 499 525 468 q 491 553 510 531 q 441 590 472 576 q 364 603 410 603 q 259 576 311 603 q 167 503 207 549 l 167 0 m 357 -258 q 317 -237 333 -254 q 301 -192 301 -221 q 317 -150 301 -167 q 358 -133 333 -133 q 403 -152 381 -133 q 425 -225 425 -171 q 414 -286 425 -257 q 384 -341 403 -315 q 341 -387 365 -367 q 290 -421 317 -407 l 263 -382 q 331 -328 304 -361 q 364 -260 357 -294 l 357 -258 z "},"ŏ":{"ha":689,"x_min":53,"x_max":635,"o":"m 635 333 q 613 187 635 251 q 551 78 590 122 q 458 12 511 35 q 343 -11 406 -11 q 228 10 282 -11 q 136 74 175 32 q 75 177 97 115 q 53 319 53 239 q 76 465 53 401 q 139 573 99 529 q 233 639 179 617 q 349 661 288 661 q 463 640 410 661 q 553 578 515 619 q 613 475 592 536 q 635 333 635 414 m 560 326 q 542 451 560 399 q 494 537 524 503 q 425 587 464 571 q 344 603 386 603 q 264 587 303 603 q 194 537 225 571 q 146 451 164 503 q 128 326 128 399 q 147 197 128 250 q 196 111 165 144 q 266 63 226 78 q 347 47 306 47 q 427 62 389 47 q 495 110 465 76 q 542 197 525 143 q 560 326 560 250 m 226 944 q 256 860 228 892 q 349 828 283 828 q 434 858 403 828 q 467 944 465 889 l 533 944 q 486 821 533 869 q 349 772 439 772 q 263 786 299 772 q 205 824 228 800 q 171 880 182 849 q 160 944 160 911 l 226 944 z "},"ő":{"ha":689,"x_min":53,"x_max":635,"o":"m 635 333 q 613 187 635 251 q 551 78 590 122 q 458 12 511 35 q 343 -11 406 -11 q 228 10 282 -11 q 136 74 175 32 q 75 177 97 115 q 53 319 53 239 q 76 465 53 401 q 139 573 99 529 q 233 639 179 617 q 349 661 288 661 q 463 640 410 661 q 553 578 515 619 q 613 475 592 536 q 635 333 635 414 m 560 326 q 542 451 560 399 q 494 537 524 503 q 425 587 464 571 q 344 603 386 603 q 264 587 303 603 q 194 537 225 571 q 146 451 164 503 q 128 326 128 399 q 147 197 128 250 q 196 111 165 144 q 266 63 226 78 q 347 47 306 47 q 427 62 389 47 q 495 110 465 76 q 542 197 525 143 q 560 326 560 250 m 226 772 l 168 772 l 293 958 l 381 958 l 226 772 m 463 772 l 404 772 l 529 958 l 617 958 l 463 772 z "},"ō":{"ha":689,"x_min":53,"x_max":635,"o":"m 635 333 q 613 187 635 251 q 551 78 590 122 q 458 12 511 35 q 343 -11 406 -11 q 228 10 282 -11 q 136 74 175 32 q 75 177 97 115 q 53 319 53 239 q 76 465 53 401 q 139 573 99 529 q 233 639 179 617 q 349 661 288 661 q 463 640 410 661 q 553 578 515 619 q 613 475 592 536 q 635 333 635 414 m 560 326 q 542 451 560 399 q 494 537 524 503 q 425 587 464 571 q 344 603 386 603 q 264 587 303 603 q 194 537 225 571 q 146 451 164 503 q 128 326 128 399 q 147 197 128 250 q 196 111 165 144 q 266 63 226 78 q 347 47 306 47 q 427 62 389 47 q 495 110 465 76 q 542 197 525 143 q 560 326 560 250 m 506 906 l 506 850 l 193 850 l 193 906 l 506 906 z "},"ǿ":{"ha":689,"x_min":53,"x_max":635,"o":"m 493 793 l 538 782 l 488 628 q 594 518 554 592 q 635 333 635 444 q 613 187 635 251 q 551 78 590 122 q 458 12 511 35 q 343 -11 406 -11 q 314 -10 328 -11 q 286 -6 300 -8 l 249 -124 l 204 -111 l 242 6 q 105 114 157 35 q 53 319 53 193 q 76 465 53 401 q 139 573 99 529 q 233 639 179 617 q 349 661 288 661 q 446 646 397 661 l 493 793 m 344 603 q 264 587 303 603 q 194 537 225 571 q 146 451 164 503 q 128 326 128 399 q 165 152 128 215 q 260 64 203 89 l 426 586 q 344 603 389 603 m 560 326 q 533 472 560 414 q 467 561 507 529 l 304 50 q 326 47 315 47 q 347 47 336 47 q 427 62 389 47 q 495 110 465 76 q 542 197 525 143 q 560 326 560 250 m 310 772 l 251 772 l 363 958 l 450 958 l 310 772 z "},"ŕ":{"ha":468,"x_min":92,"x_max":461,"o":"m 92 0 l 92 653 l 139 653 l 156 522 q 236 623 179 585 q 364 661 293 661 q 422 656 397 661 q 461 643 447 650 l 447 579 q 410 592 431 586 q 361 597 389 597 q 285 583 321 597 q 223 540 250 569 q 180 467 196 511 q 164 364 164 424 l 164 0 l 92 0 m 163 772 l 104 772 l 215 958 l 303 958 l 163 772 z "},"ř":{"ha":468,"x_min":33,"x_max":461,"o":"m 92 0 l 92 653 l 139 653 l 156 522 q 236 623 179 585 q 364 661 293 661 q 422 656 397 661 q 461 643 447 650 l 447 579 q 410 592 431 586 q 361 597 389 597 q 285 583 321 597 q 223 540 250 569 q 180 467 196 511 q 164 364 164 424 l 164 0 l 92 0 m 258 772 l 190 772 l 33 958 l 111 958 l 225 822 l 339 958 l 418 958 l 258 772 z "},"ŗ":{"ha":468,"x_min":29,"x_max":461,"o":"m 92 0 l 92 653 l 139 653 l 156 522 q 236 623 179 585 q 364 661 293 661 q 422 656 397 661 q 461 643 447 650 l 447 579 q 410 592 431 586 q 361 597 389 597 q 285 583 321 597 q 223 540 250 569 q 180 467 196 511 q 164 364 164 424 l 164 0 l 92 0 m 124 -258 q 84 -237 100 -254 q 68 -192 68 -221 q 84 -150 68 -167 q 125 -133 100 -133 q 169 -152 147 -133 q 192 -225 192 -171 q 181 -286 192 -257 q 151 -341 169 -315 q 108 -387 132 -367 q 57 -421 83 -407 l 29 -382 q 97 -328 71 -361 q 131 -260 124 -294 l 124 -258 z "},"ś":{"ha":550,"x_min":61,"x_max":488,"o":"m 440 571 q 289 603 371 603 q 176 572 214 603 q 139 492 139 540 q 171 417 139 443 q 283 368 203 392 l 325 356 q 446 286 404 332 q 488 174 488 240 q 472 101 488 135 q 428 42 457 67 q 355 3 399 17 q 254 -11 311 -11 q 144 -1 192 -11 q 61 26 97 10 l 81 83 q 156 56 117 65 q 247 47 194 47 q 369 78 326 47 q 413 165 413 108 q 381 242 413 210 q 271 300 350 275 l 226 314 q 64 485 64 365 q 80 556 64 524 q 124 612 96 589 q 192 648 153 635 q 281 661 232 661 q 372 654 325 661 q 458 628 419 647 l 440 571 m 246 772 l 188 772 l 299 958 l 386 958 l 246 772 z "},"ş":{"ha":550,"x_min":61,"x_max":488,"o":"m 440 571 q 289 603 371 603 q 176 572 214 603 q 139 492 139 540 q 171 417 139 443 q 283 368 203 392 l 325 356 q 446 286 404 332 q 488 174 488 240 q 436 49 488 100 q 285 -10 385 -3 l 256 -67 q 356 -97 321 -69 q 392 -164 392 -124 q 379 -214 392 -193 q 345 -249 367 -235 q 296 -271 324 -264 q 238 -278 268 -278 q 178 -273 206 -278 q 135 -261 151 -268 l 149 -214 q 228 -228 188 -228 q 297 -214 272 -228 q 322 -167 322 -200 q 291 -124 322 -139 q 182 -108 260 -108 l 228 -11 q 134 1 175 -8 q 61 26 93 11 l 81 83 q 156 56 117 65 q 247 47 194 47 q 369 78 326 47 q 413 165 413 108 q 381 242 413 210 q 271 300 350 275 l 226 314 q 64 485 64 365 q 80 556 64 524 q 124 612 96 589 q 192 648 153 635 q 281 661 232 661 q 372 654 325 661 q 458 628 419 647 l 440 571 z "},"ŝ":{"ha":550,"x_min":61,"x_max":488,"o":"m 440 571 q 289 603 371 603 q 176 572 214 603 q 139 492 139 540 q 171 417 139 443 q 283 368 203 392 l 325 356 q 446 286 404 332 q 488 174 488 240 q 472 101 488 135 q 428 42 457 67 q 355 3 399 17 q 254 -11 311 -11 q 144 -1 192 -11 q 61 26 97 10 l 81 83 q 156 56 117 65 q 247 47 194 47 q 369 78 326 47 q 413 165 413 108 q 381 242 413 210 q 271 300 350 275 l 226 314 q 64 485 64 365 q 80 556 64 524 q 124 612 96 589 q 192 648 153 635 q 281 661 232 661 q 372 654 325 661 q 458 628 419 647 l 440 571 m 475 772 l 397 772 l 281 906 l 158 772 l 79 772 l 246 958 l 314 958 l 475 772 z "},"ș":{"ha":550,"x_min":61,"x_max":488,"o":"m 440 571 q 289 603 371 603 q 176 572 214 603 q 139 492 139 540 q 171 417 139 443 q 283 368 203 392 l 325 356 q 446 286 404 332 q 488 174 488 240 q 472 101 488 135 q 428 42 457 67 q 355 3 399 17 q 254 -11 311 -11 q 144 -1 192 -11 q 61 26 97 10 l 81 83 q 156 56 117 65 q 247 47 194 47 q 369 78 326 47 q 413 165 413 108 q 372 251 413 217 q 226 314 331 286 q 64 485 64 365 q 80 556 64 524 q 124 612 96 589 q 192 648 153 635 q 281 661 232 661 q 372 654 325 661 q 458 628 419 647 l 440 571 m 282 -258 q 242 -237 258 -254 q 226 -192 226 -221 q 242 -150 226 -167 q 283 -133 258 -133 q 328 -152 306 -133 q 350 -225 350 -171 q 339 -286 350 -257 q 309 -341 328 -315 q 266 -387 290 -367 q 215 -421 242 -407 l 188 -382 q 256 -328 229 -361 q 289 -260 282 -294 l 282 -258 z "},"ﬆ":{"ha":1046,"x_min":61,"x_max":1019,"o":"m 693 747 q 679 858 693 814 q 641 928 665 901 q 583 965 617 954 q 508 975 549 975 q 393 933 438 975 q 349 813 349 892 q 379 697 349 742 q 458 628 410 651 l 440 571 q 289 603 371 603 q 176 572 214 603 q 139 492 139 540 q 171 417 139 443 q 283 368 203 392 l 325 356 q 446 286 404 332 q 488 174 488 240 q 472 101 488 135 q 428 42 457 67 q 355 3 399 17 q 254 -11 311 -11 q 144 -1 192 -11 q 61 26 97 10 l 81 83 q 156 56 117 65 q 247 47 194 47 q 369 78 326 47 q 413 165 413 108 q 381 242 413 210 q 271 300 350 275 l 226 314 q 64 488 64 365 q 122 614 64 567 q 281 661 181 661 q 307 661 294 661 q 335 658 319 661 l 336 661 q 318 683 328 669 q 299 715 308 696 q 283 759 289 733 q 276 821 276 785 q 293 904 276 865 q 341 972 310 943 q 415 1017 372 1000 q 511 1033 458 1033 q 699 963 633 1033 q 765 761 765 893 l 765 653 l 985 653 l 985 597 l 765 597 l 765 169 q 794 81 765 104 q 875 58 824 58 q 950 66 915 58 q 1008 82 985 74 l 1019 28 q 951 8 992 17 q 863 0 911 0 q 736 40 779 0 q 693 160 693 79 l 693 597 l 575 597 l 575 653 l 693 653 l 693 747 z "},"ŧ":{"ha":497,"x_min":28,"x_max":472,"o":"m 438 417 l 438 361 l 218 361 l 218 169 q 247 81 218 104 q 328 58 276 58 q 403 66 368 58 q 461 82 438 74 l 472 28 q 404 8 444 17 q 315 0 364 0 q 189 40 232 0 q 146 160 146 79 l 146 361 l 28 361 l 28 417 l 146 417 l 146 597 l 28 597 l 28 653 l 146 653 l 146 861 l 218 861 l 218 653 l 438 653 l 438 597 l 218 597 l 218 417 l 438 417 z "},"ť":{"ha":629,"x_min":28,"x_max":643,"o":"m 438 597 l 218 597 l 218 169 q 247 81 218 104 q 328 58 276 58 q 403 66 368 58 q 461 82 438 74 l 472 28 q 404 8 444 17 q 315 0 364 0 q 189 40 232 0 q 146 160 146 79 l 146 597 l 28 597 l 28 653 l 146 653 l 146 861 l 218 861 l 218 653 l 438 653 l 438 597 m 575 875 q 535 896 551 879 q 519 942 519 913 q 535 983 519 967 q 576 1000 551 1000 q 621 981 599 1000 q 643 908 643 963 q 632 847 643 876 q 602 792 621 818 q 559 747 583 767 q 508 713 535 726 l 481 751 q 549 806 522 772 q 582 874 575 839 l 575 875 z "},"ţ":{"ha":497,"x_min":28,"x_max":472,"o":"m 438 597 l 218 597 l 218 169 q 247 81 218 104 q 328 58 276 58 q 403 66 368 58 q 461 82 438 74 l 472 28 q 404 8 444 17 q 315 0 364 0 q 189 40 232 0 q 146 160 146 79 l 146 597 l 28 597 l 28 653 l 146 653 l 146 861 l 218 861 l 218 653 l 438 653 l 438 597 m 310 -258 q 270 -237 286 -254 q 254 -192 254 -221 q 270 -150 254 -167 q 311 -133 286 -133 q 356 -152 333 -133 q 378 -225 378 -171 q 367 -286 378 -257 q 337 -341 356 -315 q 294 -387 318 -367 q 243 -421 269 -407 l 215 -382 q 283 -328 257 -361 q 317 -260 310 -294 l 310 -258 z "},"ŭ":{"ha":699,"x_min":94,"x_max":604,"o":"m 532 653 l 604 653 l 604 0 l 553 0 l 542 82 l 539 82 q 450 17 506 46 q 319 -11 394 -11 q 156 44 218 -11 q 94 215 94 99 l 94 653 l 167 653 l 167 231 q 179 141 167 176 q 214 85 192 106 q 267 56 236 64 q 335 47 299 47 q 451 76 397 47 q 532 146 504 106 l 532 653 m 228 944 q 257 860 229 892 q 350 828 285 828 q 435 858 404 828 q 468 944 467 889 l 535 944 q 488 821 535 869 q 350 772 440 772 q 265 786 300 772 q 206 824 229 800 q 172 880 183 849 q 161 944 161 911 l 228 944 z "},"ű":{"ha":699,"x_min":94,"x_max":644,"o":"m 532 653 l 604 653 l 604 0 l 553 0 l 542 82 l 539 82 q 450 17 506 46 q 319 -11 394 -11 q 156 44 218 -11 q 94 215 94 99 l 94 653 l 167 653 l 167 231 q 179 141 167 176 q 214 85 192 106 q 267 56 236 64 q 335 47 299 47 q 451 76 397 47 q 532 146 504 106 l 532 653 m 254 772 l 196 772 l 321 958 l 408 958 l 254 772 m 490 772 l 432 772 l 557 958 l 644 958 l 490 772 z "},"ū":{"ha":699,"x_min":94,"x_max":604,"o":"m 532 653 l 604 653 l 604 0 l 553 0 l 542 82 l 539 82 q 450 17 506 46 q 319 -11 394 -11 q 156 44 218 -11 q 94 215 94 99 l 94 653 l 167 653 l 167 231 q 179 141 167 176 q 214 85 192 106 q 267 56 236 64 q 335 47 299 47 q 451 76 397 47 q 532 146 504 106 l 532 653 m 506 906 l 506 850 l 193 850 l 193 906 l 506 906 z "},"ų":{"ha":699,"x_min":94,"x_max":672,"o":"m 532 653 l 604 653 l 604 0 q 526 -60 558 -24 q 494 -146 494 -97 q 519 -208 494 -186 q 585 -231 544 -231 q 628 -226 610 -231 q 661 -215 647 -222 l 672 -257 q 625 -277 651 -269 q 567 -285 599 -285 q 467 -251 508 -285 q 426 -151 426 -217 q 461 -59 426 -99 q 553 4 496 -19 l 542 82 l 539 82 q 450 17 506 46 q 319 -11 394 -11 q 156 44 218 -11 q 94 215 94 99 l 94 653 l 167 653 l 167 231 q 179 141 167 176 q 214 85 192 106 q 267 56 236 64 q 335 47 299 47 q 451 76 397 47 q 532 146 504 106 l 532 653 z "},"ů":{"ha":699,"x_min":94,"x_max":604,"o":"m 532 653 l 604 653 l 604 0 l 553 0 l 542 82 l 539 82 q 450 17 506 46 q 319 -11 394 -11 q 156 44 218 -11 q 94 215 94 99 l 94 653 l 167 653 l 167 231 q 179 141 167 176 q 214 85 192 106 q 267 56 236 64 q 335 47 299 47 q 451 76 397 47 q 532 146 504 106 l 532 653 m 225 865 q 262 952 225 924 q 350 981 299 981 q 439 952 403 981 q 475 865 475 924 q 437 778 475 807 q 350 750 399 750 q 263 780 300 750 q 225 865 225 810 m 281 865 q 297 811 281 833 q 350 789 314 789 q 403 811 386 789 q 419 865 419 833 q 402 919 419 897 q 350 942 385 942 q 298 919 315 942 q 281 865 281 897 z "},"ũ":{"ha":699,"x_min":94,"x_max":604,"o":"m 532 653 l 604 653 l 604 0 l 553 0 l 542 82 l 539 82 q 450 17 506 46 q 319 -11 394 -11 q 156 44 218 -11 q 94 215 94 99 l 94 653 l 167 653 l 167 231 q 179 141 167 176 q 214 85 192 106 q 267 56 236 64 q 335 47 299 47 q 451 76 397 47 q 532 146 504 106 l 532 653 m 140 779 q 168 883 140 846 q 258 919 196 919 q 311 907 288 919 q 356 880 335 894 q 397 853 376 865 q 439 840 417 840 q 488 858 469 840 q 506 924 506 875 l 558 924 q 531 819 558 853 q 446 785 504 785 q 388 797 414 785 q 340 824 363 810 q 299 851 318 839 q 260 864 279 864 q 214 846 233 864 q 194 779 194 828 l 140 779 z "},"ẃ":{"ha":906,"x_min":15,"x_max":893,"o":"m 15 653 l 88 653 l 201 242 l 242 61 l 244 61 l 290 242 l 417 653 l 493 653 l 615 242 l 663 61 l 665 61 l 711 242 l 824 653 l 893 653 l 708 0 l 625 0 l 500 428 l 454 603 l 407 428 l 279 0 l 203 0 l 15 653 m 440 772 l 382 772 l 493 958 l 581 958 l 440 772 z "},"ŵ":{"ha":906,"x_min":15,"x_max":893,"o":"m 15 653 l 88 653 l 201 242 l 242 61 l 244 61 l 290 242 l 417 653 l 493 653 l 615 242 l 663 61 l 665 61 l 711 242 l 824 653 l 893 653 l 708 0 l 625 0 l 500 428 l 454 603 l 407 428 l 279 0 l 203 0 l 15 653 m 649 772 l 571 772 l 453 908 l 332 772 l 253 772 l 419 958 l 488 958 l 649 772 z "},"ẅ":{"ha":906,"x_min":15,"x_max":893,"o":"m 15 653 l 88 653 l 201 242 l 242 61 l 244 61 l 290 242 l 417 653 l 493 653 l 615 242 l 663 61 l 665 61 l 711 242 l 824 653 l 893 653 l 708 0 l 625 0 l 500 428 l 454 603 l 407 428 l 279 0 l 203 0 l 15 653 m 281 865 q 297 910 281 893 q 336 926 313 926 q 376 910 360 926 q 392 865 392 893 q 376 820 392 836 q 336 804 360 804 q 297 820 313 804 q 281 865 281 836 m 517 865 q 533 910 517 893 q 572 926 549 926 q 612 910 596 926 q 628 865 628 893 q 612 820 628 836 q 572 804 596 804 q 533 820 549 804 q 517 865 517 836 z "},"ẁ":{"ha":906,"x_min":15,"x_max":893,"o":"m 15 653 l 88 653 l 201 242 l 242 61 l 244 61 l 290 242 l 417 653 l 493 653 l 615 242 l 663 61 l 665 61 l 711 242 l 824 653 l 893 653 l 708 0 l 625 0 l 500 428 l 454 603 l 407 428 l 279 0 l 203 0 l 15 653 m 328 958 l 415 958 l 526 772 l 468 772 l 328 958 z "},"ŷ":{"ha":585,"x_min":13,"x_max":575,"o":"m 13 653 l 88 653 l 257 219 l 307 72 l 310 72 l 353 219 l 506 653 l 575 653 l 324 -56 q 228 -225 286 -161 q 88 -321 169 -289 l 58 -268 q 179 -187 129 -239 q 263 -37 229 -136 l 275 0 l 13 653 m 503 772 l 425 772 l 307 908 l 186 772 l 107 772 l 274 958 l 342 958 l 503 772 z "},"ỳ":{"ha":585,"x_min":13,"x_max":575,"o":"m 13 653 l 88 653 l 257 219 l 307 72 l 310 72 l 353 219 l 506 653 l 575 653 l 324 -56 q 228 -225 286 -161 q 88 -321 169 -289 l 58 -268 q 179 -187 129 -239 q 263 -37 229 -136 l 275 0 l 13 653 m 193 958 l 281 958 l 392 772 l 333 772 l 193 958 z "},"ź":{"ha":571,"x_min":35,"x_max":538,"o":"m 531 613 l 122 60 l 538 60 l 538 0 l 35 0 l 35 47 l 436 593 l 58 593 l 58 653 l 531 653 l 531 613 m 285 772 l 226 772 l 338 958 l 425 958 l 285 772 z "},"ż":{"ha":571,"x_min":35,"x_max":538,"o":"m 531 613 l 122 60 l 538 60 l 538 0 l 35 0 l 35 47 l 436 593 l 58 593 l 58 653 l 531 653 l 531 613 m 239 875 q 255 919 239 903 q 294 936 271 936 q 334 919 318 936 q 350 875 350 903 q 334 830 350 846 q 294 814 318 814 q 255 830 271 814 q 239 875 239 846 z "},"Ŋ":{"ha":865,"x_min":111,"x_max":754,"o":"m 111 875 l 181 875 l 563 286 q 625 193 594 239 q 685 100 656 147 l 688 100 q 685 207 685 153 q 685 314 685 261 l 685 875 l 754 875 l 754 79 q 744 -56 754 3 q 713 -158 735 -114 q 653 -237 690 -203 q 563 -299 617 -271 l 526 -242 q 639 -141 603 -196 q 682 -10 675 -86 l 315 550 q 244 665 279 607 q 179 781 210 722 l 176 781 q 181 522 181 651 l 181 0 l 111 0 l 111 875 z "},"ŋ":{"ha":692,"x_min":94,"x_max":597,"o":"m 597 101 q 588 -43 597 22 q 553 -160 578 -108 q 487 -251 528 -212 q 383 -319 446 -290 l 351 -268 q 432 -216 399 -243 q 486 -149 465 -189 q 516 -51 507 -108 q 525 90 525 6 l 525 432 q 517 499 525 468 q 491 553 510 531 q 441 590 472 576 q 364 603 410 603 q 259 576 311 603 q 167 503 207 549 l 167 0 l 94 0 l 94 653 l 147 653 l 158 563 q 260 634 206 607 q 385 661 315 661 q 541 606 485 661 q 597 450 597 550 l 597 101 z "},"₹":{"ha":694,"x_min":-14,"x_max":611,"o":"m 28 581 l 28 639 l 347 639 q 315 735 340 683 q 256 822 289 786 l -14 822 l -14 875 l 611 875 l 611 822 l 343 822 q 394 747 367 799 q 431 639 421 696 l 569 639 l 569 581 l 436 581 q 415 490 435 532 q 358 418 394 449 q 270 371 322 388 q 154 356 218 354 l 424 31 l 361 -14 l 167 242 q 110 310 135 282 q 69 356 86 338 q 35 389 50 376 l 56 432 q 149 419 93 419 q 292 465 238 419 q 351 581 346 511 l 28 581 z "},"":{"ha":694,"x_min":56,"x_max":639,"o":"m 639 333 q 617 187 639 251 q 557 78 596 122 q 464 12 518 35 q 346 -11 410 -11 q 228 10 281 -11 q 136 74 175 32 q 76 177 97 115 q 56 319 56 239 q 77 465 56 401 q 138 573 99 529 q 231 639 178 617 q 350 661 285 661 q 467 640 414 661 q 559 578 521 619 q 618 475 597 536 q 639 333 639 414 m 564 326 q 546 456 564 403 q 497 541 528 508 q 428 588 467 574 q 347 603 389 603 q 267 589 306 603 q 197 542 228 575 q 149 457 167 510 q 131 326 131 404 q 149 197 131 250 q 197 111 167 144 q 267 63 228 78 q 347 47 306 47 q 428 62 389 47 q 497 109 467 76 q 546 195 528 142 q 564 326 564 249 z "},"":{"ha":531,"x_min":58,"x_max":472,"o":"m 281 653 l 308 653 l 308 58 l 472 58 l 472 0 l 72 0 l 72 58 l 242 58 l 242 429 l 244 576 l 75 521 l 58 579 l 281 653 z "},"":{"ha":539,"x_min":43,"x_max":497,"o":"m 43 590 q 145 645 96 629 q 250 661 194 661 q 414 603 354 661 q 474 449 474 546 q 446 326 474 385 q 376 215 418 267 q 286 123 335 164 q 197 56 238 82 l 303 58 l 497 58 l 497 0 l 69 0 l 69 46 q 175 116 118 74 q 281 211 232 158 q 363 324 331 264 q 396 444 396 383 q 357 560 396 518 q 243 603 318 603 q 159 588 203 603 q 75 540 115 572 l 43 590 z "},"":{"ha":582,"x_min":54,"x_max":513,"o":"m 56 611 q 148 651 104 640 q 250 661 192 661 q 419 607 357 661 q 482 463 482 553 q 442 349 482 397 q 339 283 401 300 l 339 281 q 405 256 374 274 q 460 210 436 238 q 499 145 485 182 q 513 64 513 108 q 488 -54 513 -1 q 415 -144 463 -107 q 302 -202 368 -182 q 154 -222 236 -222 q 114 -221 135 -222 q 65 -215 93 -219 l 54 -160 q 94 -163 78 -162 q 126 -164 110 -164 q 360 -101 282 -164 q 438 67 438 -39 q 381 203 438 154 q 222 253 324 253 q 188 252 207 253 q 135 249 169 251 l 135 306 l 181 306 q 356 350 303 306 q 410 463 410 394 q 397 522 410 496 q 361 565 383 547 q 310 593 339 583 q 247 603 281 603 q 167 593 207 603 q 83 560 126 583 l 56 611 z "},"":{"ha":743,"x_min":49,"x_max":674,"o":"m 446 653 l 536 653 l 536 58 l 674 58 l 674 0 l 536 0 l 536 -222 l 469 -222 l 469 0 l 49 0 l 49 44 l 446 653 m 136 58 l 469 58 l 469 376 l 472 593 l 347 385 l 136 58 z "},"":{"ha":575,"x_min":54,"x_max":506,"o":"m 126 653 l 486 654 l 481 597 l 176 597 l 139 349 q 172 352 158 351 q 200 353 185 353 q 328 332 271 353 q 424 275 385 311 q 485 190 464 239 q 506 86 506 142 q 481 -35 506 21 q 410 -133 457 -92 q 295 -199 363 -175 q 140 -222 228 -222 q 104 -221 124 -222 q 65 -217 85 -219 l 54 -160 q 118 -164 92 -164 q 259 -145 200 -164 q 356 -93 318 -126 q 413 -15 394 -60 q 431 83 431 31 q 360 237 431 179 q 175 294 290 294 q 124 292 147 294 q 74 286 101 290 l 126 653 z "},"":{"ha":721,"x_min":83,"x_max":644,"o":"m 585 824 q 562 827 572 826 q 532 828 551 828 q 383 795 449 828 q 272 709 318 763 q 197 589 225 656 q 160 454 169 522 l 163 453 q 253 526 196 497 q 375 554 310 554 q 489 534 439 554 q 574 477 539 514 q 626 390 608 440 q 644 282 644 340 q 623 162 644 215 q 565 69 601 108 q 478 10 528 31 q 372 -11 428 -11 q 260 10 313 -11 q 168 77 207 32 q 106 190 129 122 q 83 351 83 258 q 112 551 83 454 q 195 722 140 647 q 331 841 250 796 q 514 886 411 886 q 546 885 529 886 q 578 881 563 883 l 585 824 m 156 301 q 172 201 156 247 q 216 120 188 154 q 284 67 244 86 q 372 47 324 47 q 453 65 417 47 q 516 113 490 82 q 556 185 542 143 q 569 276 569 226 q 515 433 569 375 q 369 490 461 490 q 246 460 293 490 q 176 389 199 429 q 160 346 165 368 q 156 301 156 324 z "},"":{"ha":596,"x_min":65,"x_max":568,"o":"m 568 653 l 568 611 q 436 392 499 504 q 321 174 374 281 q 228 -31 268 67 q 163 -207 188 -129 l 97 -190 q 170 -8 126 -107 q 266 194 214 90 q 375 400 318 297 q 489 594 432 503 l 65 594 l 65 653 l 568 653 z "},"":{"ha":694,"x_min":83,"x_max":611,"o":"m 349 886 q 451 869 406 886 q 528 822 497 853 q 576 751 560 792 q 593 663 593 710 q 578 592 593 625 q 539 535 563 560 q 484 492 515 510 q 422 464 453 474 l 422 461 q 564 370 517 426 q 611 239 611 314 q 590 134 611 179 q 532 59 568 89 q 449 15 496 29 q 351 0 401 0 q 250 15 299 0 q 165 58 201 29 q 106 131 128 88 q 83 233 83 175 q 268 456 83 393 l 268 458 q 205 493 235 474 q 153 538 175 513 q 118 594 131 563 q 106 667 106 626 q 168 824 106 763 q 349 886 231 886 m 175 669 q 189 605 175 633 q 226 553 203 576 q 281 515 250 531 q 344 492 311 500 q 408 515 376 500 q 466 552 440 531 q 508 601 492 574 q 524 664 524 629 q 508 737 524 706 q 468 788 493 768 q 412 818 443 808 q 349 828 381 828 q 224 786 274 828 q 175 669 175 744 m 354 428 q 202 349 249 401 q 156 235 156 297 q 172 156 156 189 q 216 101 189 122 q 278 69 243 79 q 351 58 314 58 q 422 69 388 58 q 481 103 456 81 q 523 159 507 125 q 539 239 539 193 q 523 307 539 276 q 481 361 507 338 q 421 401 454 385 q 354 428 388 418 z "},"":{"ha":721,"x_min":76,"x_max":638,"o":"m 150 -164 q 315 -134 243 -164 q 436 -56 386 -104 q 517 55 486 -7 q 558 181 547 117 l 556 182 q 464 117 519 138 q 346 96 408 96 q 232 117 282 96 q 147 174 182 138 q 94 262 113 211 q 76 371 76 313 q 99 491 76 438 q 159 582 121 544 q 248 640 197 619 q 357 661 299 661 q 468 639 417 661 q 557 572 519 617 q 616 460 594 528 q 638 299 638 392 q 608 97 638 192 q 518 -69 578 1 q 369 -181 458 -140 q 164 -222 281 -222 q 132 -221 149 -222 q 100 -217 115 -219 l 94 -160 q 119 -163 107 -162 q 150 -164 132 -164 m 565 332 q 553 431 565 382 q 515 517 540 479 q 449 579 489 556 q 354 603 408 603 q 272 586 310 603 q 208 539 235 569 q 166 467 181 508 q 151 376 151 426 q 206 219 151 278 q 351 160 260 160 q 469 186 422 160 q 536 239 517 213 q 558 280 550 258 q 565 332 565 301 z "},"Ḍ":{"ha":836,"x_min":111,"x_max":772,"o":"m 368 875 q 528 849 454 875 q 657 770 603 822 q 742 640 711 718 q 772 457 772 561 q 736 243 772 331 q 638 101 700 156 q 493 24 575 47 q 319 0 411 0 l 111 0 l 111 875 l 368 875 m 183 58 l 307 58 q 449 76 379 58 q 574 138 518 93 q 663 260 629 183 q 697 457 697 338 q 672 608 697 542 q 599 722 646 675 q 487 792 551 768 q 343 817 422 817 l 183 817 l 183 58 m 306 -194 q 322 -150 306 -167 q 361 -133 338 -133 q 401 -150 385 -133 q 417 -194 417 -167 q 401 -240 417 -224 q 361 -256 385 -256 q 322 -240 338 -256 q 306 -194 306 -224 z "},"ḍ":{"ha":699,"x_min":58,"x_max":604,"o":"m 532 986 l 604 986 l 604 0 l 546 0 l 536 61 l 533 61 q 460 9 504 29 q 344 -11 415 -11 q 241 9 292 -11 q 149 71 190 29 q 83 176 108 113 q 58 325 58 239 q 78 464 58 401 q 138 570 99 526 q 231 638 176 614 q 356 661 286 661 q 532 599 461 661 l 532 986 m 532 525 q 458 582 504 561 q 368 603 413 603 q 280 588 322 603 q 205 542 238 574 q 153 457 172 510 q 133 329 133 404 q 153 198 133 251 q 205 111 172 144 q 279 63 238 78 q 365 47 321 47 q 467 69 425 47 q 532 125 510 92 l 532 525 m 289 -194 q 305 -150 289 -167 q 344 -133 321 -133 q 384 -150 368 -133 q 400 -194 400 -167 q 384 -240 400 -224 q 344 -256 368 -256 q 305 -240 321 -256 q 289 -194 289 -224 z "},"Ḥ":{"ha":838,"x_min":111,"x_max":726,"o":"m 111 0 l 111 875 l 183 875 l 183 482 l 654 482 l 654 875 l 726 875 l 726 0 l 654 0 l 654 424 l 183 424 l 183 0 l 111 0 m 363 -194 q 378 -150 363 -167 q 418 -133 394 -133 q 458 -150 442 -133 q 474 -194 474 -167 q 458 -240 474 -224 q 418 -256 442 -256 q 378 -240 394 -256 q 363 -194 363 -224 z "},"ḥ":{"ha":725,"x_min":111,"x_max":619,"o":"m 183 0 l 111 0 l 111 986 l 183 986 l 183 565 q 285 634 229 607 q 407 661 340 661 q 501 645 461 661 q 567 601 542 629 q 606 534 593 572 q 619 450 619 496 l 619 0 l 547 0 l 547 428 q 504 563 547 524 q 390 603 461 603 q 286 576 340 603 q 183 503 232 549 l 183 0 m 308 -194 q 324 -150 308 -167 q 364 -133 340 -133 q 403 -150 388 -133 q 419 -194 419 -167 q 403 -240 419 -224 q 364 -256 388 -256 q 324 -240 340 -256 q 308 -194 308 -224 z "},"Ḷ":{"ha":606,"x_min":111,"x_max":585,"o":"m 111 875 l 183 875 l 183 58 l 585 58 l 585 0 l 111 0 l 111 875 m 288 -194 q 303 -150 288 -167 q 343 -133 319 -133 q 383 -150 367 -133 q 399 -194 399 -167 q 383 -240 399 -224 q 343 -256 367 -256 q 303 -240 319 -256 q 288 -194 288 -224 z "},"ḷ":{"ha":294,"x_min":90,"x_max":201,"o":"m 111 0 l 111 986 l 183 986 l 183 0 l 111 0 m 90 -194 q 106 -150 90 -167 q 146 -133 122 -133 q 185 -150 169 -133 q 201 -194 201 -167 q 185 -240 201 -224 q 146 -256 169 -256 q 106 -240 122 -256 q 90 -194 90 -224 z "},"Ḹ":{"ha":606,"x_min":111,"x_max":585,"o":"m 111 875 l 183 875 l 183 58 l 585 58 l 585 0 l 111 0 l 111 875 m 288 -194 q 303 -150 288 -167 q 343 -133 319 -133 q 383 -150 367 -133 q 399 -194 399 -167 q 383 -240 399 -224 q 343 -256 367 -256 q 303 -240 319 -256 q 288 -194 288 -224 m 503 1072 l 503 1014 l 163 1014 l 163 1072 l 503 1072 z "},"ḹ":{"ha":294,"x_min":-32,"x_max":308,"o":"m 90 -194 q 106 -150 90 -167 q 146 -133 122 -133 q 185 -150 169 -133 q 201 -194 201 -167 q 185 -240 201 -224 q 146 -256 169 -256 q 106 -240 122 -256 q 90 -194 90 -224 m 96 0 l 96 986 l 168 986 l 168 0 l 96 0 m 308 1142 l 308 1083 l -32 1083 l -32 1142 l 308 1142 z "},"Ḻ":{"ha":606,"x_min":111,"x_max":585,"o":"m 111 875 l 183 875 l 183 58 l 585 58 l 585 0 l 111 0 l 111 875 m 511 -154 l 511 -212 l 171 -212 l 171 -154 l 511 -154 z "},"ḻ":{"ha":294,"x_min":-24,"x_max":317,"o":"m 111 0 l 111 986 l 183 986 l 183 0 l 111 0 m 317 -154 l 317 -212 l -24 -212 l -24 -154 l 317 -154 z "},"Ṃ":{"ha":1085,"x_min":89,"x_max":996,"o":"m 179 875 l 274 875 l 496 232 q 517 165 504 207 q 542 86 531 122 l 544 86 q 567 165 554 122 q 589 231 581 207 l 808 875 l 906 875 l 996 0 l 924 0 l 874 501 q 860 655 867 579 q 849 808 853 731 l 846 808 q 801 660 826 743 q 749 501 776 578 l 574 0 l 508 0 l 332 501 q 236 808 279 651 l 233 808 q 222 661 228 743 q 208 501 215 579 l 158 0 l 89 0 l 179 875 m 486 -194 q 502 -150 486 -167 q 542 -133 518 -133 q 581 -150 565 -133 q 597 -194 597 -167 q 581 -240 597 -224 q 542 -256 565 -256 q 502 -240 518 -256 q 486 -194 486 -224 z "},"ṃ":{"ha":1117,"x_min":106,"x_max":1011,"o":"m 178 0 l 106 0 l 106 653 l 157 653 l 168 563 q 267 635 214 608 q 393 663 319 663 q 507 634 463 663 q 574 556 551 606 q 681 635 622 607 q 810 663 739 663 q 960 606 910 663 q 1011 450 1011 550 l 1011 0 l 939 0 l 939 428 q 903 557 939 511 q 776 603 868 603 q 678 576 729 603 q 593 506 628 550 q 594 478 594 493 q 594 450 594 463 l 594 0 l 522 0 l 522 428 q 489 557 522 511 q 365 603 456 603 q 265 576 314 603 q 178 501 215 549 l 178 0 m 501 -194 q 517 -150 501 -167 q 557 -133 533 -133 q 597 -150 581 -133 q 613 -194 613 -167 q 597 -240 613 -224 q 557 -256 581 -256 q 517 -240 533 -256 q 501 -194 501 -224 z "},"Ṅ":{"ha":865,"x_min":111,"x_max":754,"o":"m 111 875 l 181 875 l 563 300 q 625 207 594 253 q 685 114 656 161 l 688 114 q 685 221 685 167 q 685 328 685 275 l 685 875 l 754 875 l 754 0 l 685 0 l 315 550 q 244 664 278 606 q 179 781 210 722 l 176 781 q 181 522 181 651 l 181 0 l 111 0 l 111 875 m 376 1081 q 392 1125 376 1108 q 432 1142 408 1142 q 472 1125 456 1142 q 488 1081 488 1108 q 472 1035 488 1051 q 432 1019 456 1019 q 392 1035 408 1019 q 376 1081 376 1051 z "},"ṅ":{"ha":714,"x_min":106,"x_max":608,"o":"m 178 0 l 106 0 l 106 653 l 158 653 l 169 563 q 272 634 217 607 q 396 661 326 661 q 552 606 496 661 q 608 450 608 550 l 608 0 l 536 0 l 536 432 q 528 499 536 468 q 502 553 521 531 q 452 590 483 576 q 375 603 421 603 q 270 576 322 603 q 178 503 218 549 l 178 0 m 301 875 q 317 919 301 903 q 357 936 333 936 q 397 919 381 936 q 413 875 413 903 q 397 830 413 846 q 357 814 381 814 q 317 830 333 814 q 301 875 301 846 z "},"Ṇ":{"ha":865,"x_min":111,"x_max":754,"o":"m 111 875 l 181 875 l 563 300 q 625 207 594 253 q 685 114 656 161 l 688 114 q 685 221 685 167 q 685 328 685 275 l 685 875 l 754 875 l 754 0 l 685 0 l 315 550 q 244 664 278 606 q 179 781 210 722 l 176 781 q 181 522 181 651 l 181 0 l 111 0 l 111 875 m 376 -194 q 392 -150 376 -167 q 432 -133 408 -133 q 472 -150 456 -133 q 488 -194 488 -167 q 472 -240 488 -224 q 432 -256 456 -256 q 392 -240 408 -256 q 376 -194 376 -224 z "},"ṇ":{"ha":714,"x_min":106,"x_max":608,"o":"m 178 0 l 106 0 l 106 653 l 158 653 l 169 563 q 272 634 217 607 q 396 661 326 661 q 552 606 496 661 q 608 450 608 550 l 608 0 l 536 0 l 536 432 q 528 499 536 468 q 502 553 521 531 q 452 590 483 576 q 375 603 421 603 q 270 576 322 603 q 178 503 218 549 l 178 0 m 294 -194 q 310 -150 294 -167 q 350 -133 326 -133 q 390 -150 374 -133 q 406 -194 406 -167 q 390 -240 406 -224 q 350 -256 374 -256 q 310 -240 326 -256 q 294 -194 294 -224 z "},"Ṉ":{"ha":865,"x_min":111,"x_max":754,"o":"m 111 875 l 181 875 l 563 300 q 625 207 594 253 q 685 114 656 161 l 688 114 q 685 221 685 167 q 685 328 685 275 l 685 875 l 754 875 l 754 0 l 685 0 l 315 550 q 244 664 278 606 q 179 781 210 722 l 176 781 q 181 522 181 651 l 181 0 l 111 0 l 111 875 m 594 -154 l 594 -212 l 254 -212 l 254 -154 l 594 -154 z "},"ṉ":{"ha":714,"x_min":106,"x_max":608,"o":"m 178 0 l 106 0 l 106 653 l 158 653 l 169 563 q 272 634 217 607 q 396 661 326 661 q 552 606 496 661 q 608 450 608 550 l 608 0 l 536 0 l 536 432 q 528 499 536 468 q 502 553 521 531 q 452 590 483 576 q 375 603 421 603 q 270 576 322 603 q 178 503 218 549 l 178 0 m 521 -154 l 521 -212 l 181 -212 l 181 -154 l 521 -154 z "},"Ṛ":{"ha":722,"x_min":111,"x_max":697,"o":"m 111 875 l 367 875 q 487 857 435 875 q 574 807 539 839 q 626 731 608 775 q 644 632 644 686 q 628 541 644 582 q 586 469 613 500 q 525 416 560 438 q 453 385 490 394 l 697 0 l 614 0 l 386 371 l 176 371 l 176 0 l 111 0 l 111 875 m 176 429 l 338 429 q 431 442 388 429 q 504 479 474 454 q 552 542 535 504 q 569 629 569 579 q 511 773 569 729 q 339 817 453 817 l 176 817 l 176 429 m 322 -194 q 338 -150 322 -167 q 378 -133 354 -133 q 417 -150 401 -133 q 433 -194 433 -167 q 417 -240 433 -224 q 378 -256 401 -256 q 338 -240 354 -256 q 322 -194 322 -224 z "},"ṛ":{"ha":492,"x_min":83,"x_max":472,"o":"m 103 0 l 103 653 l 150 653 l 167 522 q 247 623 190 585 q 375 661 304 661 q 433 656 408 661 q 472 643 458 650 l 458 579 q 421 592 442 586 q 372 597 400 597 q 297 583 332 597 q 234 540 261 569 q 191 467 207 511 q 175 364 175 424 l 175 0 l 103 0 m 83 -194 q 99 -150 83 -167 q 139 -133 115 -133 q 178 -150 163 -133 q 194 -194 194 -167 q 178 -240 194 -224 q 139 -256 163 -256 q 99 -240 115 -256 q 83 -194 83 -224 z "},"Ṝ":{"ha":722,"x_min":111,"x_max":697,"o":"m 111 875 l 367 875 q 487 857 435 875 q 574 807 539 839 q 626 731 608 775 q 644 632 644 686 q 628 541 644 582 q 586 469 613 500 q 525 416 560 438 q 453 385 490 394 l 697 0 l 614 0 l 386 371 l 176 371 l 176 0 l 111 0 l 111 875 m 176 429 l 338 429 q 431 442 388 429 q 504 479 474 454 q 552 542 535 504 q 569 629 569 579 q 511 773 569 729 q 339 817 453 817 l 176 817 l 176 429 m 322 -194 q 338 -150 322 -167 q 378 -133 354 -133 q 417 -150 401 -133 q 433 -194 433 -167 q 417 -240 433 -224 q 378 -256 401 -256 q 338 -240 354 -256 q 322 -194 322 -224 m 526 1072 l 526 1014 l 186 1014 l 186 1072 l 526 1072 z "},"ṝ":{"ha":492,"x_min":83,"x_max":472,"o":"m 103 0 l 103 653 l 150 653 l 167 522 q 247 623 190 585 q 375 661 304 661 q 433 656 408 661 q 472 643 458 650 l 458 579 q 421 592 442 586 q 372 597 400 597 q 297 583 332 597 q 234 540 261 569 q 191 467 207 511 q 175 364 175 424 l 175 0 l 103 0 m 401 917 l 401 865 l 89 865 l 89 917 l 401 917 m 83 -194 q 99 -150 83 -167 q 139 -133 115 -133 q 178 -150 163 -133 q 194 -194 194 -167 q 178 -240 194 -224 q 139 -256 163 -256 q 99 -240 115 -256 q 83 -194 83 -224 z "},"Ṟ":{"ha":722,"x_min":111,"x_max":697,"o":"m 111 875 l 367 875 q 487 857 435 875 q 574 807 539 839 q 626 731 608 775 q 644 632 644 686 q 628 541 644 582 q 586 469 613 500 q 525 416 560 438 q 453 385 490 394 l 697 0 l 614 0 l 386 371 l 176 371 l 176 0 l 111 0 l 111 875 m 176 429 l 338 429 q 431 442 388 429 q 504 479 474 454 q 552 542 535 504 q 569 629 569 579 q 511 773 569 729 q 339 817 453 817 l 176 817 l 176 429 m 553 -154 l 553 -212 l 213 -212 l 213 -154 l 553 -154 z "},"ṟ":{"ha":492,"x_min":103,"x_max":472,"o":"m 103 0 l 103 653 l 150 653 l 167 522 q 247 623 190 585 q 375 661 304 661 q 433 656 408 661 q 472 643 458 650 l 458 579 q 421 592 442 586 q 372 597 400 597 q 297 583 332 597 q 234 540 261 569 q 191 467 207 511 q 175 364 175 424 l 175 0 l 103 0 m 450 -154 l 450 -212 l 110 -212 l 110 -154 l 450 -154 z "},"Ṣ":{"ha":671,"x_min":64,"x_max":606,"o":"m 342 886 q 457 874 401 886 q 568 836 513 863 l 549 779 q 442 817 490 807 q 344 828 394 828 q 197 785 253 828 q 140 668 140 743 q 183 559 140 599 q 313 490 226 519 l 411 457 q 556 365 507 425 q 606 226 606 304 q 529 53 606 117 q 322 -11 453 -11 q 191 1 256 -11 q 64 44 126 14 l 85 104 q 198 62 142 75 q 317 49 254 49 q 470 90 410 49 q 531 218 531 132 q 522 274 531 247 q 494 324 514 300 q 439 368 474 347 q 351 407 404 389 l 257 438 q 182 470 217 450 q 121 517 147 490 q 80 579 94 544 q 65 657 65 614 q 138 824 65 763 q 342 886 210 886 m 253 -194 q 269 -150 253 -167 q 308 -133 285 -133 q 348 -150 332 -133 q 364 -194 364 -167 q 348 -240 364 -224 q 308 -256 332 -256 q 269 -240 285 -256 q 253 -194 253 -224 z "},"ṣ":{"ha":549,"x_min":61,"x_max":488,"o":"m 440 571 q 289 603 371 603 q 176 572 214 603 q 139 492 139 540 q 171 417 139 443 q 283 368 203 392 l 325 356 q 446 286 404 332 q 488 174 488 240 q 472 101 488 135 q 428 42 457 67 q 355 3 399 17 q 254 -11 311 -11 q 144 -1 192 -11 q 61 26 97 10 l 81 83 q 156 56 117 65 q 247 47 194 47 q 369 78 326 47 q 413 165 413 108 q 381 242 413 210 q 271 300 350 275 l 226 314 q 64 485 64 365 q 80 556 64 524 q 124 612 96 589 q 192 648 153 635 q 281 661 232 661 q 372 654 325 661 q 458 628 419 647 l 440 571 m 207 -194 q 223 -150 207 -167 q 263 -133 239 -133 q 302 -150 286 -133 q 318 -194 318 -167 q 302 -240 318 -224 q 263 -256 286 -256 q 223 -240 239 -256 q 207 -194 207 -224 z "},"Ṭ":{"ha":696,"x_min":14,"x_max":683,"o":"m 683 875 l 683 817 l 382 817 l 382 0 l 310 0 l 310 817 l 14 817 l 14 875 l 683 875 m 290 -194 q 306 -150 290 -167 q 346 -133 322 -133 q 385 -150 369 -133 q 401 -194 401 -167 q 385 -240 401 -224 q 346 -256 369 -256 q 306 -240 322 -256 q 290 -194 290 -224 z "},"ṭ":{"ha":497,"x_min":28,"x_max":472,"o":"m 438 597 l 218 597 l 218 169 q 247 81 218 104 q 328 58 276 58 q 403 66 368 58 q 461 82 438 74 l 472 28 q 404 8 444 17 q 315 0 364 0 q 189 40 232 0 q 146 160 146 79 l 146 597 l 28 597 l 28 653 l 146 653 l 146 861 l 218 861 l 218 653 l 438 653 l 438 597 m 249 -194 q 265 -150 249 -167 q 304 -133 281 -133 q 344 -150 328 -133 q 360 -194 360 -167 q 344 -240 360 -224 q 304 -256 328 -256 q 265 -240 281 -256 q 249 -194 249 -224 z "},"Ṯ":{"ha":696,"x_min":14,"x_max":683,"o":"m 683 875 l 683 817 l 382 817 l 382 0 l 310 0 l 310 817 l 14 817 l 14 875 l 683 875 m 517 -154 l 517 -212 l 176 -212 l 176 -154 l 517 -154 z "},"ṯ":{"ha":497,"x_min":28,"x_max":483,"o":"m 438 597 l 218 597 l 218 169 q 247 81 218 104 q 328 58 276 58 q 403 66 368 58 q 461 82 438 74 l 472 28 q 404 8 444 17 q 315 0 364 0 q 189 40 232 0 q 146 160 146 79 l 146 597 l 28 597 l 28 653 l 146 653 l 146 861 l 218 861 l 218 653 l 438 653 l 438 597 m 483 -154 l 483 -212 l 143 -212 l 143 -154 l 483 -154 z "},"Ẏ":{"ha":692,"x_min":21,"x_max":692,"o":"m 106 875 l 354 440 l 604 875 l 692 875 l 389 367 l 389 0 l 317 0 l 317 367 l 21 875 l 106 875 m 290 1081 q 306 1125 290 1108 q 346 1142 322 1142 q 385 1125 369 1142 q 401 1081 401 1108 q 385 1035 401 1051 q 346 1019 369 1019 q 306 1035 322 1019 q 290 1081 290 1051 z "},"ẏ":{"ha":593,"x_min":17,"x_max":579,"o":"m 17 653 l 92 653 l 261 219 l 311 72 l 314 72 l 357 219 l 510 653 l 579 653 l 328 -56 q 232 -225 290 -161 q 92 -321 174 -289 l 63 -268 q 183 -187 133 -239 q 267 -37 233 -136 l 279 0 l 17 653 m 240 875 q 256 919 240 903 q 296 936 272 936 q 335 919 319 936 q 351 875 351 903 q 335 830 351 846 q 296 814 319 814 q 256 830 272 814 q 240 875 240 846 z "},"·":{"ha":250,"x_min":69,"x_max":181,"o":"m 69 458 q 85 503 69 486 q 125 519 101 519 q 165 503 149 519 q 181 458 181 486 q 165 413 181 429 q 125 397 149 397 q 85 413 101 397 q 69 458 69 429 z "},"⁰":{"ha":550,"x_min":33,"x_max":517,"o":"m 282 1192 q 386 1170 342 1192 q 460 1110 431 1149 q 503 1018 489 1072 q 517 899 517 964 q 453 689 517 767 q 276 611 389 611 q 182 631 226 611 q 104 688 138 650 q 52 778 71 725 q 33 899 33 832 q 101 1115 33 1038 q 282 1192 169 1192 m 104 900 q 148 729 104 792 q 279 667 192 667 q 402 726 358 667 q 446 899 446 786 q 436 993 446 950 q 406 1068 426 1036 q 353 1118 385 1100 q 278 1136 321 1136 q 151 1072 199 1136 q 104 900 104 1007 z "},"¹":{"ha":336,"x_min":31,"x_max":242,"o":"m 203 1182 l 242 1182 l 242 618 l 178 618 l 178 1107 l 46 1047 l 31 1103 l 203 1182 z "},"²":{"ha":433,"x_min":15,"x_max":392,"o":"m 189 1136 q 119 1126 156 1136 q 46 1092 83 1115 l 15 1139 q 100 1179 57 1167 q 192 1192 143 1192 q 276 1178 239 1192 q 340 1142 314 1165 q 378 1089 365 1119 q 392 1024 392 1058 q 377 943 392 982 q 338 869 363 904 q 281 804 313 835 q 217 747 250 774 l 121 671 l 392 671 l 392 618 l 32 618 l 24 653 l 136 751 q 214 822 179 789 q 272 885 249 854 q 309 949 296 917 q 322 1021 322 982 q 286 1103 322 1069 q 189 1136 250 1136 z "},"³":{"ha":419,"x_min":14,"x_max":385,"o":"m 29 1160 q 108 1185 71 1179 q 182 1192 146 1192 q 253 1181 219 1192 q 311 1149 286 1169 q 351 1101 336 1129 q 365 1039 365 1074 q 256 908 365 940 l 256 906 q 349 859 314 894 q 385 772 385 824 q 367 700 385 731 q 318 650 349 669 q 249 621 288 631 q 168 611 210 611 q 88 618 132 611 q 14 636 43 625 l 29 686 q 100 671 69 675 q 167 667 131 667 q 221 673 194 667 q 268 692 247 679 q 301 726 289 706 q 314 776 314 747 q 278 844 314 814 q 160 874 242 874 l 78 874 l 78 929 l 139 929 q 256 958 218 929 q 294 1035 294 988 q 258 1112 294 1088 q 172 1136 221 1136 q 50 1107 113 1136 l 29 1160 z "},"⁴":{"ha":522,"x_min":22,"x_max":494,"o":"m 308 1182 l 372 1182 l 372 826 l 494 826 l 494 774 l 372 774 l 372 618 l 308 618 l 308 774 l 22 774 l 22 814 l 308 1182 m 250 1013 l 106 826 l 308 826 l 308 999 l 314 1104 l 311 1104 l 250 1013 z "},"⁵":{"ha":458,"x_min":31,"x_max":417,"o":"m 396 1185 l 396 1131 l 135 1131 l 119 972 q 163 978 139 976 q 210 981 186 981 q 363 933 310 981 q 417 810 417 885 q 399 727 417 764 q 350 665 382 690 q 274 625 318 639 q 179 611 231 611 q 97 617 135 611 q 31 636 58 624 l 44 685 q 106 669 74 674 q 181 664 138 664 q 251 675 219 664 q 303 706 282 686 q 335 751 324 725 q 346 806 346 776 q 302 897 346 867 q 183 928 258 928 q 123 922 154 928 q 61 908 92 917 l 86 1183 l 396 1185 z "},"⁶":{"ha":489,"x_min":33,"x_max":456,"o":"m 103 932 q 172 987 129 969 q 258 1004 215 1004 q 403 952 350 1004 q 456 817 456 900 q 402 670 456 729 q 249 611 349 611 q 168 626 207 611 q 99 675 129 642 q 51 760 69 708 q 33 883 33 811 q 52 1022 33 964 q 106 1118 71 1081 q 189 1174 140 1156 q 297 1192 238 1192 q 418 1169 364 1192 l 401 1114 q 353 1130 382 1124 q 296 1136 325 1136 q 154 1079 204 1136 q 100 933 104 1022 l 103 932 m 104 831 q 144 710 104 756 q 253 664 185 664 q 353 705 321 664 q 385 813 385 746 q 349 920 385 886 q 253 954 313 954 q 169 933 201 954 q 118 885 136 913 q 108 861 111 874 q 104 831 104 849 z "},"⁷":{"ha":431,"x_min":25,"x_max":414,"o":"m 414 1182 l 414 1142 l 151 603 l 93 628 l 344 1128 l 25 1128 l 25 1182 l 414 1182 z "},"⁸":{"ha":475,"x_min":33,"x_max":442,"o":"m 156 910 q 103 938 124 922 q 72 969 83 953 q 57 1004 61 986 q 53 1040 53 1022 q 65 1097 53 1069 q 99 1144 76 1124 q 158 1178 122 1165 q 239 1192 193 1192 q 324 1178 289 1192 q 383 1144 360 1165 q 416 1095 406 1122 q 426 1040 426 1068 q 406 970 426 1003 q 317 914 385 938 l 317 911 q 413 852 385 892 q 442 771 442 813 q 389 655 442 699 q 236 611 336 611 q 153 623 190 611 q 90 655 117 635 q 48 703 63 675 q 33 765 33 732 q 58 851 33 814 q 156 907 83 888 l 156 910 m 119 1040 q 149 975 119 1000 q 240 939 178 950 q 330 977 300 950 q 360 1040 360 1004 q 326 1112 360 1085 q 239 1139 292 1139 q 153 1112 186 1139 q 119 1040 119 1085 m 238 882 q 135 840 168 871 q 103 767 103 810 q 138 694 103 725 q 239 664 172 664 q 337 694 301 664 q 372 774 372 725 q 337 844 372 814 q 238 882 301 875 z "},"⁹":{"ha":488,"x_min":33,"x_max":454,"o":"m 386 863 q 325 817 363 835 q 233 799 288 799 q 153 812 190 799 q 90 849 117 825 q 49 910 64 874 q 33 992 33 946 q 47 1072 33 1035 q 88 1135 61 1108 q 153 1176 114 1161 q 242 1192 192 1192 q 324 1176 285 1192 q 392 1129 363 1161 q 438 1047 421 1097 q 454 924 454 996 q 383 687 454 763 q 188 611 311 611 q 128 615 160 611 q 74 629 97 619 l 85 679 q 138 666 110 669 q 190 663 167 663 q 272 678 236 663 q 333 719 308 693 q 372 783 358 746 q 390 861 386 819 l 386 863 m 385 975 q 376 1031 385 1003 q 350 1083 368 1060 q 304 1122 332 1107 q 239 1136 276 1136 q 141 1098 178 1136 q 104 993 104 1060 q 144 884 104 919 q 246 849 185 849 q 324 867 293 849 q 371 917 354 886 q 385 975 385 942 z "},"⁽":{"ha":275,"x_min":56,"x_max":261,"o":"m 261 1265 q 203 1184 228 1225 q 160 1099 178 1143 q 134 1006 143 1054 q 125 900 125 957 q 261 528 125 697 l 226 496 q 101 678 146 579 q 56 899 56 776 q 101 1119 56 1021 q 228 1299 147 1217 l 261 1265 z "},"⁾":{"ha":275,"x_min":14,"x_max":219,"o":"m 14 529 q 72 610 47 569 q 115 696 97 651 q 141 789 132 740 q 150 894 150 838 q 14 1267 150 1097 l 49 1299 q 174 1117 129 1215 q 219 896 219 1018 q 174 676 219 774 q 47 496 128 578 l 14 529 z "},"₀":{"ha":550,"x_min":33,"x_max":517,"o":"m 282 351 q 386 330 342 351 q 460 270 431 308 q 503 178 489 232 q 517 58 517 124 q 453 -151 517 -74 q 276 -229 389 -229 q 182 -210 226 -229 q 104 -153 138 -190 q 52 -62 71 -115 q 33 58 33 -8 q 101 274 33 197 q 282 351 169 351 m 104 60 q 148 -111 104 -49 q 279 -174 192 -174 q 402 -114 358 -174 q 446 58 446 -54 q 436 153 446 110 q 406 228 426 196 q 353 278 385 260 q 278 296 321 296 q 151 231 199 296 q 104 60 104 167 z "},"₁":{"ha":336,"x_min":31,"x_max":242,"o":"m 203 342 l 242 342 l 242 -222 l 178 -222 l 178 267 l 46 207 l 31 263 l 203 342 z "},"₂":{"ha":433,"x_min":15,"x_max":392,"o":"m 189 296 q 119 285 156 296 q 46 251 83 275 l 15 299 q 100 339 57 326 q 192 351 143 351 q 276 338 239 351 q 340 302 314 325 q 378 249 365 279 q 392 183 392 218 q 377 103 392 142 q 338 29 363 64 q 281 -36 313 -6 q 217 -93 250 -67 l 121 -169 l 392 -169 l 392 -222 l 32 -222 l 24 -187 l 136 -89 q 214 -19 179 -51 q 272 45 249 14 q 309 109 296 76 q 322 181 322 142 q 286 263 322 229 q 189 296 250 296 z "},"₃":{"ha":419,"x_min":14,"x_max":385,"o":"m 29 319 q 108 345 71 339 q 182 351 146 351 q 253 340 219 351 q 311 309 286 329 q 351 261 336 289 q 365 199 365 233 q 256 68 365 100 l 256 65 q 349 19 314 54 q 385 -68 385 -17 q 367 -140 385 -110 q 318 -190 349 -171 q 249 -219 288 -210 q 168 -229 210 -229 q 88 -222 132 -229 q 14 -204 43 -215 l 29 -154 q 100 -169 69 -165 q 167 -174 131 -174 q 221 -167 194 -174 q 268 -148 247 -161 q 301 -114 289 -135 q 314 -64 314 -93 q 278 3 314 -26 q 160 33 242 33 l 78 33 l 78 89 l 139 89 q 256 118 218 89 q 294 194 294 147 q 258 272 294 247 q 172 296 221 296 q 50 267 113 296 l 29 319 z "}}}
